<svg version="1.1" viewBox="0.0 0.0 646.0 399.0" fill="none" stroke="none" stroke-linecap="square" stroke-miterlimit="10" width="646" height="399" xmlns:xlink="http://www.w3.org/1999/xlink" xmlns="http://www.w3.org/2000/svg"><path fill="#ffffff" d="M0 0L646.0 0L646.0 399.0L0 399.0L0 0Z" fill-rule="nonzero"/><path stroke="#333333" stroke-width="1.0" stroke-linecap="butt" d="M102.5 325.5L626.5 325.5" fill-rule="nonzero"/><path stroke="#cccccc" stroke-width="1.0" stroke-linecap="butt" d="M102.5 272.5L626.5 272.5" fill-rule="nonzero"/><path stroke="#cccccc" stroke-width="1.0" stroke-linecap="butt" d="M102.5 220.5L626.5 220.5" fill-rule="nonzero"/><path stroke="#cccccc" stroke-width="1.0" stroke-linecap="butt" d="M102.5 168.5L626.5 168.5" fill-rule="nonzero"/><path stroke="#cccccc" stroke-width="1.0" stroke-linecap="butt" d="M102.5 116.5L626.5 116.5" fill-rule="nonzero"/><path stroke="#cccccc" stroke-width="1.0" stroke-linecap="butt" d="M102.5 64.5L626.5 64.5" fill-rule="nonzero"/><clipPath id="id_0"><path d="M102.95 64.75L626.05 64.75L626.05 325.05L102.95 325.05L102.95 64.75Z" clip-rule="nonzero"/></clipPath><path stroke="#000000" stroke-width="2.0" stroke-linecap="butt" stroke-opacity="0.0" clip-path="url(#id_0)" d="M166.0 325.0L125.0 325.0L125.0 77.0C125.0 75.89543 125.89543 75.0 127.0 75.0L164.0 75.0C165.10457 75.0 166.0 75.89543 166.0 77.0Z" fill-rule="nonzero"/><path fill="#4285f4" clip-path="url(#id_0)" d="M166.0 325.0L125.0 325.0L125.0 77.0C125.0 75.89543 125.89543 75.0 127.0 75.0L164.0 75.0C165.10457 75.0 166.0 75.89543 166.0 77.0Z" fill-rule="nonzero"/><path stroke="#000000" stroke-width="2.0" stroke-linecap="butt" stroke-opacity="0.0" clip-path="url(#id_0)" d="M229.0 325.0L188.0 325.0L188.0 87.0C188.0 85.89543 188.89543 85.0 190.0 85.0L227.0 85.0C228.10457 85.0 229.0 85.89543 229.0 87.0Z" fill-rule="nonzero"/><path fill="#4285f4" clip-path="url(#id_0)" d="M229.0 325.0L188.0 325.0L188.0 87.0C188.0 85.89543 188.89543 85.0 190.0 85.0L227.0 85.0C228.10457 85.0 229.0 85.89543 229.0 87.0Z" fill-rule="nonzero"/><path stroke="#000000" stroke-width="2.0" stroke-linecap="butt" stroke-opacity="0.0" clip-path="url(#id_0)" d="M292.0 325.0L251.0 325.0L251.0 259.0C251.0 257.89542 251.89543 257.0 253.0 257.0L290.0 257.0C291.10458 257.0 292.0 257.89542 292.0 259.0Z" fill-rule="nonzero"/><path fill="#4285f4" clip-path="url(#id_0)" d="M292.0 325.0L251.0 325.0L251.0 259.0C251.0 257.89542 251.89543 257.0 253.0 257.0L290.0 257.0C291.10458 257.0 292.0 257.89542 292.0 259.0Z" fill-rule="nonzero"/><path stroke="#000000" stroke-width="2.0" stroke-linecap="butt" stroke-opacity="0.0" clip-path="url(#id_0)" d="M354.0 325.0L313.0 325.0L313.0 239.0C313.0 237.89543 313.89542 237.0 315.0 237.0L352.0 237.0C353.10458 237.0 354.0 237.89543 354.0 239.0Z" fill-rule="nonzero"/><path fill="#4285f4" clip-path="url(#id_0)" d="M354.0 325.0L313.0 325.0L313.0 239.0C313.0 237.89543 313.89542 237.0 315.0 237.0L352.0 237.0C353.10458 237.0 354.0 237.89543 354.0 239.0Z" fill-rule="nonzero"/><path stroke="#000000" stroke-width="2.0" stroke-linecap="butt" stroke-opacity="0.0" clip-path="url(#id_0)" d="M417.0 325.0L376.0 325.0L376.0 254.0C376.0 252.89543 376.89542 252.0 378.0 252.0L415.0 252.0C416.10458 252.0 417.0 252.89543 417.0 254.0Z" fill-rule="nonzero"/><path fill="#4285f4" clip-path="url(#id_0)" d="M417.0 325.0L376.0 325.0L376.0 254.0C376.0 252.89543 376.89542 252.0 378.0 252.0L415.0 252.0C416.10458 252.0 417.0 252.89543 417.0 254.0Z" fill-rule="nonzero"/><path stroke="#000000" stroke-width="2.0" stroke-linecap="butt" stroke-opacity="0.0" clip-path="url(#id_0)" d="M479.0 325.0L438.0 325.0L438.0 106.0C438.0 104.89543 438.89542 104.0 440.0 104.0L477.0 104.0C478.10458 104.0 479.0 104.89543 479.0 106.0Z" fill-rule="nonzero"/><path fill="#4285f4" clip-path="url(#id_0)" d="M479.0 325.0L438.0 325.0L438.0 106.0C438.0 104.89543 438.89542 104.0 440.0 104.0L477.0 104.0C478.10458 104.0 479.0 104.89543 479.0 106.0Z" fill-rule="nonzero"/><path stroke="#000000" stroke-width="2.0" stroke-linecap="butt" stroke-opacity="0.0" clip-path="url(#id_0)" d="M542.0 325.0L501.0 325.0L501.0 199.0C501.0 197.89543 501.89542 197.0 503.0 197.0L540.0 197.0C541.10455 197.0 542.0 197.89543 542.0 199.0Z" fill-rule="nonzero"/><path fill="#4285f4" clip-path="url(#id_0)" d="M542.0 325.0L501.0 325.0L501.0 199.0C501.0 197.89543 501.89542 197.0 503.0 197.0L540.0 197.0C541.10455 197.0 542.0 197.89543 542.0 199.0Z" fill-rule="nonzero"/><path stroke="#000000" stroke-width="2.0" stroke-linecap="butt" stroke-opacity="0.0" clip-path="url(#id_0)" d="M605.0 325.0L564.0 325.0L564.0 156.0C564.0 154.89543 564.89545 154.0 566.0 154.0L603.0 154.0C604.10455 154.0 605.0 154.89543 605.0 156.0Z" fill-rule="nonzero"/><path fill="#4285f4" clip-path="url(#id_0)" d="M605.0 325.0L564.0 325.0L564.0 156.0C564.0 154.89543 564.89545 154.0 566.0 154.0L603.0 154.0C604.10455 154.0 605.0 154.89543 605.0 156.0Z" fill-rule="nonzero"/><path fill="#424242" d="M356.29688 374.925Q355.85938 375.55 355.07812 375.8625Q354.29688 376.175 353.26562 376.175Q352.23438 376.175 351.42188 375.6906Q350.60938 375.1906 350.17188 374.28436Q349.73438 373.3781 349.71875 372.1906L349.71875 371.45624Q349.71875 369.51874 350.60938 368.45624Q351.51562 367.39374 353.14062 367.39374Q354.48438 367.39374 355.29688 368.08124Q356.10938 368.76874 356.29688 370.01874L355.17188 370.01874Q354.84375 368.33124 353.15625 368.33124Q352.01562 368.33124 351.4375 369.1281Q350.85938 369.90936 350.84375 371.425L350.84375 372.1125Q350.84375 373.55 351.5 374.40936Q352.15625 375.2531 353.28125 375.2531Q353.90625 375.2531 354.375 375.1125Q354.85938 374.97186 355.17188 374.6281L355.17188 372.72186L353.20312 372.72186L353.20312 371.8L356.29688 371.8L356.29688 374.925ZM360.45312 376.175Q359.15625 376.175 358.34375 375.33124Q357.54688 374.47186 357.54688 373.05L357.54688 372.8625Q357.54688 371.90936 357.90625 371.175Q358.26562 370.425 358.90625 370.01874Q359.5625 369.59686 360.3125 369.59686Q361.54688 369.59686 362.23438 370.40936Q362.92188 371.22186 362.92188 372.7375L362.92188 373.1906L358.625 373.1906Q358.65625 374.1281 359.17188 374.70624Q359.70312 375.28436 360.51562 375.28436Q361.07812 375.28436 361.46875 375.05Q361.875 374.8156 362.1875 374.425L362.84375 374.9406Q362.04688 376.175 360.45312 376.175ZM360.3125 370.4875Q359.65625 370.4875 359.20312 370.97186Q358.76562 371.4406 358.67188 372.3L361.84375 372.3L361.84375 372.22186Q361.79688 371.39374 361.39062 370.9406Q361.0 370.4875 360.3125 370.4875ZM364.84375 369.70624L364.875 370.5031Q365.60938 369.59686 366.78125 369.59686Q368.79688 369.59686 368.8125 371.8625L368.8125 376.05L367.71875 376.05L367.71875 371.84686Q367.71875 371.175 367.40625 370.84686Q367.10938 370.51874 366.45312 370.51874Q365.92188 370.51874 365.51562 370.8Q365.125 371.08124 364.90625 371.53436L364.90625 376.05L363.82812 376.05L363.82812 369.70624L364.84375 369.70624ZM373.89062 370.675Q373.64062 370.64374 373.35938 370.64374Q372.28125 370.64374 371.90625 371.55L371.90625 376.05L370.82812 376.05L370.82812 369.70624L371.875 369.70624L371.89062 370.4406Q372.42188 369.59686 373.40625 369.59686Q373.71875 369.59686 373.89062 369.675L373.89062 370.675ZM377.45312 376.175Q376.15625 376.175 375.34375 375.33124Q374.54688 374.47186 374.54688 373.05L374.54688 372.8625Q374.54688 371.90936 374.90625 371.175Q375.26562 370.425 375.90625 370.01874Q376.5625 369.59686 377.3125 369.59686Q378.54688 369.59686 379.23438 370.40936Q379.92188 371.22186 379.92188 372.7375L379.92188 373.1906L375.625 373.1906Q375.65625 374.1281 376.17188 374.70624Q376.70312 375.28436 377.51562 375.28436Q378.07812 375.28436 378.46875 375.05Q378.875 374.8156 379.1875 374.425L379.84375 374.9406Q379.04688 376.175 377.45312 376.175ZM377.3125 370.4875Q376.65625 370.4875 376.20312 370.97186Q375.76562 371.4406 375.67188 372.3L378.84375 372.3L378.84375 372.22186Q378.79688 371.39374 378.39062 370.9406Q378.0 370.4875 377.3125 370.4875Z" fill-rule="nonzero"/><path fill="#424242" d="M31.949987 244.60312L31.949987 245.72812L25.371862 250.025L31.949987 250.025L31.949987 251.16562L23.418737 251.16562L23.418737 250.025L30.028112 245.72812L23.418737 245.72812L23.418737 244.60312L31.949987 244.60312ZM31.324987 238.41562Q32.07499 239.04062 32.07499 240.275Q32.07499 241.29062 31.481237 241.82187Q30.887487 242.35312 29.731237 242.35312L25.606237 242.35312L25.606237 241.275L29.699987 241.275Q31.153112 241.275 31.153112 240.10312Q31.153112 238.85312 30.215612 238.44687L25.606237 238.44687L25.606237 237.35312L31.949987 237.35312L31.949987 238.38437L31.324987 238.41562ZM25.606237 234.30624L26.309362 234.275Q25.496862 233.5875 25.496862 232.4Q25.496862 231.07187 26.512487 230.5875Q26.059362 230.275 25.778112 229.775Q25.496862 229.25937 25.496862 228.57187Q25.496862 226.47812 27.699987 226.44687L31.949987 226.44687L31.949987 227.525L27.762487 227.525Q27.090612 227.525 26.762487 227.8375Q26.418737 228.15 26.418737 228.88437Q26.418737 229.49374 26.778112 229.9Q27.137487 230.29062 27.746862 230.35312L31.949987 230.35312L31.949987 231.43124L27.793737 231.43124Q26.418737 231.43124 26.418737 232.79062Q26.418737 233.85312 27.324987 234.24374L31.949987 234.24374L31.949987 235.3375L25.606237 235.3375L25.606237 234.30624ZM28.856237 218.9625Q30.309362 218.9625 31.199987 219.63437Q32.07499 220.29062 32.07499 221.41562Q32.07499 222.61874 31.215612 223.275L31.949987 223.3375L31.949987 224.32187L22.949987 224.32187L22.949987 223.24374L26.309362 223.24374Q25.496862 222.5875 25.496862 221.43124Q25.496862 220.275 26.371862 219.61874Q27.231237 218.9625 28.762487 218.9625L28.856237 218.9625ZM28.731237 220.04062Q27.621862 220.04062 27.028112 220.47812Q26.418737 220.9 26.418737 221.69687Q26.418737 222.775 27.403112 223.24374L30.153112 223.24374Q31.153112 222.74374 31.153112 221.69687Q31.153112 220.91562 30.543737 220.47812Q29.934362 220.04062 28.731237 220.04062ZM32.07499 214.69687Q32.07499 215.99374 31.231237 216.80624Q30.371862 217.60312 28.949987 217.60312L28.762487 217.60312Q27.809362 217.60312 27.074987 217.24374Q26.324987 216.88437 25.918737 216.24374Q25.496862 215.5875 25.496862 214.8375Q25.496862 213.60312 26.309362 212.91562Q27.121862 212.22812 28.637487 212.22812L29.090612 212.22812L29.090612 216.525Q30.028112 216.49374 30.606237 215.97812Q31.184362 215.44687 31.184362 214.63437Q31.184362 214.07187 30.949987 213.68124Q30.715612 213.275 30.324987 212.9625L30.840612 212.30624Q32.07499 213.10312 32.07499 214.69687ZM26.387487 214.8375Q26.387487 215.49374 26.871862 215.94687Q27.340612 216.38437 28.199987 216.47812L28.199987 213.30624L28.121862 213.30624Q27.293737 213.35312 26.840612 213.75937Q26.387487 214.15 26.387487 214.8375ZM26.574987 208.25937Q26.543737 208.50937 26.543737 208.79062Q26.543737 209.86874 27.449987 210.24374L31.949987 210.24374L31.949987 211.32187L25.606237 211.32187L25.606237 210.275L26.340612 210.25937Q25.496862 209.72812 25.496862 208.74374Q25.496862 208.43124 25.574987 208.25937L26.574987 208.25937ZM28.715612 204.61874Q27.793737 204.61874 27.043737 204.25937Q26.293737 203.88437 25.903112 203.22812Q25.496862 202.57187 25.496862 201.74374Q25.496862 200.44687 26.387487 199.65Q27.278112 198.8375 28.778112 198.8375L28.856237 198.8375Q29.778112 198.8375 30.512487 199.19687Q31.246862 199.55624 31.668737 200.2125Q32.07499 200.86874 32.07499 201.72812Q32.07499 203.00937 31.184362 203.82187Q30.278112 204.61874 28.793737 204.61874L28.715612 204.61874ZM28.856237 203.525Q29.903112 203.525 30.543737 203.04062Q31.184362 202.54062 31.184362 201.72812Q31.184362 200.9 30.543737 200.41562Q29.887487 199.93124 28.715612 199.93124Q27.684362 199.93124 27.043737 200.43124Q26.387487 200.91562 26.387487 201.74374Q26.387487 202.54062 27.028112 203.04062Q27.653112 203.525 28.856237 203.525ZM31.949987 196.79062L26.449987 196.79062L26.449987 197.79062L25.606237 197.79062L25.606237 196.79062L24.965612 196.79062Q23.934362 196.79062 23.387487 196.25937Q22.824987 195.7125 22.824987 194.7125Q22.824987 194.3375 22.918737 193.9625L23.809362 194.025Q23.746862 194.30624 23.746862 194.60312Q23.746862 195.13437 24.059362 195.43124Q24.371862 195.7125 24.934362 195.7125L25.606237 195.7125L25.606237 194.35312L26.449987 194.35312L26.449987 195.7125L31.949987 195.7125L31.949987 196.79062ZM27.965612 183.60312Q29.215612 183.60312 30.153112 184.025Q31.074987 184.44687 31.574987 185.22812Q32.07499 185.99374 32.07499 187.025Q32.07499 188.025 31.574987 188.80624Q31.074987 189.5875 30.168737 190.025Q29.246862 190.44687 28.028112 190.4625L27.418737 190.4625Q26.184362 190.4625 25.246862 190.04062Q24.309362 189.60312 23.809362 188.82187Q23.293737 188.04062 23.293737 187.025Q23.293737 186.00937 23.793737 185.22812Q24.293737 184.44687 25.231237 184.025Q26.168737 183.60312 27.418737 183.60312L27.965612 183.60312ZM27.403112 184.7125Q25.887487 184.7125 25.074987 185.32187Q24.262487 185.93124 24.262487 187.025Q24.262487 188.10312 25.074987 188.7125Q25.887487 189.32187 27.324987 189.3375L27.965612 189.3375Q29.434362 189.3375 30.278112 188.72812Q31.106237 188.10312 31.106237 187.025Q31.106237 185.93124 30.324987 185.3375Q29.528112 184.72812 28.043737 184.7125L27.403112 184.7125ZM30.449987 176.7125L25.606237 175.49374L25.606237 174.41562L31.949987 176.25937L31.949987 177.13437L27.137487 178.68124L31.949987 180.18124L31.949987 181.05624L25.606237 182.9L25.606237 181.82187L30.356237 180.57187L25.606237 179.0875L25.606237 178.22812L30.449987 176.7125ZM25.606237 172.30624L26.403112 172.275Q25.496862 171.54062 25.496862 170.36874Q25.496862 168.35312 27.762487 168.3375L31.949987 168.3375L31.949987 169.43124L27.746862 169.43124Q27.074987 169.43124 26.746862 169.74374Q26.418737 170.04062 26.418737 170.69687Q26.418737 171.22812 26.699987 171.63437Q26.981237 172.025 27.434362 172.24374L31.949987 172.24374L31.949987 173.32187L25.606237 173.32187L25.606237 172.30624ZM32.07499 163.69687Q32.07499 164.99374 31.231237 165.80624Q30.371862 166.60312 28.949987 166.60312L28.762487 166.60312Q27.809362 166.60312 27.074987 166.24374Q26.324987 165.88437 25.918737 165.24374Q25.496862 164.5875 25.496862 163.8375Q25.496862 162.60312 26.309362 161.91562Q27.121862 161.22812 28.637487 161.22812L29.090612 161.22812L29.090612 165.525Q30.028112 165.49374 30.606237 164.97812Q31.184362 164.44687 31.184362 163.63437Q31.184362 163.07187 30.949987 162.68124Q30.715612 162.275 30.324987 161.9625L30.840612 161.30624Q32.07499 162.10312 32.07499 163.69687ZM26.387487 163.8375Q26.387487 164.49374 26.871862 164.94687Q27.340612 165.38437 28.199987 165.47812L28.199987 162.30624L28.121862 162.30624Q27.293737 162.35312 26.840612 162.75937Q26.387487 163.15 26.387487 163.8375ZM26.574987 157.25937Q26.543737 157.50937 26.543737 157.79062Q26.543737 158.86874 27.449987 159.24374L31.949987 159.24374L31.949987 160.32187L25.606237 160.32187L25.606237 159.275L26.340612 159.25937Q25.496862 158.72812 25.496862 157.74374Q25.496862 157.43124 25.574987 157.25937L26.574987 157.25937ZM30.262487 152.63437Q29.824987 152.63437 29.590612 152.97812Q29.340612 153.30624 29.168737 154.13437Q28.996862 154.94687 28.746862 155.43124Q28.496862 155.91562 28.168737 156.15Q27.824987 156.36874 27.356237 156.36874Q26.574987 156.36874 26.043737 155.7125Q25.496862 155.05624 25.496862 154.025Q25.496862 152.94687 26.059362 152.29062Q26.606237 151.61874 27.465612 151.61874L27.465612 152.69687Q27.028112 152.69687 26.715612 153.0875Q26.387487 153.4625 26.387487 154.025Q26.387487 154.61874 26.653112 154.9625Q26.903112 155.29062 27.309362 155.29062Q27.699987 155.29062 27.903112 154.97812Q28.106237 154.66562 28.293737 153.85312Q28.465612 153.04062 28.715612 152.54062Q28.965612 152.04062 29.324987 151.80624Q29.684362 151.55624 30.184362 151.55624Q31.043737 151.55624 31.559362 152.24374Q32.07499 152.91562 32.07499 153.99374Q32.07499 154.75937 31.809362 155.35312Q31.528112 155.93124 31.043737 156.25937Q30.559362 156.5875 29.996862 156.5875L29.996862 155.50937Q30.543737 155.47812 30.871862 155.07187Q31.184362 154.66562 31.184362 153.99374Q31.184362 153.38437 30.934362 153.00937Q30.684362 152.63437 30.262487 152.63437Z" fill-rule="nonzero"/><path fill="#757575" d="M96.0125 325.90936Q96.0125 327.8156 95.35625 328.7531Q94.71562 329.675 93.325 329.675Q91.96562 329.675 91.30937 328.76874Q90.65312 327.8625 90.62187 326.05L90.62187 324.6125Q90.62187 322.72186 91.2625 321.8156Q91.91875 320.89374 93.30937 320.89374Q94.68437 320.89374 95.34062 321.78436Q95.99687 322.65936 96.0125 324.5031L96.0125 325.90936ZM94.91875 324.425Q94.91875 323.05 94.52812 322.425Q94.15312 321.78436 93.30937 321.78436Q92.48125 321.78436 92.09062 322.425Q91.71562 323.05 91.71562 324.34686L91.71562 326.08124Q91.71562 327.45624 92.10625 328.1281Q92.5125 328.78436 93.325 328.78436Q94.12187 328.78436 94.5125 328.15936Q94.90312 327.53436 94.91875 326.20624L94.91875 324.425Z" fill-rule="nonzero"/><path fill="#757575" d="M57.215626 277.49L56.1375 277.49L56.1375 270.27124L53.95 271.0681L53.95 270.08374L57.059376 268.91187L57.215626 268.91187L57.215626 277.49ZM66.0125 273.84937Q66.0125 275.7556 65.35625 276.6931Q64.71562 277.615 63.325 277.615Q61.965626 277.615 61.309376 276.70874Q60.653126 275.8025 60.621876 273.99L60.621876 272.5525Q60.621876 270.66187 61.2625 269.7556Q61.91875 268.83374 63.309376 268.83374Q64.68437 268.83374 65.34062 269.72437Q65.99687 270.59937 66.0125 272.4431L66.0125 273.84937ZM64.91875 272.365Q64.91875 270.99 64.52812 270.365Q64.15312 269.72437 63.309376 269.72437Q62.48125 269.72437 62.090626 270.365Q61.715626 270.99 61.715626 272.28687L61.715626 274.02124Q61.715626 275.39624 62.10625 276.0681Q62.5125 276.72437 63.325 276.72437Q64.12187 276.72437 64.5125 276.09937Q64.90312 275.47437 64.91875 274.14624L64.91875 272.365ZM73.0125 273.84937Q73.0125 275.7556 72.35625 276.6931Q71.71562 277.615 70.325 277.615Q68.96562 277.615 68.30937 276.70874Q67.65312 275.8025 67.62187 273.99L67.62187 272.5525Q67.62187 270.66187 68.2625 269.7556Q68.91875 268.83374 70.30937 268.83374Q71.68437 268.83374 72.34062 269.72437Q72.99687 270.59937 73.0125 272.4431L73.0125 273.84937ZM71.91875 272.365Q71.91875 270.99 71.52812 270.365Q71.15312 269.72437 70.30937 269.72437Q69.48125 269.72437 69.09062 270.365Q68.71562 270.99 68.71562 272.28687L68.71562 274.02124Q68.71562 275.39624 69.10625 276.0681Q69.5125 276.72437 70.325 276.72437Q71.12187 276.72437 71.5125 276.09937Q71.90312 275.47437 71.91875 274.14624L71.91875 272.365ZM74.73125 279.1931L74.12187 278.77124Q74.66875 278.0056 74.7 277.1775L74.7 276.20874L75.7625 276.20874L75.7625 277.0525Q75.7625 277.64624 75.46562 278.24Q75.16875 278.83374 74.73125 279.1931ZM82.0125 273.84937Q82.0125 275.7556 81.35625 276.6931Q80.71562 277.615 79.325 277.615Q77.96562 277.615 77.30937 276.70874Q76.65312 275.8025 76.62187 273.99L76.62187 272.5525Q76.62187 270.66187 77.2625 269.7556Q77.91875 268.83374 79.30937 268.83374Q80.68437 268.83374 81.34062 269.72437Q81.99687 270.59937 82.0125 272.4431L82.0125 273.84937ZM80.91875 272.365Q80.91875 270.99 80.52812 270.365Q80.15312 269.72437 79.30937 269.72437Q78.48125 269.72437 78.09062 270.365Q77.71562 270.99 77.71562 272.28687L77.71562 274.02124Q77.71562 275.39624 78.10625 276.0681Q78.5125 276.72437 79.325 276.72437Q80.12187 276.72437 80.5125 276.09937Q80.90312 275.47437 80.91875 274.14624L80.91875 272.365ZM89.0125 273.84937Q89.0125 275.7556 88.35625 276.6931Q87.71562 277.615 86.325 277.615Q84.96562 277.615 84.30937 276.70874Q83.65312 275.8025 83.62187 273.99L83.62187 272.5525Q83.62187 270.66187 84.2625 269.7556Q84.91875 268.83374 86.30937 268.83374Q87.68437 268.83374 88.34062 269.72437Q88.99687 270.59937 89.0125 272.4431L89.0125 273.84937ZM87.91875 272.365Q87.91875 270.99 87.52812 270.365Q87.15312 269.72437 86.30937 269.72437Q85.48125 269.72437 85.09062 270.365Q84.71562 270.99 84.71562 272.28687L84.71562 274.02124Q84.71562 275.39624 85.10625 276.0681Q85.5125 276.72437 86.325 276.72437Q87.12187 276.72437 87.5125 276.09937Q87.90312 275.47437 87.91875 274.14624L87.91875 272.365ZM96.0125 273.84937Q96.0125 275.7556 95.35625 276.6931Q94.71562 277.615 93.325 277.615Q91.96562 277.615 91.30937 276.70874Q90.65312 275.8025 90.62187 273.99L90.62187 272.5525Q90.62187 270.66187 91.2625 269.7556Q91.91875 268.83374 93.30937 268.83374Q94.68437 268.83374 95.34062 269.72437Q95.99687 270.59937 96.0125 272.4431L96.0125 273.84937ZM94.91875 272.365Q94.91875 270.99 94.52812 270.365Q94.15312 269.72437 93.30937 269.72437Q92.48125 269.72437 92.09062 270.365Q91.71562 270.99 91.71562 272.28687L91.71562 274.02124Q91.71562 275.39624 92.10625 276.0681Q92.5125 276.72437 93.325 276.72437Q94.12187 276.72437 94.5125 276.09937Q94.90312 275.47437 94.91875 274.14624L94.91875 272.365Z" fill-rule="nonzero"/><path fill="#757575" d="M59.246876 225.43L53.653126 225.43L53.653126 224.64874L56.60625 221.3675Q57.2625 220.6175 57.5125 220.16437Q57.7625 219.69562 57.7625 219.19562Q57.7625 218.52374 57.35625 218.10187Q56.965626 217.66437 56.278126 217.66437Q55.48125 217.66437 55.028126 218.13312Q54.575 218.58624 54.575 219.41437L53.496876 219.41437Q53.496876 218.22687 54.246876 217.50812Q55.0125 216.77374 56.278126 216.77374Q57.48125 216.77374 58.16875 217.39874Q58.85625 218.02374 58.85625 219.07062Q58.85625 220.32062 57.246876 222.07062L54.965626 224.53937L59.246876 224.53937L59.246876 225.43ZM66.0125 221.78937Q66.0125 223.69562 65.35625 224.63312Q64.71562 225.555 63.325 225.555Q61.965626 225.555 61.309376 224.64874Q60.653126 223.7425 60.621876 221.93L60.621876 220.4925Q60.621876 218.60187 61.2625 217.69562Q61.91875 216.77374 63.309376 216.77374Q64.68437 216.77374 65.34062 217.66437Q65.99687 218.53937 66.0125 220.38312L66.0125 221.78937ZM64.91875 220.305Q64.91875 218.93 64.52812 218.305Q64.15312 217.66437 63.309376 217.66437Q62.48125 217.66437 62.090626 218.305Q61.715626 218.93 61.715626 220.22687L61.715626 221.96124Q61.715626 223.33624 62.10625 224.00812Q62.5125 224.66437 63.325 224.66437Q64.12187 224.66437 64.5125 224.03937Q64.90312 223.41437 64.91875 222.08624L64.91875 220.305ZM73.0125 221.78937Q73.0125 223.69562 72.35625 224.63312Q71.71562 225.555 70.325 225.555Q68.96562 225.555 68.30937 224.64874Q67.65312 223.7425 67.62187 221.93L67.62187 220.4925Q67.62187 218.60187 68.2625 217.69562Q68.91875 216.77374 70.30937 216.77374Q71.68437 216.77374 72.34062 217.66437Q72.99687 218.53937 73.0125 220.38312L73.0125 221.78937ZM71.91875 220.305Q71.91875 218.93 71.52812 218.305Q71.15312 217.66437 70.30937 217.66437Q69.48125 217.66437 69.09062 218.305Q68.71562 218.93 68.71562 220.22687L68.71562 221.96124Q68.71562 223.33624 69.10625 224.00812Q69.5125 224.66437 70.325 224.66437Q71.12187 224.66437 71.5125 224.03937Q71.90312 223.41437 71.91875 222.08624L71.91875 220.305ZM74.73125 227.13312L74.12187 226.71124Q74.66875 225.94562 74.7 225.1175L74.7 224.14874L75.7625 224.14874L75.7625 224.9925Q75.7625 225.58624 75.46562 226.18Q75.16875 226.77374 74.73125 227.13312ZM82.0125 221.78937Q82.0125 223.69562 81.35625 224.63312Q80.71562 225.555 79.325 225.555Q77.96562 225.555 77.30937 224.64874Q76.65312 223.7425 76.62187 221.93L76.62187 220.4925Q76.62187 218.60187 77.2625 217.69562Q77.91875 216.77374 79.30937 216.77374Q80.68437 216.77374 81.34062 217.66437Q81.99687 218.53937 82.0125 220.38312L82.0125 221.78937ZM80.91875 220.305Q80.91875 218.93 80.52812 218.305Q80.15312 217.66437 79.30937 217.66437Q78.48125 217.66437 78.09062 218.305Q77.71562 218.93 77.71562 220.22687L77.71562 221.96124Q77.71562 223.33624 78.10625 224.00812Q78.5125 224.66437 79.325 224.66437Q80.12187 224.66437 80.5125 224.03937Q80.90312 223.41437 80.91875 222.08624L80.91875 220.305ZM89.0125 221.78937Q89.0125 223.69562 88.35625 224.63312Q87.71562 225.555 86.325 225.555Q84.96562 225.555 84.30937 224.64874Q83.65312 223.7425 83.62187 221.93L83.62187 220.4925Q83.62187 218.60187 84.2625 217.69562Q84.91875 216.77374 86.30937 216.77374Q87.68437 216.77374 88.34062 217.66437Q88.99687 218.53937 89.0125 220.38312L89.0125 221.78937ZM87.91875 220.305Q87.91875 218.93 87.52812 218.305Q87.15312 217.66437 86.30937 217.66437Q85.48125 217.66437 85.09062 218.305Q84.71562 218.93 84.71562 220.22687L84.71562 221.96124Q84.71562 223.33624 85.10625 224.00812Q85.5125 224.66437 86.325 224.66437Q87.12187 224.66437 87.5125 224.03937Q87.90312 223.41437 87.91875 222.08624L87.91875 220.305ZM96.0125 221.78937Q96.0125 223.69562 95.35625 224.63312Q94.71562 225.555 93.325 225.555Q91.96562 225.555 91.30937 224.64874Q90.65312 223.7425 90.62187 221.93L90.62187 220.4925Q90.62187 218.60187 91.2625 217.69562Q91.91875 216.77374 93.30937 216.77374Q94.68437 216.77374 95.34062 217.66437Q95.99687 218.53937 96.0125 220.38312L96.0125 221.78937ZM94.91875 220.305Q94.91875 218.93 94.52812 218.305Q94.15312 217.66437 93.30937 217.66437Q92.48125 217.66437 92.09062 218.305Q91.71562 218.93 91.71562 220.22687L91.71562 221.96124Q91.71562 223.33624 92.10625 224.00812Q92.5125 224.66437 93.325 224.66437Q94.12187 224.66437 94.5125 224.03937Q94.90312 223.41437 94.91875 222.08624L94.91875 220.305Z" fill-rule="nonzero"/><path fill="#757575" d="M55.23125 168.57312L56.04375 168.57312Q56.825 168.5575 57.2625 168.16687Q57.7 167.77625 57.7 167.10437Q57.7 165.60437 56.2 165.60437Q55.496876 165.60437 55.075 166.01062Q54.66875 166.41687 54.66875 167.07312L53.575 167.07312Q53.575 166.0575 54.309376 165.38562Q55.059376 164.71375 56.2 164.71375Q57.403126 164.71375 58.090626 165.35437Q58.778126 165.995 58.778126 167.13562Q58.778126 167.69812 58.41875 168.21375Q58.059376 168.72937 57.434376 168.995Q58.1375 169.21375 58.5125 169.72937Q58.903126 170.245 58.903126 170.995Q58.903126 172.13562 58.153126 172.82312Q57.403126 173.495 56.2 173.495Q55.0125 173.495 54.246876 172.83875Q53.496876 172.1825 53.496876 171.12L54.590626 171.12Q54.590626 171.79187 55.028126 172.19812Q55.465626 172.60437 56.215626 172.60437Q56.996876 172.60437 57.403126 172.19812Q57.825 171.77625 57.825 171.01062Q57.825 170.27625 57.371876 169.88562Q56.91875 169.47937 56.04375 169.46375L55.23125 169.46375L55.23125 168.57312ZM66.0125 169.72937Q66.0125 171.63562 65.35625 172.57312Q64.71562 173.495 63.325 173.495Q61.965626 173.495 61.309376 172.58875Q60.653126 171.6825 60.621876 169.87L60.621876 168.4325Q60.621876 166.54187 61.2625 165.63562Q61.91875 164.71375 63.309376 164.71375Q64.68437 164.71375 65.34062 165.60437Q65.99687 166.47937 66.0125 168.32312L66.0125 169.72937ZM64.91875 168.245Q64.91875 166.87 64.52812 166.245Q64.15312 165.60437 63.309376 165.60437Q62.48125 165.60437 62.090626 166.245Q61.715626 166.87 61.715626 168.16687L61.715626 169.90125Q61.715626 171.27625 62.10625 171.94812Q62.5125 172.60437 63.325 172.60437Q64.12187 172.60437 64.5125 171.97937Q64.90312 171.35437 64.91875 170.02625L64.91875 168.245ZM73.0125 169.72937Q73.0125 171.63562 72.35625 172.57312Q71.71562 173.495 70.325 173.495Q68.96562 173.495 68.30937 172.58875Q67.65312 171.6825 67.62187 169.87L67.62187 168.4325Q67.62187 166.54187 68.2625 165.63562Q68.91875 164.71375 70.30937 164.71375Q71.68437 164.71375 72.34062 165.60437Q72.99687 166.47937 73.0125 168.32312L73.0125 169.72937ZM71.91875 168.245Q71.91875 166.87 71.52812 166.245Q71.15312 165.60437 70.30937 165.60437Q69.48125 165.60437 69.09062 166.245Q68.71562 166.87 68.71562 168.16687L68.71562 169.90125Q68.71562 171.27625 69.10625 171.94812Q69.5125 172.60437 70.325 172.60437Q71.12187 172.60437 71.5125 171.97937Q71.90312 171.35437 71.91875 170.02625L71.91875 168.245ZM74.73125 175.07312L74.12187 174.65125Q74.66875 173.88562 74.7 173.0575L74.7 172.08875L75.7625 172.08875L75.7625 172.9325Q75.7625 173.52625 75.46562 174.12Q75.16875 174.71375 74.73125 175.07312ZM82.0125 169.72937Q82.0125 171.63562 81.35625 172.57312Q80.71562 173.495 79.325 173.495Q77.96562 173.495 77.30937 172.58875Q76.65312 171.6825 76.62187 169.87L76.62187 168.4325Q76.62187 166.54187 77.2625 165.63562Q77.91875 164.71375 79.30937 164.71375Q80.68437 164.71375 81.34062 165.60437Q81.99687 166.47937 82.0125 168.32312L82.0125 169.72937ZM80.91875 168.245Q80.91875 166.87 80.52812 166.245Q80.15312 165.60437 79.30937 165.60437Q78.48125 165.60437 78.09062 166.245Q77.71562 166.87 77.71562 168.16687L77.71562 169.90125Q77.71562 171.27625 78.10625 171.94812Q78.5125 172.60437 79.325 172.60437Q80.12187 172.60437 80.5125 171.97937Q80.90312 171.35437 80.91875 170.02625L80.91875 168.245ZM89.0125 169.72937Q89.0125 171.63562 88.35625 172.57312Q87.71562 173.495 86.325 173.495Q84.96562 173.495 84.30937 172.58875Q83.65312 171.6825 83.62187 169.87L83.62187 168.4325Q83.62187 166.54187 84.2625 165.63562Q84.91875 164.71375 86.30937 164.71375Q87.68437 164.71375 88.34062 165.60437Q88.99687 166.47937 89.0125 168.32312L89.0125 169.72937ZM87.91875 168.245Q87.91875 166.87 87.52812 166.245Q87.15312 165.60437 86.30937 165.60437Q85.48125 165.60437 85.09062 166.245Q84.71562 166.87 84.71562 168.16687L84.71562 169.90125Q84.71562 171.27625 85.10625 171.94812Q85.5125 172.60437 86.325 172.60437Q87.12187 172.60437 87.5125 171.97937Q87.90312 171.35437 87.91875 170.02625L87.91875 168.245ZM96.0125 169.72937Q96.0125 171.63562 95.35625 172.57312Q94.71562 173.495 93.325 173.495Q91.96562 173.495 91.30937 172.58875Q90.65312 171.6825 90.62187 169.87L90.62187 168.4325Q90.62187 166.54187 91.2625 165.63562Q91.91875 164.71375 93.30937 164.71375Q94.68437 164.71375 95.34062 165.60437Q95.99687 166.47937 96.0125 168.32312L96.0125 169.72937ZM94.91875 168.245Q94.91875 166.87 94.52812 166.245Q94.15312 165.60437 93.30937 165.60437Q92.48125 165.60437 92.09062 166.245Q91.71562 166.87 91.71562 168.16687L91.71562 169.90125Q91.71562 171.27625 92.10625 171.94812Q92.5125 172.60437 93.325 172.60437Q94.12187 172.60437 94.5125 171.97937Q94.90312 171.35437 94.91875 170.02625L94.91875 168.245Z" fill-rule="nonzero"/><path fill="#757575" d="M58.23125 118.45062L59.41875 118.45062L59.41875 119.32562L58.23125 119.32562L58.23125 121.31L57.153126 121.31L57.153126 119.32562L53.2625 119.32562L53.2625 118.685L57.075 112.77875L58.23125 112.77875L58.23125 118.45062ZM54.496876 118.45062L57.153126 118.45062L57.153126 114.26312L57.0125 114.4975L54.496876 118.45062ZM66.0125 117.66937Q66.0125 119.57562 65.35625 120.51312Q64.71562 121.435 63.325 121.435Q61.965626 121.435 61.309376 120.52875Q60.653126 119.6225 60.621876 117.81L60.621876 116.3725Q60.621876 114.48187 61.2625 113.57562Q61.91875 112.65375 63.309376 112.65375Q64.68437 112.65375 65.34062 113.54437Q65.99687 114.41937 66.0125 116.26312L66.0125 117.66937ZM64.91875 116.185Q64.91875 114.81 64.52812 114.185Q64.15312 113.54437 63.309376 113.54437Q62.48125 113.54437 62.090626 114.185Q61.715626 114.81 61.715626 116.10687L61.715626 117.84125Q61.715626 119.21625 62.10625 119.88812Q62.5125 120.54437 63.325 120.54437Q64.12187 120.54437 64.5125 119.91937Q64.90312 119.29437 64.91875 117.96625L64.91875 116.185ZM73.0125 117.66937Q73.0125 119.57562 72.35625 120.51312Q71.71562 121.435 70.325 121.435Q68.96562 121.435 68.30937 120.52875Q67.65312 119.6225 67.62187 117.81L67.62187 116.3725Q67.62187 114.48187 68.2625 113.57562Q68.91875 112.65375 70.30937 112.65375Q71.68437 112.65375 72.34062 113.54437Q72.99687 114.41937 73.0125 116.26312L73.0125 117.66937ZM71.91875 116.185Q71.91875 114.81 71.52812 114.185Q71.15312 113.54437 70.30937 113.54437Q69.48125 113.54437 69.09062 114.185Q68.71562 114.81 68.71562 116.10687L68.71562 117.84125Q68.71562 119.21625 69.10625 119.88812Q69.5125 120.54437 70.325 120.54437Q71.12187 120.54437 71.5125 119.91937Q71.90312 119.29437 71.91875 117.96625L71.91875 116.185ZM74.73125 123.01312L74.12187 122.59125Q74.66875 121.82562 74.7 120.9975L74.7 120.02875L75.7625 120.02875L75.7625 120.8725Q75.7625 121.46625 75.46562 122.06Q75.16875 122.65375 74.73125 123.01312ZM82.0125 117.66937Q82.0125 119.57562 81.35625 120.51312Q80.71562 121.435 79.325 121.435Q77.96562 121.435 77.30937 120.52875Q76.65312 119.6225 76.62187 117.81L76.62187 116.3725Q76.62187 114.48187 77.2625 113.57562Q77.91875 112.65375 79.30937 112.65375Q80.68437 112.65375 81.34062 113.54437Q81.99687 114.41937 82.0125 116.26312L82.0125 117.66937ZM80.91875 116.185Q80.91875 114.81 80.52812 114.185Q80.15312 113.54437 79.30937 113.54437Q78.48125 113.54437 78.09062 114.185Q77.71562 114.81 77.71562 116.10687L77.71562 117.84125Q77.71562 119.21625 78.10625 119.88812Q78.5125 120.54437 79.325 120.54437Q80.12187 120.54437 80.5125 119.91937Q80.90312 119.29437 80.91875 117.96625L80.91875 116.185ZM89.0125 117.66937Q89.0125 119.57562 88.35625 120.51312Q87.71562 121.435 86.325 121.435Q84.96562 121.435 84.30937 120.52875Q83.65312 119.6225 83.62187 117.81L83.62187 116.3725Q83.62187 114.48187 84.2625 113.57562Q84.91875 112.65375 86.30937 112.65375Q87.68437 112.65375 88.34062 113.54437Q88.99687 114.41937 89.0125 116.26312L89.0125 117.66937ZM87.91875 116.185Q87.91875 114.81 87.52812 114.185Q87.15312 113.54437 86.30937 113.54437Q85.48125 113.54437 85.09062 114.185Q84.71562 114.81 84.71562 116.10687L84.71562 117.84125Q84.71562 119.21625 85.10625 119.88812Q85.5125 120.54437 86.325 120.54437Q87.12187 120.54437 87.5125 119.91937Q87.90312 119.29437 87.91875 117.96625L87.91875 116.185ZM96.0125 117.66937Q96.0125 119.57562 95.35625 120.51312Q94.71562 121.435 93.325 121.435Q91.96562 121.435 91.30937 120.52875Q90.65312 119.6225 90.62187 117.81L90.62187 116.3725Q90.62187 114.48187 91.2625 113.57562Q91.91875 112.65375 93.30937 112.65375Q94.68437 112.65375 95.34062 113.54437Q95.99687 114.41937 96.0125 116.26312L96.0125 117.66937ZM94.91875 116.185Q94.91875 114.81 94.52812 114.185Q94.15312 113.54437 93.30937 113.54437Q92.48125 113.54437 92.09062 114.185Q91.71562 114.81 91.71562 116.10687L91.71562 117.84125Q91.71562 119.21625 92.10625 119.88812Q92.5125 120.54437 93.325 120.54437Q94.12187 120.54437 94.5125 119.91937Q94.90312 119.29437 94.91875 117.96625L94.91875 116.185Z" fill-rule="nonzero"/><path fill="#757575" d="M54.153126 64.96875L54.590626 60.71875L58.965626 60.71875L58.965626 61.71875L55.5125 61.71875L55.246876 64.046875Q55.8875 63.671875 56.684376 63.671875Q57.840626 63.671875 58.528126 64.453125Q59.215626 65.21875 59.215626 66.53125Q59.215626 67.84375 58.496876 68.609375Q57.79375 69.375 56.5125 69.375Q55.3875 69.375 54.66875 68.75Q53.95 68.109375 53.85625 67.0L54.871876 67.0Q54.98125 67.734375 55.403126 68.109375Q55.825 68.484375 56.5125 68.484375Q57.2625 68.484375 57.7 67.96875Q58.1375 67.453125 58.1375 66.546875Q58.1375 65.6875 57.66875 65.171875Q57.2 64.65625 56.41875 64.65625Q55.715626 64.65625 55.309376 64.953125L55.028126 65.1875L54.153126 64.96875ZM66.0125 65.609375Q66.0125 67.515625 65.35625 68.453125Q64.71562 69.375 63.325 69.375Q61.965626 69.375 61.309376 68.46875Q60.653126 67.5625 60.621876 65.75L60.621876 64.3125Q60.621876 62.421875 61.2625 61.515625Q61.91875 60.59375 63.309376 60.59375Q64.68437 60.59375 65.34062 61.484375Q65.99687 62.359375 66.0125 64.203125L66.0125 65.609375ZM64.91875 64.125Q64.91875 62.75 64.52812 62.125Q64.15312 61.484375 63.309376 61.484375Q62.48125 61.484375 62.090626 62.125Q61.715626 62.75 61.715626 64.046875L61.715626 65.78125Q61.715626 67.15625 62.10625 67.828125Q62.5125 68.484375 63.325 68.484375Q64.12187 68.484375 64.5125 67.859375Q64.90312 67.234375 64.91875 65.90625L64.91875 64.125ZM73.0125 65.609375Q73.0125 67.515625 72.35625 68.453125Q71.71562 69.375 70.325 69.375Q68.96562 69.375 68.30937 68.46875Q67.65312 67.5625 67.62187 65.75L67.62187 64.3125Q67.62187 62.421875 68.2625 61.515625Q68.91875 60.59375 70.30937 60.59375Q71.68437 60.59375 72.34062 61.484375Q72.99687 62.359375 73.0125 64.203125L73.0125 65.609375ZM71.91875 64.125Q71.91875 62.75 71.52812 62.125Q71.15312 61.484375 70.30937 61.484375Q69.48125 61.484375 69.09062 62.125Q68.71562 62.75 68.71562 64.046875L68.71562 65.78125Q68.71562 67.15625 69.10625 67.828125Q69.5125 68.484375 70.325 68.484375Q71.12187 68.484375 71.5125 67.859375Q71.90312 67.234375 71.91875 65.90625L71.91875 64.125ZM74.73125 70.953125L74.12187 70.53125Q74.66875 69.765625 74.7 68.9375L74.7 67.96875L75.7625 67.96875L75.7625 68.8125Q75.7625 69.40625 75.46562 70.0Q75.16875 70.59375 74.73125 70.953125ZM82.0125 65.609375Q82.0125 67.515625 81.35625 68.453125Q80.71562 69.375 79.325 69.375Q77.96562 69.375 77.30937 68.46875Q76.65312 67.5625 76.62187 65.75L76.62187 64.3125Q76.62187 62.421875 77.2625 61.515625Q77.91875 60.59375 79.30937 60.59375Q80.68437 60.59375 81.34062 61.484375Q81.99687 62.359375 82.0125 64.203125L82.0125 65.609375ZM80.91875 64.125Q80.91875 62.75 80.52812 62.125Q80.15312 61.484375 79.30937 61.484375Q78.48125 61.484375 78.09062 62.125Q77.71562 62.75 77.71562 64.046875L77.71562 65.78125Q77.71562 67.15625 78.10625 67.828125Q78.5125 68.484375 79.325 68.484375Q80.12187 68.484375 80.5125 67.859375Q80.90312 67.234375 80.91875 65.90625L80.91875 64.125ZM89.0125 65.609375Q89.0125 67.515625 88.35625 68.453125Q87.71562 69.375 86.325 69.375Q84.96562 69.375 84.30937 68.46875Q83.65312 67.5625 83.62187 65.75L83.62187 64.3125Q83.62187 62.421875 84.2625 61.515625Q84.91875 60.59375 86.30937 60.59375Q87.68437 60.59375 88.34062 61.484375Q88.99687 62.359375 89.0125 64.203125L89.0125 65.609375ZM87.91875 64.125Q87.91875 62.75 87.52812 62.125Q87.15312 61.484375 86.30937 61.484375Q85.48125 61.484375 85.09062 62.125Q84.71562 62.75 84.71562 64.046875L84.71562 65.78125Q84.71562 67.15625 85.10625 67.828125Q85.5125 68.484375 86.325 68.484375Q87.12187 68.484375 87.5125 67.859375Q87.90312 67.234375 87.91875 65.90625L87.91875 64.125ZM96.0125 65.609375Q96.0125 67.515625 95.35625 68.453125Q94.71562 69.375 93.325 69.375Q91.96562 69.375 91.30937 68.46875Q90.65312 67.5625 90.62187 65.75L90.62187 64.3125Q90.62187 62.421875 91.2625 61.515625Q91.91875 60.59375 93.30937 60.59375Q94.68437 60.59375 95.34062 61.484375Q95.99687 62.359375 96.0125 64.203125L96.0125 65.609375ZM94.91875 64.125Q94.91875 62.75 94.52812 62.125Q94.15312 61.484375 93.30937 61.484375Q92.48125 61.484375 92.09062 62.125Q91.71562 62.75 91.71562 64.046875L91.71562 65.78125Q91.71562 67.15625 92.10625 67.828125Q92.5125 68.484375 93.325 68.484375Q94.12187 68.484375 94.5125 67.859375Q94.90312 67.234375 94.91875 65.90625L94.91875 64.125Z" fill-rule="nonzero"/><path fill="#757575" d="M133.43965 340.8156L129.86153 340.8156L129.06465 343.05L127.9084 343.05L131.1584 334.51874L132.14278 334.51874L135.4084 343.05L134.25215 343.05L133.43965 340.8156ZM130.20528 339.89374L133.11153 339.89374L131.6584 335.90936L130.20528 339.89374ZM139.0959 342.28436Q139.67403 342.28436 140.11153 341.9406Q140.54903 341.58124 140.5959 341.05L141.62715 341.05Q141.5959 341.59686 141.23653 342.09686Q140.89278 342.58124 140.31465 342.8781Q139.75215 343.175 139.0959 343.175Q137.79903 343.175 137.0334 342.3156Q136.2834 341.4406 136.2834 339.9406L136.2834 339.7531Q136.2834 338.83124 136.61153 338.1125Q136.95528 337.39374 137.58028 337.0031Q138.2209 336.59686 139.0959 336.59686Q140.1584 336.59686 140.86153 337.2375Q141.58028 337.8625 141.62715 338.89374L140.5959 338.89374Q140.54903 338.26874 140.12715 337.8781Q139.70528 337.4875 139.0959 337.4875Q138.26778 337.4875 137.81465 338.08124Q137.36153 338.675 137.36153 339.8L137.36153 340.0031Q137.36153 341.09686 137.81465 341.6906Q138.26778 342.28436 139.0959 342.28436ZM144.0334 335.175L144.0334 336.70624L145.20528 336.70624L145.20528 337.55L144.0334 337.55L144.0334 341.47186Q144.0334 341.8625 144.18965 342.05Q144.3459 342.2375 144.7209 342.2375Q144.9084 342.2375 145.23653 342.175L145.23653 343.05Q144.81465 343.175 144.4084 343.175Q143.68965 343.175 143.31465 342.7375Q142.93965 342.28436 142.93965 341.47186L142.93965 337.55L141.7834 337.55L141.7834 336.70624L142.93965 336.70624L142.93965 335.175L144.0334 335.175ZM147.73653 343.05L146.6584 343.05L146.6584 336.70624L147.73653 336.70624L147.73653 343.05ZM146.56465 335.03436Q146.56465 334.76874 146.7209 334.58124Q146.89278 334.39374 147.20528 334.39374Q147.51778 334.39374 147.67403 334.58124Q147.8459 334.76874 147.8459 335.03436Q147.8459 335.28436 147.67403 335.47186Q147.51778 335.64374 147.20528 335.64374Q146.89278 335.64374 146.7209 335.47186Q146.56465 335.28436 146.56465 335.03436ZM149.26778 339.8156Q149.26778 338.89374 149.62715 338.14374Q150.00215 337.39374 150.6584 337.0031Q151.31465 336.59686 152.14278 336.59686Q153.43965 336.59686 154.23653 337.4875Q155.04903 338.3781 155.04903 339.8781L155.04903 339.95624Q155.04903 340.8781 154.68965 341.6125Q154.33028 342.34686 153.67403 342.76874Q153.01778 343.175 152.1584 343.175Q150.87715 343.175 150.06465 342.28436Q149.26778 341.3781 149.26778 339.89374L149.26778 339.8156ZM150.36153 339.95624Q150.36153 341.0031 150.8459 341.64374Q151.3459 342.28436 152.1584 342.28436Q152.98653 342.28436 153.4709 341.64374Q153.95528 340.9875 153.95528 339.8156Q153.95528 338.78436 153.45528 338.14374Q152.9709 337.4875 152.14278 337.4875Q151.3459 337.4875 150.8459 338.1281Q150.36153 338.7531 150.36153 339.95624ZM157.58028 336.70624L157.61153 337.5031Q158.3459 336.59686 159.51778 336.59686Q161.5334 336.59686 161.54903 338.8625L161.54903 343.05L160.45528 343.05L160.45528 338.84686Q160.45528 338.175 160.14278 337.84686Q159.8459 337.51874 159.18965 337.51874Q158.6584 337.51874 158.25215 337.8Q157.86153 338.08124 157.64278 338.53436L157.64278 343.05L156.56465 343.05L156.56465 336.70624L157.58028 336.70624Z" fill-rule="nonzero"/><path fill="#757575" d="M186.08636 340.8156L182.50824 340.8156L181.71136 343.05L180.55511 343.05L183.80511 334.51874L184.78949 334.51874L188.05511 343.05L186.89886 343.05L186.08636 340.8156ZM182.85199 339.89374L185.75824 339.89374L184.30511 335.90936L182.85199 339.89374ZM188.94574 339.83124Q188.94574 338.3625 189.63324 337.4875Q190.32074 336.59686 191.44574 336.59686Q192.55511 336.59686 193.21136 337.34686L193.21136 334.05L194.28949 334.05L194.28949 343.05L193.28949 343.05L193.24261 342.3625Q192.58636 343.175 191.43011 343.175Q190.33636 343.175 189.63324 342.26874Q188.94574 341.3625 188.94574 339.90936L188.94574 339.83124ZM190.02386 339.95624Q190.02386 341.03436 190.46136 341.64374Q190.91449 342.2531 191.69574 342.2531Q192.72699 342.2531 193.21136 341.3156L193.21136 338.40936Q192.72699 337.51874 191.71136 337.51874Q190.91449 337.51874 190.46136 338.1281Q190.02386 338.7375 190.02386 339.95624ZM198.28949 341.58124L199.86761 336.70624L200.97699 336.70624L198.69574 343.05L197.86761 343.05L195.57074 336.70624L196.68011 336.70624L198.28949 341.58124ZM204.83636 343.175Q203.53949 343.175 202.72699 342.33124Q201.93011 341.47186 201.93011 340.05L201.93011 339.8625Q201.93011 338.90936 202.28949 338.175Q202.64886 337.425 203.28949 337.01874Q203.94574 336.59686 204.69574 336.59686Q205.93011 336.59686 206.61761 337.40936Q207.30511 338.22186 207.30511 339.7375L207.30511 340.1906L203.00824 340.1906Q203.03949 341.1281 203.55511 341.70624Q204.08636 342.28436 204.89886 342.28436Q205.46136 342.28436 205.85199 342.05Q206.25824 341.8156 206.57074 341.425L207.22699 341.9406Q206.43011 343.175 204.83636 343.175ZM204.69574 337.4875Q204.03949 337.4875 203.58636 337.97186Q203.14886 338.4406 203.05511 339.3L206.22699 339.3L206.22699 339.22186Q206.18011 338.39374 205.77386 337.9406Q205.38324 337.4875 204.69574 337.4875ZM209.22699 336.70624L209.25824 337.5031Q209.99261 336.59686 211.16449 336.59686Q213.18011 336.59686 213.19574 338.8625L213.19574 343.05L212.10199 343.05L212.10199 338.84686Q212.10199 338.175 211.78949 337.84686Q211.49261 337.51874 210.83636 337.51874Q210.30511 337.51874 209.89886 337.8Q209.50824 338.08124 209.28949 338.53436L209.28949 343.05L208.21136 343.05L208.21136 336.70624L209.22699 336.70624ZM216.68011 335.175L216.68011 336.70624L217.85199 336.70624L217.85199 337.55L216.68011 337.55L216.68011 341.47186Q216.68011 341.8625 216.83636 342.05Q216.99261 342.2375 217.36761 342.2375Q217.55511 342.2375 217.88324 342.175L217.88324 343.05Q217.46136 343.175 217.05511 343.175Q216.33636 343.175 215.96136 342.7375Q215.58636 342.28436 215.58636 341.47186L215.58636 337.55L214.43011 337.55L214.43011 336.70624L215.58636 336.70624L215.58636 335.175L216.68011 335.175ZM223.11761 342.425Q222.49261 343.175 221.25824 343.175Q220.24261 343.175 219.71136 342.58124Q219.18011 341.9875 219.18011 340.83124L219.18011 336.70624L220.25824 336.70624L220.25824 340.8Q220.25824 342.2531 221.43011 342.2531Q222.68011 342.2531 223.08636 341.3156L223.08636 336.70624L224.18011 336.70624L224.18011 343.05L223.14886 343.05L223.11761 342.425ZM229.27386 337.675Q229.02386 337.64374 228.74261 337.64374Q227.66449 337.64374 227.28949 338.55L227.28949 343.05L226.21136 343.05L226.21136 336.70624L227.25824 336.70624L227.27386 337.4406Q227.80511 336.59686 228.78949 336.59686Q229.10199 336.59686 229.27386 336.675L229.27386 337.675ZM232.83636 343.175Q231.53949 343.175 230.72699 342.33124Q229.93011 341.47186 229.93011 340.05L229.93011 339.8625Q229.93011 338.90936 230.28949 338.175Q230.64886 337.425 231.28949 337.01874Q231.94574 336.59686 232.69574 336.59686Q233.93011 336.59686 234.61761 337.40936Q235.30511 338.22186 235.30511 339.7375L235.30511 340.1906L231.00824 340.1906Q231.03949 341.1281 231.55511 341.70624Q232.08636 342.28436 232.89886 342.28436Q233.46136 342.28436 233.85199 342.05Q234.25824 341.8156 234.57074 341.425L235.22699 341.9406Q234.43011 343.175 232.83636 343.175ZM232.69574 337.4875Q232.03949 337.4875 231.58636 337.97186Q231.14886 338.4406 231.05511 339.3L234.22699 339.3L234.22699 339.22186Q234.18011 338.39374 233.77386 337.9406Q233.38324 337.4875 232.69574 337.4875Z" fill-rule="nonzero"/><path fill="#757575" d="M258.79556 340.34686Q258.6393 341.6906 257.79556 342.4406Q256.9518 343.175 255.56119 343.175Q254.04556 343.175 253.13931 342.09686Q252.23306 341.0031 252.23306 339.175L252.23306 338.3625Q252.23306 337.175 252.65494 336.26874Q253.07681 335.3625 253.85806 334.8781Q254.63931 334.39374 255.65494 334.39374Q257.0143 334.39374 257.8268 335.15936Q258.65494 335.925 258.79556 337.2531L257.67056 337.2531Q257.5143 336.2375 257.02994 335.78436Q256.54556 335.33124 255.65494 335.33124Q254.57681 335.33124 253.96744 336.1281Q253.35806 336.925 253.35806 338.39374L253.35806 339.22186Q253.35806 340.6125 253.93619 341.4406Q254.51431 342.2531 255.56119 342.2531Q256.4987 342.2531 256.9987 341.83124Q257.4987 341.39374 257.67056 340.34686L258.79556 340.34686ZM264.2643 343.05Q264.17056 342.8625 264.10806 342.3781Q263.35806 343.175 262.3112 343.175Q261.3737 343.175 260.7643 342.64374Q260.17056 342.1125 260.17056 341.28436Q260.17056 340.3 260.92056 339.7531Q261.67056 339.20624 263.04556 339.20624L264.09244 339.20624L264.09244 338.70624Q264.09244 338.14374 263.7487 337.8156Q263.42056 337.47186 262.7487 337.47186Q262.17056 337.47186 261.77994 337.76874Q261.3893 338.05 261.3893 338.47186L260.29556 338.47186Q260.29556 337.9875 260.6237 337.55Q260.96744 337.1125 261.54556 336.8625Q262.1237 336.59686 262.8112 336.59686Q263.92056 336.59686 264.52994 337.14374Q265.15494 337.6906 265.1862 338.64374L265.1862 341.5656Q265.1862 342.4406 265.40494 342.95624L265.40494 343.05L264.2643 343.05ZM262.46744 342.22186Q262.98306 342.22186 263.4362 341.95624Q263.8893 341.6906 264.09244 341.26874L264.09244 339.97186L263.2487 339.97186Q261.2487 339.97186 261.2487 341.14374Q261.2487 341.64374 261.59244 341.9406Q261.9362 342.22186 262.46744 342.22186ZM271.04556 341.3625Q271.04556 340.925 270.7018 340.6906Q270.3737 340.4406 269.54556 340.26874Q268.73306 340.09686 268.2487 339.84686Q267.7643 339.59686 267.52994 339.26874Q267.3112 338.925 267.3112 338.45624Q267.3112 337.675 267.96744 337.14374Q268.6237 336.59686 269.65494 336.59686Q270.73306 336.59686 271.3893 337.15936Q272.0612 337.70624 272.0612 338.5656L270.98306 338.5656Q270.98306 338.1281 270.59244 337.8156Q270.21744 337.4875 269.65494 337.4875Q269.0612 337.4875 268.71744 337.7531Q268.3893 338.0031 268.3893 338.40936Q268.3893 338.8 268.7018 339.0031Q269.0143 339.20624 269.8268 339.39374Q270.6393 339.5656 271.1393 339.8156Q271.6393 340.0656 271.8737 340.425Q272.1237 340.78436 272.1237 341.28436Q272.1237 342.14374 271.4362 342.65936Q270.7643 343.175 269.6862 343.175Q268.92056 343.175 268.3268 342.90936Q267.7487 342.6281 267.42056 342.14374Q267.09244 341.65936 267.09244 341.09686L268.17056 341.09686Q268.2018 341.64374 268.60806 341.97186Q269.0143 342.28436 269.6862 342.28436Q270.29556 342.28436 270.67056 342.03436Q271.04556 341.78436 271.04556 341.3625ZM277.2643 342.425Q276.6393 343.175 275.40494 343.175Q274.3893 343.175 273.85806 342.58124Q273.3268 341.9875 273.3268 340.83124L273.3268 336.70624L274.40494 336.70624L274.40494 340.8Q274.40494 342.2531 275.5768 342.2531Q276.8268 342.2531 277.23306 341.3156L277.23306 336.70624L278.3268 336.70624L278.3268 343.05L277.29556 343.05L277.2643 342.425ZM284.2643 343.05Q284.17056 342.8625 284.10806 342.3781Q283.35806 343.175 282.3112 343.175Q281.3737 343.175 280.7643 342.64374Q280.17056 342.1125 280.17056 341.28436Q280.17056 340.3 280.92056 339.7531Q281.67056 339.20624 283.04556 339.20624L284.09244 339.20624L284.09244 338.70624Q284.09244 338.14374 283.7487 337.8156Q283.42056 337.47186 282.7487 337.47186Q282.17056 337.47186 281.77994 337.76874Q281.3893 338.05 281.3893 338.47186L280.29556 338.47186Q280.29556 337.9875 280.6237 337.55Q280.96744 337.1125 281.54556 336.8625Q282.1237 336.59686 282.8112 336.59686Q283.92056 336.59686 284.52994 337.14374Q285.15494 337.6906 285.1862 338.64374L285.1862 341.5656Q285.1862 342.4406 285.40494 342.95624L285.40494 343.05L284.2643 343.05ZM282.46744 342.22186Q282.98306 342.22186 283.4362 341.95624Q283.8893 341.6906 284.09244 341.26874L284.09244 339.97186L283.2487 339.97186Q281.2487 339.97186 281.2487 341.14374Q281.2487 341.64374 281.59244 341.9406Q281.9362 342.22186 282.46744 342.22186ZM288.52994 343.05L287.4518 343.05L287.4518 334.05L288.52994 334.05L288.52994 343.05Z" fill-rule="nonzero"/><path fill="#757575" d="M322.37976 343.05L321.25476 343.05L321.25476 334.51874L322.37976 334.51874L322.37976 343.05ZM325.0204 336.70624L325.05164 337.5031Q325.786 336.59686 326.9579 336.59686Q328.9735 336.59686 328.98914 338.8625L328.98914 343.05L327.8954 343.05L327.8954 338.84686Q327.8954 338.175 327.5829 337.84686Q327.286 337.51874 326.62976 337.51874Q326.0985 337.51874 325.69226 337.8Q325.30164 338.08124 325.0829 338.53436L325.0829 343.05L324.00476 343.05L324.00476 336.70624L325.0204 336.70624ZM330.73914 339.83124Q330.73914 338.3625 331.42664 337.4875Q332.11414 336.59686 333.23914 336.59686Q334.3485 336.59686 335.00476 337.34686L335.00476 334.05L336.0829 334.05L336.0829 343.05L335.0829 343.05L335.036 342.3625Q334.37976 343.175 333.2235 343.175Q332.12976 343.175 331.42664 342.26874Q330.73914 341.3625 330.73914 339.90936L330.73914 339.83124ZM331.81726 339.95624Q331.81726 341.03436 332.25476 341.64374Q332.7079 342.2531 333.48914 342.2531Q334.5204 342.2531 335.00476 341.3156L335.00476 338.40936Q334.5204 337.51874 333.50476 337.51874Q332.7079 337.51874 332.25476 338.1281Q331.81726 338.7375 331.81726 339.95624ZM339.17664 343.05L338.0985 343.05L338.0985 336.70624L339.17664 336.70624L339.17664 343.05ZM338.00476 335.03436Q338.00476 334.76874 338.161 334.58124Q338.3329 334.39374 338.6454 334.39374Q338.9579 334.39374 339.11414 334.58124Q339.286 334.76874 339.286 335.03436Q339.286 335.28436 339.11414 335.47186Q338.9579 335.64374 338.6454 335.64374Q338.3329 335.64374 338.161 335.47186Q338.00476 335.28436 338.00476 335.03436ZM343.62976 343.175Q342.3329 343.175 341.5204 342.33124Q340.7235 341.47186 340.7235 340.05L340.7235 339.8625Q340.7235 338.90936 341.0829 338.175Q341.44226 337.425 342.0829 337.01874Q342.73914 336.59686 343.48914 336.59686Q344.7235 336.59686 345.411 337.40936Q346.0985 338.22186 346.0985 339.7375L346.0985 340.1906L341.80164 340.1906Q341.8329 341.1281 342.3485 341.70624Q342.87976 342.28436 343.69226 342.28436Q344.25476 342.28436 344.6454 342.05Q345.05164 341.8156 345.36414 341.425L346.0204 341.9406Q345.2235 343.175 343.62976 343.175ZM343.48914 337.4875Q342.8329 337.4875 342.37976 337.97186Q341.94226 338.4406 341.8485 339.3L345.0204 339.3L345.0204 339.22186Q344.9735 338.39374 344.56726 337.9406Q344.17664 337.4875 343.48914 337.4875Z" fill-rule="nonzero"/><path fill="#757575" d="M381.44836 339.59686L379.43274 339.59686L379.43274 343.05L378.30774 343.05L378.30774 334.51874L381.13586 334.51874Q382.57336 334.51874 383.339 335.175Q384.12024 335.83124 384.12024 337.08124Q384.12024 337.8781 383.68274 338.47186Q383.26086 339.0656 382.49524 339.3625L384.49524 342.97186L384.49524 343.05L383.2921 343.05L381.44836 339.59686ZM379.43274 338.675L381.1671 338.675Q382.01086 338.675 382.49524 338.2531Q382.99524 337.8156 382.99524 337.08124Q382.99524 336.3 382.5265 335.8781Q382.05774 335.45624 381.1671 335.4406L379.43274 335.4406L379.43274 338.675ZM389.05774 343.05Q388.964 342.8625 388.9015 342.3781Q388.1515 343.175 387.1046 343.175Q386.1671 343.175 385.55774 342.64374Q384.964 342.1125 384.964 341.28436Q384.964 340.3 385.714 339.7531Q386.464 339.20624 387.839 339.20624L388.88586 339.20624L388.88586 338.70624Q388.88586 338.14374 388.5421 337.8156Q388.214 337.47186 387.5421 337.47186Q386.964 337.47186 386.57336 337.76874Q386.18274 338.05 386.18274 338.47186L385.089 338.47186Q385.089 337.9875 385.4171 337.55Q385.76086 337.1125 386.339 336.8625Q386.9171 336.59686 387.6046 336.59686Q388.714 336.59686 389.32336 337.14374Q389.94836 337.6906 389.9796 338.64374L389.9796 341.5656Q389.9796 342.4406 390.19836 342.95624L390.19836 343.05L389.05774 343.05ZM387.26086 342.22186Q387.7765 342.22186 388.2296 341.95624Q388.68274 341.6906 388.88586 341.26874L388.88586 339.97186L388.0421 339.97186Q386.0421 339.97186 386.0421 341.14374Q386.0421 341.64374 386.38586 341.9406Q386.7296 342.22186 387.26086 342.22186ZM394.68274 342.28436Q395.26086 342.28436 395.69836 341.9406Q396.13586 341.58124 396.18274 341.05L397.214 341.05Q397.18274 341.59686 396.82336 342.09686Q396.4796 342.58124 395.9015 342.8781Q395.339 343.175 394.68274 343.175Q393.38586 343.175 392.62024 342.3156Q391.87024 341.4406 391.87024 339.9406L391.87024 339.7531Q391.87024 338.83124 392.19836 338.1125Q392.5421 337.39374 393.1671 337.0031Q393.80774 336.59686 394.68274 336.59686Q395.74524 336.59686 396.44836 337.2375Q397.1671 337.8625 397.214 338.89374L396.18274 338.89374Q396.13586 338.26874 395.714 337.8781Q395.2921 337.4875 394.68274 337.4875Q393.8546 337.4875 393.4015 338.08124Q392.94836 338.675 392.94836 339.8L392.94836 340.0031Q392.94836 341.09686 393.4015 341.6906Q393.8546 342.28436 394.68274 342.28436ZM399.32336 343.05L398.24524 343.05L398.24524 336.70624L399.32336 336.70624L399.32336 343.05ZM398.1515 335.03436Q398.1515 334.76874 398.30774 334.58124Q398.4796 334.39374 398.7921 334.39374Q399.1046 334.39374 399.26086 334.58124Q399.43274 334.76874 399.43274 335.03436Q399.43274 335.28436 399.26086 335.47186Q399.1046 335.64374 398.7921 335.64374Q398.4796 335.64374 398.30774 335.47186Q398.1515 335.28436 398.1515 335.03436ZM402.1671 336.70624L402.19836 337.5031Q402.93274 336.59686 404.1046 336.59686Q406.12024 336.59686 406.13586 338.8625L406.13586 343.05L405.0421 343.05L405.0421 338.84686Q405.0421 338.175 404.7296 337.84686Q404.43274 337.51874 403.7765 337.51874Q403.24524 337.51874 402.839 337.8Q402.44836 338.08124 402.2296 338.53436L402.2296 343.05L401.1515 343.05L401.1515 336.70624L402.1671 336.70624ZM407.88586 339.83124Q407.88586 338.34686 408.57336 337.47186Q409.26086 336.59686 410.38586 336.59686Q411.5421 336.59686 412.19836 337.40936L412.24524 336.70624L413.24524 336.70624L413.24524 342.89374Q413.24524 344.1281 412.51086 344.83124Q411.7765 345.55 410.55774 345.55Q409.87024 345.55 409.214 345.2531Q408.55774 344.95624 408.214 344.45624L408.7765 343.8Q409.464 344.65936 410.4796 344.65936Q411.26086 344.65936 411.69836 344.20624Q412.1515 343.76874 412.1515 342.95624L412.1515 342.40936Q411.49524 343.175 410.37024 343.175Q409.26086 343.175 408.57336 342.28436Q407.88586 341.3781 407.88586 339.83124ZM408.9796 339.95624Q408.9796 341.01874 409.4171 341.64374Q409.8546 342.2531 410.6515 342.2531Q411.6671 342.2531 412.1515 341.3156L412.1515 338.425Q411.6515 337.51874 410.6515 337.51874Q409.87024 337.51874 409.4171 338.1281Q408.9796 338.7375 408.9796 339.95624Z" fill-rule="nonzero"/><path fill="#757575" d="M451.09506 339.59686L449.07944 339.59686L449.07944 343.05L447.95444 343.05L447.95444 334.51874L450.78256 334.51874Q452.22006 334.51874 452.9857 335.175Q453.76694 335.83124 453.76694 337.08124Q453.76694 337.8781 453.32944 338.47186Q452.90756 339.0656 452.14194 339.3625L454.14194 342.97186L454.14194 343.05L452.9388 343.05L451.09506 339.59686ZM449.07944 338.675L450.8138 338.675Q451.65756 338.675 452.14194 338.2531Q452.64194 337.8156 452.64194 337.08124Q452.64194 336.3 452.1732 335.8781Q451.70444 335.45624 450.8138 335.4406L449.07944 335.4406L449.07944 338.675ZM456.07944 339.70624L456.07944 343.05L454.95444 343.05L454.95444 334.51874L458.1107 334.51874Q459.5013 334.51874 460.2982 335.2375Q461.09506 335.9406 461.09506 337.1281Q461.09506 338.3625 460.3138 339.03436Q459.5482 339.70624 458.09506 339.70624L456.07944 339.70624ZM456.07944 338.78436L458.1107 338.78436Q459.01694 338.78436 459.4857 338.3625Q459.97006 337.9406 459.97006 337.14374Q459.97006 336.3781 459.4857 335.925Q459.01694 335.45624 458.1732 335.4406L456.07944 335.4406L456.07944 338.78436ZM469.26694 341.925Q468.82944 342.55 468.0482 342.8625Q467.26694 343.175 466.2357 343.175Q465.20444 343.175 464.39194 342.6906Q463.57944 342.1906 463.14194 341.28436Q462.70444 340.3781 462.6888 339.1906L462.6888 338.45624Q462.6888 336.51874 463.57944 335.45624Q464.4857 334.39374 466.1107 334.39374Q467.45444 334.39374 468.26694 335.08124Q469.07944 335.76874 469.26694 337.01874L468.14194 337.01874Q467.8138 335.33124 466.1263 335.33124Q464.9857 335.33124 464.40756 336.1281Q463.82944 336.90936 463.8138 338.425L463.8138 339.1125Q463.8138 340.55 464.47006 341.40936Q465.1263 342.2531 466.2513 342.2531Q466.8763 342.2531 467.34506 342.1125Q467.82944 341.97186 468.14194 341.6281L468.14194 339.72186L466.1732 339.72186L466.1732 338.8L469.26694 338.8L469.26694 341.925Z" fill-rule="nonzero"/><path fill="#757575" d="M495.11676 339.2531Q493.67926 338.83124 493.0074 338.22186Q492.35114 337.6125 492.35114 336.72186Q492.35114 335.72186 493.148 335.0656Q493.9605 334.39374 495.2574 334.39374Q496.1324 334.39374 496.8199 334.7375Q497.5074 335.08124 497.8824 335.675Q498.273 336.26874 498.273 336.9875L497.1324 336.9875Q497.1324 336.20624 496.6324 335.76874Q496.148 335.33124 495.2574 335.33124Q494.42926 335.33124 493.9605 335.70624Q493.49176 336.0656 493.49176 336.70624Q493.49176 337.2375 493.92926 337.59686Q494.3824 337.95624 495.4449 338.2531Q496.5074 338.55 497.10114 338.90936Q497.7105 339.26874 497.99176 339.7531Q498.28864 340.2375 498.28864 340.8781Q498.28864 341.925 497.47614 342.55Q496.66364 343.175 495.3199 343.175Q494.42926 343.175 493.66364 342.83124Q492.91364 342.4875 492.49176 341.90936Q492.0855 341.3156 492.0855 340.58124L493.2105 340.58124Q493.2105 341.34686 493.78864 341.8Q494.36676 342.2531 495.3199 342.2531Q496.2105 342.2531 496.67926 341.89374Q497.148 341.51874 497.148 340.89374Q497.148 340.26874 496.7105 339.925Q496.273 339.58124 495.11676 339.2531ZM500.61676 343.05L499.53864 343.05L499.53864 336.70624L500.61676 336.70624L500.61676 343.05ZM499.4449 335.03436Q499.4449 334.76874 499.60114 334.58124Q499.773 334.39374 500.0855 334.39374Q500.398 334.39374 500.55426 334.58124Q500.72614 334.76874 500.72614 335.03436Q500.72614 335.28436 500.55426 335.47186Q500.398 335.64374 500.0855 335.64374Q499.773 335.64374 499.60114 335.47186Q499.4449 335.28436 499.4449 335.03436ZM503.4605 336.70624L503.49176 337.40936Q504.17926 336.59686 505.36676 336.59686Q506.6949 336.59686 507.17926 337.6125Q507.49176 337.15936 507.99176 336.8781Q508.5074 336.59686 509.1949 336.59686Q511.28864 336.59686 511.3199 338.8L511.3199 343.05L510.24176 343.05L510.24176 338.8625Q510.24176 338.1906 509.92926 337.8625Q509.61676 337.51874 508.8824 337.51874Q508.273 337.51874 507.86676 337.8781Q507.47614 338.2375 507.41364 338.84686L507.41364 343.05L506.3355 343.05L506.3355 338.89374Q506.3355 337.51874 504.97614 337.51874Q503.91364 337.51874 503.523 338.425L503.523 343.05L502.42926 343.05L502.42926 336.70624L503.4605 336.70624ZM517.35114 342.425Q516.72614 343.175 515.49176 343.175Q514.47614 343.175 513.9449 342.58124Q513.41364 341.9875 513.41364 340.83124L513.41364 336.70624L514.49176 336.70624L514.49176 340.8Q514.49176 342.2531 515.66364 342.2531Q516.91364 342.2531 517.3199 341.3156L517.3199 336.70624L518.41364 336.70624L518.41364 343.05L517.3824 343.05L517.35114 342.425ZM521.61676 343.05L520.53864 343.05L520.53864 334.05L521.61676 334.05L521.61676 343.05ZM527.35114 343.05Q527.2574 342.8625 527.1949 342.3781Q526.4449 343.175 525.398 343.175Q524.4605 343.175 523.85114 342.64374Q523.2574 342.1125 523.2574 341.28436Q523.2574 340.3 524.0074 339.7531Q524.7574 339.20624 526.1324 339.20624L527.17926 339.20624L527.17926 338.70624Q527.17926 338.14374 526.8355 337.8156Q526.5074 337.47186 525.8355 337.47186Q525.2574 337.47186 524.86676 337.76874Q524.47614 338.05 524.47614 338.47186L523.3824 338.47186Q523.3824 337.9875 523.7105 337.55Q524.05426 337.1125 524.6324 336.8625Q525.2105 336.59686 525.898 336.59686Q527.0074 336.59686 527.61676 337.14374Q528.24176 337.6906 528.273 338.64374L528.273 341.5656Q528.273 342.4406 528.49176 342.95624L528.49176 343.05L527.35114 343.05ZM525.55426 342.22186Q526.0699 342.22186 526.523 341.95624Q526.97614 341.6906 527.17926 341.26874L527.17926 339.97186L526.3355 339.97186Q524.3355 339.97186 524.3355 341.14374Q524.3355 341.64374 524.67926 341.9406Q525.023 342.22186 525.55426 342.22186ZM531.91364 335.175L531.91364 336.70624L533.0855 336.70624L533.0855 337.55L531.91364 337.55L531.91364 341.47186Q531.91364 341.8625 532.0699 342.05Q532.22614 342.2375 532.60114 342.2375Q532.78864 342.2375 533.11676 342.175L533.11676 343.05Q532.6949 343.175 532.28864 343.175Q531.5699 343.175 531.1949 342.7375Q530.8199 342.28436 530.8199 341.47186L530.8199 337.55L529.66364 337.55L529.66364 336.70624L530.8199 336.70624L530.8199 335.175L531.91364 335.175ZM535.61676 343.05L534.53864 343.05L534.53864 336.70624L535.61676 336.70624L535.61676 343.05ZM534.4449 335.03436Q534.4449 334.76874 534.60114 334.58124Q534.773 334.39374 535.0855 334.39374Q535.398 334.39374 535.55426 334.58124Q535.72614 334.76874 535.72614 335.03436Q535.72614 335.28436 535.55426 335.47186Q535.398 335.64374 535.0855 335.64374Q534.773 335.64374 534.60114 335.47186Q534.4449 335.28436 534.4449 335.03436ZM537.148 339.8156Q537.148 338.89374 537.5074 338.14374Q537.8824 337.39374 538.53864 337.0031Q539.1949 336.59686 540.023 336.59686Q541.3199 336.59686 542.11676 337.4875Q542.92926 338.3781 542.92926 339.8781L542.92926 339.95624Q542.92926 340.8781 542.5699 341.6125Q542.2105 342.34686 541.55426 342.76874Q540.898 343.175 540.03864 343.175Q538.7574 343.175 537.9449 342.28436Q537.148 341.3781 537.148 339.89374L537.148 339.8156ZM538.24176 339.95624Q538.24176 341.0031 538.72614 341.64374Q539.22614 342.28436 540.03864 342.28436Q540.86676 342.28436 541.35114 341.64374Q541.8355 340.9875 541.8355 339.8156Q541.8355 338.78436 541.3355 338.14374Q540.85114 337.4875 540.023 337.4875Q539.22614 337.4875 538.72614 338.1281Q538.24176 338.7531 538.24176 339.95624ZM545.4605 336.70624L545.49176 337.5031Q546.22614 336.59686 547.398 336.59686Q549.41364 336.59686 549.42926 338.8625L549.42926 343.05L548.3355 343.05L548.3355 338.84686Q548.3355 338.175 548.023 337.84686Q547.72614 337.51874 547.0699 337.51874Q546.53864 337.51874 546.1324 337.8Q545.74176 338.08124 545.523 338.53436L545.523 343.05L544.4449 343.05L544.4449 336.70624L545.4605 336.70624Z" fill-rule="nonzero"/><path fill="#757575" d="M564.7635 339.2531Q563.326 338.83124 562.6541 338.22186Q561.99786 337.6125 561.99786 336.72186Q561.99786 335.72186 562.79474 335.0656Q563.60724 334.39374 564.9041 334.39374Q565.7791 334.39374 566.4666 334.7375Q567.1541 335.08124 567.5291 335.675Q567.91974 336.26874 567.91974 336.9875L566.7791 336.9875Q566.7791 336.20624 566.2791 335.76874Q565.79474 335.33124 564.9041 335.33124Q564.076 335.33124 563.60724 335.70624Q563.1385 336.0656 563.1385 336.70624Q563.1385 337.2375 563.576 337.59686Q564.0291 337.95624 565.0916 338.2531Q566.1541 338.55 566.74786 338.90936Q567.35724 339.26874 567.6385 339.7531Q567.93536 340.2375 567.93536 340.8781Q567.93536 341.925 567.12286 342.55Q566.31036 343.175 564.9666 343.175Q564.076 343.175 563.31036 342.83124Q562.56036 342.4875 562.1385 341.90936Q561.73224 341.3156 561.73224 340.58124L562.85724 340.58124Q562.85724 341.34686 563.43536 341.8Q564.0135 342.2531 564.9666 342.2531Q565.85724 342.2531 566.326 341.89374Q566.79474 341.51874 566.79474 340.89374Q566.79474 340.26874 566.35724 339.925Q565.91974 339.58124 564.7635 339.2531ZM570.56036 335.175L570.56036 336.70624L571.73224 336.70624L571.73224 337.55L570.56036 337.55L570.56036 341.47186Q570.56036 341.8625 570.7166 342.05Q570.87286 342.2375 571.24786 342.2375Q571.43536 342.2375 571.7635 342.175L571.7635 343.05Q571.3416 343.175 570.93536 343.175Q570.2166 343.175 569.8416 342.7375Q569.4666 342.28436 569.4666 341.47186L569.4666 337.55L568.31036 337.55L568.31036 336.70624L569.4666 336.70624L569.4666 335.175L570.56036 335.175ZM576.1541 337.675Q575.9041 337.64374 575.62286 337.64374Q574.54474 337.64374 574.16974 338.55L574.16974 343.05L573.0916 343.05L573.0916 336.70624L574.1385 336.70624L574.1541 337.4406Q574.68536 336.59686 575.66974 336.59686Q575.98224 336.59686 576.1541 336.675L576.1541 337.675ZM580.99786 343.05Q580.9041 342.8625 580.8416 342.3781Q580.0916 343.175 579.04474 343.175Q578.10724 343.175 577.49786 342.64374Q576.9041 342.1125 576.9041 341.28436Q576.9041 340.3 577.6541 339.7531Q578.4041 339.20624 579.7791 339.20624L580.826 339.20624L580.826 338.70624Q580.826 338.14374 580.48224 337.8156Q580.1541 337.47186 579.48224 337.47186Q578.9041 337.47186 578.5135 337.76874Q578.12286 338.05 578.12286 338.47186L577.0291 338.47186Q577.0291 337.9875 577.35724 337.55Q577.701 337.1125 578.2791 336.8625Q578.85724 336.59686 579.54474 336.59686Q580.6541 336.59686 581.2635 337.14374Q581.8885 337.6906 581.91974 338.64374L581.91974 341.5656Q581.91974 342.4406 582.1385 342.95624L582.1385 343.05L580.99786 343.05ZM579.201 342.22186Q579.7166 342.22186 580.16974 341.95624Q580.62286 341.6906 580.826 341.26874L580.826 339.97186L579.98224 339.97186Q577.98224 339.97186 577.98224 341.14374Q577.98224 341.64374 578.326 341.9406Q578.66974 342.22186 579.201 342.22186ZM585.56036 335.175L585.56036 336.70624L586.73224 336.70624L586.73224 337.55L585.56036 337.55L585.56036 341.47186Q585.56036 341.8625 585.7166 342.05Q585.87286 342.2375 586.24786 342.2375Q586.43536 342.2375 586.7635 342.175L586.7635 343.05Q586.3416 343.175 585.93536 343.175Q585.2166 343.175 584.8416 342.7375Q584.4666 342.28436 584.4666 341.47186L584.4666 337.55L583.31036 337.55L583.31036 336.70624L584.4666 336.70624L584.4666 335.175L585.56036 335.175ZM590.7166 343.175Q589.41974 343.175 588.60724 342.33124Q587.81036 341.47186 587.81036 340.05L587.81036 339.8625Q587.81036 338.90936 588.16974 338.175Q588.5291 337.425 589.16974 337.01874Q589.826 336.59686 590.576 336.59686Q591.81036 336.59686 592.49786 337.40936Q593.18536 338.22186 593.18536 339.7375L593.18536 340.1906L588.8885 340.1906Q588.91974 341.1281 589.43536 341.70624Q589.9666 342.28436 590.7791 342.28436Q591.3416 342.28436 591.73224 342.05Q592.1385 341.8156 592.451 341.425L593.10724 341.9406Q592.31036 343.175 590.7166 343.175ZM590.576 337.4875Q589.91974 337.4875 589.4666 337.97186Q589.0291 338.4406 588.93536 339.3L592.10724 339.3L592.10724 339.22186Q592.06036 338.39374 591.6541 337.9406Q591.2635 337.4875 590.576 337.4875ZM593.826 339.83124Q593.826 338.34686 594.5135 337.47186Q595.201 336.59686 596.326 336.59686Q597.48224 336.59686 598.1385 337.40936L598.18536 336.70624L599.18536 336.70624L599.18536 342.89374Q599.18536 344.1281 598.451 344.83124Q597.7166 345.55 596.49786 345.55Q595.81036 345.55 595.1541 345.2531Q594.49786 344.95624 594.1541 344.45624L594.7166 343.8Q595.4041 344.65936 596.41974 344.65936Q597.201 344.65936 597.6385 344.20624Q598.0916 343.76874 598.0916 342.95624L598.0916 342.40936Q597.43536 343.175 596.31036 343.175Q595.201 343.175 594.5135 342.28436Q593.826 341.3781 593.826 339.83124ZM594.91974 339.95624Q594.91974 341.01874 595.35724 341.64374Q595.79474 342.2531 596.5916 342.2531Q597.60724 342.2531 598.0916 341.3156L598.0916 338.425Q597.5916 337.51874 596.5916 337.51874Q595.81036 337.51874 595.35724 338.1281Q594.91974 338.7375 594.91974 339.95624ZM603.1541 341.45624L604.6385 336.70624L605.79474 336.70624L603.24786 344.03436Q602.6541 345.6125 601.37286 345.6125L601.1541 345.59686L600.7635 345.51874L600.7635 344.64374L601.04474 344.65936Q601.60724 344.65936 601.9041 344.4406Q602.2166 344.22186 602.41974 343.6281L602.6541 342.97186L600.3885 336.70624L601.576 336.70624L603.1541 341.45624Z" fill-rule="nonzero"/><path fill="#757575" d="M29.45 35.23125L23.496876 35.23125L22.153126 38.95L20.23125 38.95L25.653126 24.73125L27.29375 24.73125L32.73125 38.95L30.809376 38.95L29.45 35.23125ZM24.059376 33.7L28.903126 33.7L26.48125 27.04375L24.059376 33.7ZM37.809376 36.496876L40.41875 28.3875L42.2625 28.3875L38.48125 38.95L37.10625 38.95L33.278126 28.3875L35.121876 28.3875L37.809376 36.496876ZM48.7 39.153126Q46.559376 39.153126 45.2 37.746876Q43.85625 36.325 43.85625 33.965626L43.85625 33.621876Q43.85625 32.059376 44.45 30.825Q45.059376 29.590626 46.1375 28.8875Q47.215626 28.184376 48.48125 28.184376Q50.54375 28.184376 51.684376 29.54375Q52.825 30.903126 52.825 33.434376L52.825 34.184376L45.66875 34.184376Q45.7 35.746876 46.575 36.715626Q47.45 37.66875 48.79375 37.66875Q49.7625 37.66875 50.41875 37.278126Q51.090626 36.8875 51.590626 36.246876L52.684376 37.10625Q51.35625 39.153126 48.7 39.153126ZM48.48125 29.66875Q47.3875 29.66875 46.6375 30.465626Q45.903126 31.2625 45.73125 32.7L51.0125 32.7L51.0125 32.559376Q50.934376 31.184376 50.2625 30.434376Q49.60625 29.66875 48.48125 29.66875ZM60.41875 29.996876Q60.0125 29.934376 59.54375 29.934376Q57.7625 29.934376 57.121876 31.45L57.121876 38.95L55.325 38.95L55.325 28.3875L57.075 28.3875L57.10625 29.60625Q57.996876 28.184376 59.621876 28.184376Q60.153126 28.184376 60.41875 28.325L60.41875 29.996876ZM68.84062 38.95Q68.68437 38.6375 68.59062 37.840626Q67.325 39.153126 65.575 39.153126Q64.0125 39.153126 63.0125 38.2625Q62.0125 37.371876 62.0125 36.0125Q62.0125 34.371876 63.2625 33.465626Q64.52812 32.54375 66.79375 32.54375L68.55937 32.54375L68.55937 31.715626Q68.55937 30.7625 67.98125 30.2Q67.41875 29.6375 66.325 29.6375Q65.35625 29.6375 64.7 30.1375Q64.04375 30.621876 64.04375 31.309376L62.23125 31.309376Q62.23125 30.528126 62.79375 29.79375Q63.35625 29.04375 64.30937 28.621876Q65.27812 28.184376 66.43437 28.184376Q68.2625 28.184376 69.29375 29.10625Q70.325 30.0125 70.37187 31.621876L70.37187 36.48125Q70.37187 37.934376 70.73125 38.79375L70.73125 38.95L68.84062 38.95ZM65.84062 37.575Q66.7 37.575 67.45 37.1375Q68.21562 36.7 68.55937 35.996876L68.55937 33.825L67.1375 33.825Q63.825 33.825 63.825 35.7625Q63.825 36.621876 64.3875 37.10625Q64.95 37.575 65.84062 37.575ZM72.8875 33.575Q72.8875 31.10625 74.02812 29.653126Q75.16875 28.184376 77.05937 28.184376Q78.99687 28.184376 80.075 29.559376L80.16875 28.3875L81.80937 28.3875L81.80937 38.7Q81.80937 40.746876 80.59062 41.91875Q79.3875 43.10625 77.325 43.10625Q76.18437 43.10625 75.09062 42.621876Q73.99687 42.1375 73.41875 41.278126L74.35625 40.2Q75.52812 41.6375 77.2 41.6375Q78.52812 41.6375 79.2625 40.8875Q79.99687 40.153126 79.99687 38.809376L79.99687 37.8875Q78.91875 39.153126 77.04375 39.153126Q75.18437 39.153126 74.02812 37.653126Q72.8875 36.153126 72.8875 33.575ZM74.7 33.778126Q74.7 35.575 75.43437 36.590626Q76.16875 37.60625 77.48125 37.60625Q79.2 37.60625 79.99687 36.059376L79.99687 31.23125Q79.16875 29.715626 77.5125 29.715626Q76.18437 29.715626 75.43437 30.746876Q74.7 31.778126 74.7 33.778126ZM88.7 39.153126Q86.55937 39.153126 85.2 37.746876Q83.85625 36.325 83.85625 33.965626L83.85625 33.621876Q83.85625 32.059376 84.45 30.825Q85.05937 29.590626 86.1375 28.8875Q87.21562 28.184376 88.48125 28.184376Q90.54375 28.184376 91.68437 29.54375Q92.825 30.903126 92.825 33.434376L92.825 34.184376L85.66875 34.184376Q85.7 35.746876 86.575 36.715626Q87.45 37.66875 88.79375 37.66875Q89.7625 37.66875 90.41875 37.278126Q91.09062 36.8875 91.59062 36.246876L92.68437 37.10625Q91.35625 39.153126 88.7 39.153126ZM88.48125 29.66875Q87.3875 29.66875 86.6375 30.465626Q85.90312 31.2625 85.73125 32.7L91.0125 32.7L91.0125 32.559376Q90.93437 31.184376 90.2625 30.434376Q89.60625 29.66875 88.48125 29.66875ZM111.52812 38.95L109.6375 38.95L102.48125 27.996876L102.48125 38.95L100.60625 38.95L100.60625 24.73125L102.48125 24.73125L109.66875 35.73125L109.66875 24.73125L111.52812 24.73125L111.52812 38.95ZM120.84062 37.903126Q119.79375 39.153126 117.74687 39.153126Q116.05937 39.153126 115.16875 38.16875Q114.29375 37.184376 114.27812 35.2625L114.27812 28.3875L116.09062 28.3875L116.09062 35.215626Q116.09062 37.60625 118.04375 37.60625Q120.10625 37.60625 120.79375 36.075L120.79375 28.3875L122.60625 28.3875L122.60625 38.95L120.8875 38.95L120.84062 37.903126ZM127.0125 28.3875L127.05937 29.559376Q128.23125 28.184376 130.2 28.184376Q132.41875 28.184376 133.21562 29.8875Q133.74687 29.121876 134.59062 28.653126Q135.43437 28.184376 136.59062 28.184376Q140.05937 28.184376 140.12187 31.871876L140.12187 38.95L138.30937 38.95L138.30937 31.98125Q138.30937 30.840626 137.79375 30.278126Q137.27812 29.715626 136.05937 29.715626Q135.05937 29.715626 134.3875 30.325Q133.73125 30.91875 133.62187 31.934376L133.62187 38.95L131.80937 38.95L131.80937 32.028126Q131.80937 29.715626 129.54375 29.715626Q127.7625 29.715626 127.12187 31.23125L127.12187 38.95L125.30937 38.95L125.30937 28.3875L127.0125 28.3875ZM152.2625 33.778126Q152.2625 36.2 151.15312 37.684376Q150.04375 39.153126 148.16875 39.153126Q146.15312 39.153126 145.05937 37.73125L144.98125 38.95L143.325 38.95L143.325 23.95L145.12187 23.95L145.12187 29.54375Q146.21562 28.184376 148.1375 28.184376Q150.05937 28.184376 151.15312 29.6375Q152.2625 31.090626 152.2625 33.621876L152.2625 33.778126ZM150.45 33.575Q150.45 31.73125 149.73125 30.73125Q149.02812 29.715626 147.7 29.715626Q145.90312 29.715626 145.12187 31.3875L145.12187 35.95Q145.95 37.60625 147.71562 37.60625Q149.0125 37.60625 149.73125 36.60625Q150.45 35.60625 150.45 33.575ZM158.7 39.153126Q156.55937 39.153126 155.2 37.746876Q153.85625 36.325 153.85625 33.965626L153.85625 33.621876Q153.85625 32.059376 154.45 30.825Q155.05937 29.590626 156.1375 28.8875Q157.21562 28.184376 158.48125 28.184376Q160.54375 28.184376 161.68437 29.54375Q162.825 30.903126 162.825 33.434376L162.825 34.184376L155.66875 34.184376Q155.7 35.746876 156.575 36.715626Q157.45 37.66875 158.79375 37.66875Q159.7625 37.66875 160.41875 37.278126Q161.09062 36.8875 161.59062 36.246876L162.68437 37.10625Q161.35625 39.153126 158.7 39.153126ZM158.48125 29.66875Q157.3875 29.66875 156.6375 30.465626Q155.90312 31.2625 155.73125 32.7L161.0125 32.7L161.0125 32.559376Q160.93437 31.184376 160.2625 30.434376Q159.60625 29.66875 158.48125 29.66875ZM170.41875 29.996876Q170.0125 29.934376 169.54375 29.934376Q167.7625 29.934376 167.12187 31.45L167.12187 38.95L165.325 38.95L165.325 28.3875L167.075 28.3875L167.10625 29.60625Q167.99687 28.184376 169.62187 28.184376Q170.15312 28.184376 170.41875 28.325L170.41875 29.996876ZM176.84062 33.575Q176.84062 32.0125 177.45 30.778126Q178.05937 29.528126 179.1375 28.85625Q180.23125 28.184376 181.6375 28.184376Q183.79375 28.184376 185.12187 29.684376Q186.46562 31.16875 186.46562 33.653126L186.46562 33.778126Q186.46562 35.325 185.87187 36.559376Q185.27812 37.778126 184.16875 38.465626Q183.075 39.153126 181.65312 39.153126Q179.5125 39.153126 178.16875 37.653126Q176.84062 36.153126 176.84062 33.7L176.84062 33.575ZM178.65312 33.778126Q178.65312 35.54375 179.46562 36.60625Q180.29375 37.66875 181.65312 37.66875Q183.02812 37.66875 183.84062 36.590626Q184.65312 35.5125 184.65312 33.575Q184.65312 31.825 183.825 30.746876Q182.99687 29.66875 181.6375 29.66875Q180.29375 29.66875 179.46562 30.73125Q178.65312 31.79375 178.65312 33.778126ZM189.2 38.95L189.2 29.778126L187.54375 29.778126L187.54375 28.3875L189.2 28.3875L189.2 27.29375Q189.2 25.60625 190.10625 24.684376Q191.02812 23.746876 192.68437 23.746876Q193.30937 23.746876 193.91875 23.903126L193.825 25.371876Q193.37187 25.29375 192.85625 25.29375Q191.96562 25.29375 191.48125 25.809376Q191.0125 26.309376 191.0125 27.2625L191.0125 28.3875L193.2625 28.3875L193.2625 29.778126L191.0125 29.778126L191.0125 38.95L189.2 38.95ZM211.54375 32.29375Q211.54375 34.3875 210.84062 35.95Q210.1375 37.496876 208.84062 38.325Q207.55937 39.153126 205.84062 39.153126Q204.15312 39.153126 202.85625 38.325Q201.55937 37.496876 200.84062 35.965626Q200.12187 34.434376 200.10625 32.41875L200.10625 31.403126Q200.10625 29.35625 200.80937 27.778126Q201.52812 26.2 202.825 25.371876Q204.1375 24.528126 205.80937 24.528126Q207.52812 24.528126 208.825 25.35625Q210.1375 26.184376 210.84062 27.7625Q211.54375 29.325 211.54375 31.403126L211.54375 32.29375ZM209.66875 31.3875Q209.66875 28.85625 208.65312 27.5125Q207.6375 26.153126 205.80937 26.153126Q204.04375 26.153126 203.0125 27.5125Q201.99687 28.85625 201.96562 31.246876L201.96562 32.29375Q201.96562 34.746876 202.99687 36.153126Q204.02812 37.559376 205.84062 37.559376Q207.65312 37.559376 208.6375 36.23125Q209.6375 34.903126 209.66875 32.434376L209.66875 31.3875ZM223.66875 36.465626L225.7 28.3875L227.5125 28.3875L224.43437 38.95L222.96562 38.95L220.40312 30.934376L217.90312 38.95L216.43437 38.95L213.37187 28.3875L215.16875 28.3875L217.24687 36.29375L219.71562 28.3875L221.16875 28.3875L223.66875 36.465626ZM231.02812 28.3875L231.09062 29.715626Q232.29375 28.184376 234.24687 28.184376Q237.60625 28.184376 237.62187 31.965626L237.62187 38.95L235.825 38.95L235.825 31.95Q235.80937 30.809376 235.29375 30.2625Q234.79375 29.715626 233.7 29.715626Q232.825 29.715626 232.15312 30.184376Q231.49687 30.653126 231.12187 31.41875L231.12187 38.95L229.325 38.95L229.325 28.3875L231.02812 28.3875ZM244.7 39.153126Q242.55937 39.153126 241.2 37.746876Q239.85625 36.325 239.85625 33.965626L239.85625 33.621876Q239.85625 32.059376 240.45 30.825Q241.05937 29.590626 242.1375 28.8875Q243.21562 28.184376 244.48125 28.184376Q246.54375 28.184376 247.68437 29.54375Q248.825 30.903126 248.825 33.434376L248.825 34.184376L241.66875 34.184376Q241.7 35.746876 242.575 36.715626Q243.45 37.66875 244.79375 37.66875Q245.7625 37.66875 246.41875 37.278126Q247.09062 36.8875 247.59062 36.246876L248.68437 37.10625Q247.35625 39.153126 244.7 39.153126ZM244.48125 29.66875Q243.3875 29.66875 242.6375 30.465626Q241.90312 31.2625 241.73125 32.7L247.0125 32.7L247.0125 32.559376Q246.93437 31.184376 246.2625 30.434376Q245.60625 29.66875 244.48125 29.66875ZM256.41876 29.996876Q256.0125 29.934376 255.54375 29.934376Q253.7625 29.934376 253.12187 31.45L253.12187 38.95L251.325 38.95L251.325 28.3875L253.075 28.3875L253.10625 29.60625Q253.99687 28.184376 255.62187 28.184376Q256.15314 28.184376 256.41876 28.325L256.41876 29.996876ZM264.46564 36.153126Q264.46564 35.41875 263.91876 35.0125Q263.3719 34.60625 261.9969 34.309376Q260.6219 34.0125 259.8094 33.60625Q259.0125 33.2 258.6219 32.6375Q258.2469 32.059376 258.2469 31.278126Q258.2469 29.98125 259.34064 29.090626Q260.4344 28.184376 262.15314 28.184376Q263.95 28.184376 265.0594 29.121876Q266.1844 30.04375 266.1844 31.48125L264.35626 31.48125Q264.35626 30.746876 263.73126 30.215626Q263.10626 29.66875 262.15314 29.66875Q261.15314 29.66875 260.59064 30.10625Q260.04376 30.528126 260.04376 31.23125Q260.04376 31.871876 260.5594 32.215626Q261.075 32.54375 262.4344 32.85625Q263.79376 33.153126 264.6219 33.575Q265.46564 33.98125 265.8719 34.575Q266.27814 35.16875 266.27814 36.0125Q266.27814 37.434376 265.1375 38.29375Q264.0125 39.153126 262.2 39.153126Q260.9344 39.153126 259.95 38.7Q258.98126 38.246876 258.41876 37.45Q257.8719 36.6375 257.8719 35.7L259.6844 35.7Q259.73126 36.60625 260.40314 37.1375Q261.09064 37.66875 262.2 37.66875Q263.23126 37.66875 263.84064 37.2625Q264.46564 36.840626 264.46564 36.153126ZM282.2625 33.778126Q282.2625 36.2 281.15314 37.684376Q280.04376 39.153126 278.16876 39.153126Q276.15314 39.153126 275.0594 37.73125L274.98126 38.95L273.325 38.95L273.325 23.95L275.1219 23.95L275.1219 29.54375Q276.21564 28.184376 278.1375 28.184376Q280.0594 28.184376 281.15314 29.6375Q282.2625 31.090626 282.2625 33.621876L282.2625 33.778126ZM280.45 33.575Q280.45 31.73125 279.73126 30.73125Q279.02814 29.715626 277.7 29.715626Q275.90314 29.715626 275.1219 31.3875L275.1219 35.95Q275.95 37.60625 277.71564 37.60625Q279.0125 37.60625 279.73126 36.60625Q280.45 35.60625 280.45 33.575ZM287.77814 36.309376L290.23126 28.3875L292.16876 28.3875L287.91876 40.575Q286.9344 43.215626 284.79376 43.215626L284.45 43.184376L283.77814 43.059376L283.77814 41.590626L284.2625 41.6375Q285.1844 41.6375 285.6844 41.2625Q286.2 40.8875 286.52814 39.903126L286.9344 38.825L283.16876 28.3875L285.1375 28.3875L287.77814 36.309376ZM309.10626 37.090626Q308.3719 38.121876 307.075 38.6375Q305.79376 39.153126 304.075 39.153126Q302.325 39.153126 300.98126 38.340626Q299.6375 37.5125 298.90314 36.0125Q298.16876 34.5125 298.1375 32.528126L298.1375 31.278126Q298.1375 28.075 299.6375 26.309376Q301.1375 24.528126 303.85626 24.528126Q306.075 24.528126 307.4344 25.66875Q308.79376 26.809376 309.10626 28.903126L307.23126 28.903126Q306.7 26.075 303.8719 26.075Q301.98126 26.075 301.0125 27.403126Q300.04376 28.73125 300.02814 31.23125L300.02814 32.403126Q300.02814 34.79375 301.1219 36.2Q302.21564 37.60625 304.075 37.60625Q305.1375 37.60625 305.91876 37.371876Q306.71564 37.1375 307.23126 36.590626L307.23126 33.3875L303.95 33.3875L303.95 31.871876L309.10626 31.871876L309.10626 37.090626ZM316.7 39.153126Q314.5594 39.153126 313.2 37.746876Q311.85626 36.325 311.85626 33.965626L311.85626 33.621876Q311.85626 32.059376 312.45 30.825Q313.0594 29.590626 314.1375 28.8875Q315.21564 28.184376 316.48126 28.184376Q318.54376 28.184376 319.6844 29.54375Q320.825 30.903126 320.825 33.434376L320.825 34.184376L313.66876 34.184376Q313.7 35.746876 314.575 36.715626Q315.45 37.66875 316.79376 37.66875Q317.7625 37.66875 318.41876 37.278126Q319.09064 36.8875 319.59064 36.246876L320.6844 37.10625Q319.35626 39.153126 316.7 39.153126ZM316.48126 29.66875Q315.3875 29.66875 314.6375 30.465626Q313.90314 31.2625 313.73126 32.7L319.0125 32.7L319.0125 32.559376Q318.9344 31.184376 318.2625 30.434376Q317.60626 29.66875 316.48126 29.66875ZM325.02814 28.3875L325.09064 29.715626Q326.29376 28.184376 328.2469 28.184376Q331.60626 28.184376 331.6219 31.965626L331.6219 38.95L329.825 38.95L329.825 31.95Q329.8094 30.809376 329.29376 30.2625Q328.79376 29.715626 327.7 29.715626Q326.825 29.715626 326.15314 30.184376Q325.4969 30.653126 325.1219 31.41875L325.1219 38.95L323.325 38.95L323.325 28.3875L325.02814 28.3875ZM339.41876 29.996876Q339.0125 29.934376 338.54376 29.934376Q336.7625 29.934376 336.1219 31.45L336.1219 38.95L334.325 38.95L334.325 28.3875L336.075 28.3875L336.10626 29.60625Q336.9969 28.184376 338.6219 28.184376Q339.15314 28.184376 339.41876 28.325L339.41876 29.996876ZM345.7 39.153126Q343.5594 39.153126 342.2 37.746876Q340.85626 36.325 340.85626 33.965626L340.85626 33.621876Q340.85626 32.059376 341.45 30.825Q342.0594 29.590626 343.1375 28.8875Q344.21564 28.184376 345.48126 28.184376Q347.54376 28.184376 348.6844 29.54375Q349.825 30.903126 349.825 33.434376L349.825 34.184376L342.66876 34.184376Q342.7 35.746876 343.575 36.715626Q344.45 37.66875 345.79376 37.66875Q346.7625 37.66875 347.41876 37.278126Q348.09064 36.8875 348.59064 36.246876L349.6844 37.10625Q348.35626 39.153126 345.7 39.153126ZM345.48126 29.66875Q344.3875 29.66875 343.6375 30.465626Q342.90314 31.2625 342.73126 32.7L348.0125 32.7L348.0125 32.559376Q347.9344 31.184376 347.2625 30.434376Q346.60626 29.66875 345.48126 29.66875ZM358.2 38.95L358.2 29.778126L356.54376 29.778126L356.54376 28.3875L358.2 28.3875L358.2 27.29375Q358.2 25.60625 359.10626 24.684376Q360.02814 23.746876 361.6844 23.746876Q362.3094 23.746876 362.91876 23.903126L362.825 25.371876Q362.3719 25.29375 361.85626 25.29375Q360.96564 25.29375 360.48126 25.809376Q360.0125 26.309376 360.0125 27.2625L360.0125 28.3875L362.2625 28.3875L362.2625 29.778126L360.0125 29.778126L360.0125 38.95L358.2 38.95ZM363.84064 33.575Q363.84064 32.0125 364.45 30.778126Q365.0594 29.528126 366.1375 28.85625Q367.23126 28.184376 368.6375 28.184376Q370.79376 28.184376 372.1219 29.684376Q373.46564 31.16875 373.46564 33.653126L373.46564 33.778126Q373.46564 35.325 372.8719 36.559376Q372.27814 37.778126 371.16876 38.465626Q370.075 39.153126 368.65314 39.153126Q366.5125 39.153126 365.16876 37.653126Q363.84064 36.153126 363.84064 33.7L363.84064 33.575ZM365.65314 33.778126Q365.65314 35.54375 366.46564 36.60625Q367.29376 37.66875 368.65314 37.66875Q370.02814 37.66875 370.84064 36.590626Q371.65314 35.5125 371.65314 33.575Q371.65314 31.825 370.825 30.746876Q369.9969 29.66875 368.6375 29.66875Q367.29376 29.66875 366.46564 30.73125Q365.65314 31.79375 365.65314 33.778126ZM380.41876 29.996876Q380.0125 29.934376 379.54376 29.934376Q377.7625 29.934376 377.1219 31.45L377.1219 38.95L375.325 38.95L375.325 28.3875L377.075 28.3875L377.10626 29.60625Q377.9969 28.184376 379.6219 28.184376Q380.15314 28.184376 380.41876 28.325L380.41876 29.996876ZM390.02814 24.73125L394.66876 36.325L399.325 24.73125L401.7469 24.73125L401.7469 38.95L399.8719 38.95L399.8719 33.41875L400.0594 27.434376L395.3875 38.95L393.95 38.95L389.29376 27.465626L389.48126 33.41875L389.48126 38.95L387.60626 38.95L387.60626 24.73125L390.02814 24.73125ZM410.84064 37.903126Q409.79376 39.153126 407.7469 39.153126Q406.0594 39.153126 405.16876 38.16875Q404.29376 37.184376 404.27814 35.2625L404.27814 28.3875L406.09064 28.3875L406.09064 35.215626Q406.09064 37.60625 408.04376 37.60625Q410.10626 37.60625 410.79376 36.075L410.79376 28.3875L412.60626 28.3875L412.60626 38.95L410.8875 38.95L410.84064 37.903126ZM417.27814 38.95L415.48126 38.95L415.48126 23.95L417.27814 23.95L417.27814 38.95ZM422.7625 25.825L422.7625 28.3875L424.7469 28.3875L424.7469 29.778126L422.7625 29.778126L422.7625 36.325Q422.7625 36.965626 423.02814 37.29375Q423.29376 37.60625 423.9344 37.60625Q424.2469 37.60625 424.79376 37.48125L424.79376 38.95Q424.075 39.153126 423.40314 39.153126Q422.2 39.153126 421.575 38.41875Q420.96564 37.684376 420.96564 36.325L420.96564 29.778126L419.04376 29.778126L419.04376 28.3875L420.96564 28.3875L420.96564 25.825L422.7625 25.825ZM429.27814 38.95L427.48126 38.95L427.48126 28.3875L429.27814 28.3875L429.27814 38.95ZM427.325 25.575Q427.325 25.1375 427.59064 24.840626Q427.8719 24.528126 428.3875 24.528126Q428.91876 24.528126 429.1844 24.840626Q429.46564 25.1375 429.46564 25.575Q429.46564 26.0125 429.1844 26.309376Q428.91876 26.60625 428.3875 26.60625Q427.8719 26.60625 427.59064 26.309376Q427.325 26.0125 427.325 25.575ZM436.075 33.653126L431.3094 33.653126L431.3094 32.16875L436.075 32.16875L436.075 33.653126ZM440.48126 33.3875L440.48126 38.95L438.60626 38.95L438.60626 24.73125L443.84064 24.73125Q446.1844 24.73125 447.4969 25.91875Q448.825 27.10625 448.825 29.075Q448.825 31.153126 447.52814 32.278126Q446.23126 33.3875 443.825 33.3875L440.48126 33.3875ZM440.48126 31.85625L443.84064 31.85625Q445.35626 31.85625 446.15314 31.153126Q446.95 30.434376 446.95 29.090626Q446.95 27.825 446.15314 27.075Q445.35626 26.309376 443.95 26.278126L440.48126 26.278126L440.48126 31.85625ZM453.27814 38.95L451.48126 38.95L451.48126 23.95L453.27814 23.95L453.27814 38.95ZM462.84064 38.95Q462.6844 38.6375 462.59064 37.840626Q461.325 39.153126 459.575 39.153126Q458.0125 39.153126 457.0125 38.2625Q456.0125 37.371876 456.0125 36.0125Q456.0125 34.371876 457.2625 33.465626Q458.52814 32.54375 460.79376 32.54375L462.5594 32.54375L462.5594 31.715626Q462.5594 30.7625 461.98126 30.2Q461.41876 29.6375 460.325 29.6375Q459.35626 29.6375 458.7 30.1375Q458.04376 30.621876 458.04376 31.309376L456.23126 31.309376Q456.23126 30.528126 456.79376 29.79375Q457.35626 29.04375 458.3094 28.621876Q459.27814 28.184376 460.4344 28.184376Q462.2625 28.184376 463.29376 29.10625Q464.325 30.0125 464.3719 31.621876L464.3719 36.48125Q464.3719 37.934376 464.73126 38.79375L464.73126 38.95L462.84064 38.95ZM459.84064 37.575Q460.7 37.575 461.45 37.1375Q462.21564 36.7 462.5594 35.996876L462.5594 33.825L461.1375 33.825Q457.825 33.825 457.825 35.7625Q457.825 36.621876 458.3875 37.10625Q458.95 37.575 459.84064 37.575ZM470.77814 36.309376L473.23126 28.3875L475.16876 28.3875L470.91876 40.575Q469.9344 43.215626 467.79376 43.215626L467.45 43.184376L466.77814 43.059376L466.77814 41.590626L467.2625 41.6375Q468.1844 41.6375 468.6844 41.2625Q469.2 40.8875 469.52814 39.903126L469.9344 38.825L466.16876 28.3875L468.1375 28.3875L470.77814 36.309376ZM480.7 39.153126Q478.5594 39.153126 477.2 37.746876Q475.85626 36.325 475.85626 33.965626L475.85626 33.621876Q475.85626 32.059376 476.45 30.825Q477.0594 29.590626 478.1375 28.8875Q479.21564 28.184376 480.48126 28.184376Q482.54376 28.184376 483.6844 29.54375Q484.825 30.903126 484.825 33.434376L484.825 34.184376L477.66876 34.184376Q477.7 35.746876 478.575 36.715626Q479.45 37.66875 480.79376 37.66875Q481.7625 37.66875 482.41876 37.278126Q483.09064 36.8875 483.59064 36.246876L484.6844 37.10625Q483.35626 39.153126 480.7 39.153126ZM480.48126 29.66875Q479.3875 29.66875 478.6375 30.465626Q477.90314 31.2625 477.73126 32.7L483.0125 32.7L483.0125 32.559376Q482.9344 31.184376 482.2625 30.434376Q481.60626 29.66875 480.48126 29.66875ZM492.41876 29.996876Q492.0125 29.934376 491.54376 29.934376Q489.7625 29.934376 489.1219 31.45L489.1219 38.95L487.325 38.95L487.325 28.3875L489.075 28.3875L489.10626 29.60625Q489.9969 28.184376 491.6219 28.184376Q492.15314 28.184376 492.41876 28.325L492.41876 29.996876ZM510.10626 37.090626Q509.3719 38.121876 508.075 38.6375Q506.79376 39.153126 505.075 39.153126Q503.325 39.153126 501.98126 38.340626Q500.6375 37.5125 499.90314 36.0125Q499.16876 34.5125 499.1375 32.528126L499.1375 31.278126Q499.1375 28.075 500.6375 26.309376Q502.1375 24.528126 504.85626 24.528126Q507.075 24.528126 508.4344 25.66875Q509.79376 26.809376 510.10626 28.903126L508.23126 28.903126Q507.7 26.075 504.8719 26.075Q502.98126 26.075 502.0125 27.403126Q501.04376 28.73125 501.02814 31.23125L501.02814 32.403126Q501.02814 34.79375 502.1219 36.2Q503.21564 37.60625 505.075 37.60625Q506.1375 37.60625 506.91876 37.371876Q507.71564 37.1375 508.23126 36.590626L508.23126 33.3875L504.95 33.3875L504.95 31.871876L510.10626 31.871876L510.10626 37.090626ZM519.84064 38.95Q519.6844 38.6375 519.59064 37.840626Q518.325 39.153126 516.575 39.153126Q515.0125 39.153126 514.0125 38.2625Q513.0125 37.371876 513.0125 36.0125Q513.0125 34.371876 514.2625 33.465626Q515.52814 32.54375 517.79376 32.54375L519.5594 32.54375L519.5594 31.715626Q519.5594 30.7625 518.98126 30.2Q518.41876 29.6375 517.325 29.6375Q516.35626 29.6375 515.7 30.1375Q515.04376 30.621876 515.04376 31.309376L513.23126 31.309376Q513.23126 30.528126 513.79376 29.79375Q514.35626 29.04375 515.3094 28.621876Q516.27814 28.184376 517.4344 28.184376Q519.2625 28.184376 520.29376 29.10625Q521.325 30.0125 521.3719 31.621876L521.3719 36.48125Q521.3719 37.934376 521.73126 38.79375L521.73126 38.95L519.84064 38.95ZM516.84064 37.575Q517.7 37.575 518.45 37.1375Q519.21564 36.7 519.5594 35.996876L519.5594 33.825L518.1375 33.825Q514.825 33.825 514.825 35.7625Q514.825 36.621876 515.3875 37.10625Q515.95 37.575 516.84064 37.575ZM526.0125 28.3875L526.0594 29.559376Q527.23126 28.184376 529.2 28.184376Q531.41876 28.184376 532.21564 29.8875Q532.7469 29.121876 533.59064 28.653126Q534.4344 28.184376 535.59064 28.184376Q539.0594 28.184376 539.1219 31.871876L539.1219 38.95L537.3094 38.95L537.3094 31.98125Q537.3094 30.840626 536.79376 30.278126Q536.27814 29.715626 535.0594 29.715626Q534.0594 29.715626 533.3875 30.325Q532.73126 30.91875 532.6219 31.934376L532.6219 38.95L530.8094 38.95L530.8094 32.028126Q530.8094 29.715626 528.54376 29.715626Q526.7625 29.715626 526.1219 31.23125L526.1219 38.95L524.3094 38.95L524.3094 28.3875L526.0125 28.3875ZM546.7 39.153126Q544.5594 39.153126 543.2 37.746876Q541.85626 36.325 541.85626 33.965626L541.85626 33.621876Q541.85626 32.059376 542.45 30.825Q543.0594 29.590626 544.1375 28.8875Q545.21564 28.184376 546.48126 28.184376Q548.54376 28.184376 549.6844 29.54375Q550.825 30.903126 550.825 33.434376L550.825 34.184376L543.66876 34.184376Q543.7 35.746876 544.575 36.715626Q545.45 37.66875 546.79376 37.66875Q547.7625 37.66875 548.41876 37.278126Q549.09064 36.8875 549.59064 36.246876L550.6844 37.10625Q549.35626 39.153126 546.7 39.153126ZM546.48126 29.66875Q545.3875 29.66875 544.6375 30.465626Q543.90314 31.2625 543.73126 32.7L549.0125 32.7L549.0125 32.559376Q548.9344 31.184376 548.2625 30.434376Q547.60626 29.66875 546.48126 29.66875ZM559.46564 36.153126Q559.46564 35.41875 558.91876 35.0125Q558.3719 34.60625 556.9969 34.309376Q555.6219 34.0125 554.8094 33.60625Q554.0125 33.2 553.6219 32.6375Q553.2469 32.059376 553.2469 31.278126Q553.2469 29.98125 554.34064 29.090626Q555.4344 28.184376 557.15314 28.184376Q558.95 28.184376 560.0594 29.121876Q561.1844 30.04375 561.1844 31.48125L559.35626 31.48125Q559.35626 30.746876 558.73126 30.215626Q558.10626 29.66875 557.15314 29.66875Q556.15314 29.66875 555.59064 30.10625Q555.04376 30.528126 555.04376 31.23125Q555.04376 31.871876 555.5594 32.215626Q556.075 32.54375 557.4344 32.85625Q558.79376 33.153126 559.6219 33.575Q560.46564 33.98125 560.8719 34.575Q561.27814 35.16875 561.27814 36.0125Q561.27814 37.434376 560.1375 38.29375Q559.0125 39.153126 557.2 39.153126Q555.9344 39.153126 554.95 38.7Q553.98126 38.246876 553.41876 37.45Q552.8719 36.6375 552.8719 35.7L554.6844 35.7Q554.73126 36.60625 555.40314 37.1375Q556.09064 37.66875 557.2 37.66875Q558.23126 37.66875 558.84064 37.2625Q559.46564 36.840626 559.46564 36.153126Z" fill-rule="nonzero"/></svg>