<svg version="1.1" viewBox="0.0 0.0 646.0 399.0" fill="none" stroke="none" stroke-linecap="square" stroke-miterlimit="10" width="646" height="399" xmlns:xlink="http://www.w3.org/1999/xlink" xmlns="http://www.w3.org/2000/svg"><path fill="#ffffff" d="M0 0L646.0 0L646.0 399.0L0 399.0L0 0Z" fill-rule="nonzero"/><path stroke="#333333" stroke-width="1.0" stroke-linecap="butt" d="M102.5 325.5L626.5 325.5" fill-rule="nonzero"/><path stroke="#cccccc" stroke-width="1.0" stroke-linecap="butt" d="M102.5 238.5L626.5 238.5" fill-rule="nonzero"/><path stroke="#cccccc" stroke-width="1.0" stroke-linecap="butt" d="M102.5 151.5L626.5 151.5" fill-rule="nonzero"/><path stroke="#cccccc" stroke-width="1.0" stroke-linecap="butt" d="M102.5 64.5L626.5 64.5" fill-rule="nonzero"/><clipPath id="id_0"><path d="M102.95 64.75L626.05 64.75L626.05 325.05L102.95 325.05L102.95 64.75Z" clip-rule="nonzero"/></clipPath><path stroke="#000000" stroke-width="2.0" stroke-linecap="butt" stroke-opacity="0.0" clip-path="url(#id_0)" d="M166.0 325.0L125.0 325.0L125.0 82.0C125.0 80.89543 125.89543 80.0 127.0 80.0L164.0 80.0C165.10457 80.0 166.0 80.89543 166.0 82.0Z" fill-rule="nonzero"/><path fill="#4285f4" clip-path="url(#id_0)" d="M166.0 325.0L125.0 325.0L125.0 82.0C125.0 80.89543 125.89543 80.0 127.0 80.0L164.0 80.0C165.10457 80.0 166.0 80.89543 166.0 82.0Z" fill-rule="nonzero"/><path stroke="#000000" stroke-width="2.0" stroke-linecap="butt" stroke-opacity="0.0" clip-path="url(#id_0)" d="M229.0 325.0L188.0 325.0L188.0 162.0C188.0 160.89543 188.89543 160.0 190.0 160.0L227.0 160.0C228.10457 160.0 229.0 160.89543 229.0 162.0Z" fill-rule="nonzero"/><path fill="#4285f4" clip-path="url(#id_0)" d="M229.0 325.0L188.0 325.0L188.0 162.0C188.0 160.89543 188.89543 160.0 190.0 160.0L227.0 160.0C228.10457 160.0 229.0 160.89543 229.0 162.0Z" fill-rule="nonzero"/><path stroke="#000000" stroke-width="2.0" stroke-linecap="butt" stroke-opacity="0.0" clip-path="url(#id_0)" d="M292.0 325.0L251.0 325.0L251.0 240.0C251.0 238.89543 251.89543 238.0 253.0 238.0L290.0 238.0C291.10458 238.0 292.0 238.89543 292.0 240.0Z" fill-rule="nonzero"/><path fill="#4285f4" clip-path="url(#id_0)" d="M292.0 325.0L251.0 325.0L251.0 240.0C251.0 238.89543 251.89543 238.0 253.0 238.0L290.0 238.0C291.10458 238.0 292.0 238.89543 292.0 240.0Z" fill-rule="nonzero"/><path stroke="#000000" stroke-width="2.0" stroke-linecap="butt" stroke-opacity="0.0" clip-path="url(#id_0)" d="M354.0 325.0L313.0 325.0L313.0 208.0C313.0 206.89543 313.89542 206.0 315.0 206.0L352.0 206.0C353.10458 206.0 354.0 206.89543 354.0 208.0Z" fill-rule="nonzero"/><path fill="#4285f4" clip-path="url(#id_0)" d="M354.0 325.0L313.0 325.0L313.0 208.0C313.0 206.89543 313.89542 206.0 315.0 206.0L352.0 206.0C353.10458 206.0 354.0 206.89543 354.0 208.0Z" fill-rule="nonzero"/><path stroke="#000000" stroke-width="2.0" stroke-linecap="butt" stroke-opacity="0.0" clip-path="url(#id_0)" d="M417.0 325.0L376.0 325.0L376.0 185.0C376.0 183.89543 376.89542 183.0 378.0 183.0L415.0 183.0C416.10458 183.0 417.0 183.89543 417.0 185.0Z" fill-rule="nonzero"/><path fill="#4285f4" clip-path="url(#id_0)" d="M417.0 325.0L376.0 325.0L376.0 185.0C376.0 183.89543 376.89542 183.0 378.0 183.0L415.0 183.0C416.10458 183.0 417.0 183.89543 417.0 185.0Z" fill-rule="nonzero"/><path stroke="#000000" stroke-width="2.0" stroke-linecap="butt" stroke-opacity="0.0" clip-path="url(#id_0)" d="M479.0 325.0L438.0 325.0L438.0 86.0C438.0 84.89543 438.89542 84.0 440.0 84.0L477.0 84.0C478.10458 84.0 479.0 84.89543 479.0 86.0Z" fill-rule="nonzero"/><path fill="#4285f4" clip-path="url(#id_0)" d="M479.0 325.0L438.0 325.0L438.0 86.0C438.0 84.89543 438.89542 84.0 440.0 84.0L477.0 84.0C478.10458 84.0 479.0 84.89543 479.0 86.0Z" fill-rule="nonzero"/><path stroke="#000000" stroke-width="2.0" stroke-linecap="butt" stroke-opacity="0.0" clip-path="url(#id_0)" d="M542.0 325.0L501.0 325.0L501.0 165.0C501.0 163.89543 501.89542 163.0 503.0 163.0L540.0 163.0C541.10455 163.0 542.0 163.89543 542.0 165.0Z" fill-rule="nonzero"/><path fill="#4285f4" clip-path="url(#id_0)" d="M542.0 325.0L501.0 325.0L501.0 165.0C501.0 163.89543 501.89542 163.0 503.0 163.0L540.0 163.0C541.10455 163.0 542.0 163.89543 542.0 165.0Z" fill-rule="nonzero"/><path stroke="#000000" stroke-width="2.0" stroke-linecap="butt" stroke-opacity="0.0" clip-path="url(#id_0)" d="M605.0 325.0L564.0 325.0L564.0 126.0C564.0 124.89543 564.89545 124.0 566.0 124.0L603.0 124.0C604.10455 124.0 605.0 124.89543 605.0 126.0Z" fill-rule="nonzero"/><path fill="#4285f4" clip-path="url(#id_0)" d="M605.0 325.0L564.0 325.0L564.0 126.0C564.0 124.89543 564.89545 124.0 566.0 124.0L603.0 124.0C604.10455 124.0 605.0 124.89543 605.0 126.0Z" fill-rule="nonzero"/><path fill="#424242" d="M356.29688 374.925Q355.85938 375.55 355.07812 375.8625Q354.29688 376.175 353.26562 376.175Q352.23438 376.175 351.42188 375.6906Q350.60938 375.1906 350.17188 374.28436Q349.73438 373.3781 349.71875 372.1906L349.71875 371.45624Q349.71875 369.51874 350.60938 368.45624Q351.51562 367.39374 353.14062 367.39374Q354.48438 367.39374 355.29688 368.08124Q356.10938 368.76874 356.29688 370.01874L355.17188 370.01874Q354.84375 368.33124 353.15625 368.33124Q352.01562 368.33124 351.4375 369.1281Q350.85938 369.90936 350.84375 371.425L350.84375 372.1125Q350.84375 373.55 351.5 374.40936Q352.15625 375.2531 353.28125 375.2531Q353.90625 375.2531 354.375 375.1125Q354.85938 374.97186 355.17188 374.6281L355.17188 372.72186L353.20312 372.72186L353.20312 371.8L356.29688 371.8L356.29688 374.925ZM360.45312 376.175Q359.15625 376.175 358.34375 375.33124Q357.54688 374.47186 357.54688 373.05L357.54688 372.8625Q357.54688 371.90936 357.90625 371.175Q358.26562 370.425 358.90625 370.01874Q359.5625 369.59686 360.3125 369.59686Q361.54688 369.59686 362.23438 370.40936Q362.92188 371.22186 362.92188 372.7375L362.92188 373.1906L358.625 373.1906Q358.65625 374.1281 359.17188 374.70624Q359.70312 375.28436 360.51562 375.28436Q361.07812 375.28436 361.46875 375.05Q361.875 374.8156 362.1875 374.425L362.84375 374.9406Q362.04688 376.175 360.45312 376.175ZM360.3125 370.4875Q359.65625 370.4875 359.20312 370.97186Q358.76562 371.4406 358.67188 372.3L361.84375 372.3L361.84375 372.22186Q361.79688 371.39374 361.39062 370.9406Q361.0 370.4875 360.3125 370.4875ZM364.84375 369.70624L364.875 370.5031Q365.60938 369.59686 366.78125 369.59686Q368.79688 369.59686 368.8125 371.8625L368.8125 376.05L367.71875 376.05L367.71875 371.84686Q367.71875 371.175 367.40625 370.84686Q367.10938 370.51874 366.45312 370.51874Q365.92188 370.51874 365.51562 370.8Q365.125 371.08124 364.90625 371.53436L364.90625 376.05L363.82812 376.05L363.82812 369.70624L364.84375 369.70624ZM373.89062 370.675Q373.64062 370.64374 373.35938 370.64374Q372.28125 370.64374 371.90625 371.55L371.90625 376.05L370.82812 376.05L370.82812 369.70624L371.875 369.70624L371.89062 370.4406Q372.42188 369.59686 373.40625 369.59686Q373.71875 369.59686 373.89062 369.675L373.89062 370.675ZM377.45312 376.175Q376.15625 376.175 375.34375 375.33124Q374.54688 374.47186 374.54688 373.05L374.54688 372.8625Q374.54688 371.90936 374.90625 371.175Q375.26562 370.425 375.90625 370.01874Q376.5625 369.59686 377.3125 369.59686Q378.54688 369.59686 379.23438 370.40936Q379.92188 371.22186 379.92188 372.7375L379.92188 373.1906L375.625 373.1906Q375.65625 374.1281 376.17188 374.70624Q376.70312 375.28436 377.51562 375.28436Q378.07812 375.28436 378.46875 375.05Q378.875 374.8156 379.1875 374.425L379.84375 374.9406Q379.04688 376.175 377.45312 376.175ZM377.3125 370.4875Q376.65625 370.4875 376.20312 370.97186Q375.76562 371.4406 375.67188 372.3L378.84375 372.3L378.84375 372.22186Q378.79688 371.39374 378.39062 370.9406Q378.0 370.4875 377.3125 370.4875Z" fill-rule="nonzero"/><path fill="#424242" d="M31.949987 244.60312L31.949987 245.72812L25.371862 250.025L31.949987 250.025L31.949987 251.16562L23.418737 251.16562L23.418737 250.025L30.028112 245.72812L23.418737 245.72812L23.418737 244.60312L31.949987 244.60312ZM31.324987 238.41562Q32.07499 239.04062 32.07499 240.275Q32.07499 241.29062 31.481237 241.82187Q30.887487 242.35312 29.731237 242.35312L25.606237 242.35312L25.606237 241.275L29.699987 241.275Q31.153112 241.275 31.153112 240.10312Q31.153112 238.85312 30.215612 238.44687L25.606237 238.44687L25.606237 237.35312L31.949987 237.35312L31.949987 238.38437L31.324987 238.41562ZM25.606237 234.30624L26.309362 234.275Q25.496862 233.5875 25.496862 232.4Q25.496862 231.07187 26.512487 230.5875Q26.059362 230.275 25.778112 229.775Q25.496862 229.25937 25.496862 228.57187Q25.496862 226.47812 27.699987 226.44687L31.949987 226.44687L31.949987 227.525L27.762487 227.525Q27.090612 227.525 26.762487 227.8375Q26.418737 228.15 26.418737 228.88437Q26.418737 229.49374 26.778112 229.9Q27.137487 230.29062 27.746862 230.35312L31.949987 230.35312L31.949987 231.43124L27.793737 231.43124Q26.418737 231.43124 26.418737 232.79062Q26.418737 233.85312 27.324987 234.24374L31.949987 234.24374L31.949987 235.3375L25.606237 235.3375L25.606237 234.30624ZM28.856237 218.9625Q30.309362 218.9625 31.199987 219.63437Q32.07499 220.29062 32.07499 221.41562Q32.07499 222.61874 31.215612 223.275L31.949987 223.3375L31.949987 224.32187L22.949987 224.32187L22.949987 223.24374L26.309362 223.24374Q25.496862 222.5875 25.496862 221.43124Q25.496862 220.275 26.371862 219.61874Q27.231237 218.9625 28.762487 218.9625L28.856237 218.9625ZM28.731237 220.04062Q27.621862 220.04062 27.028112 220.47812Q26.418737 220.9 26.418737 221.69687Q26.418737 222.775 27.403112 223.24374L30.153112 223.24374Q31.153112 222.74374 31.153112 221.69687Q31.153112 220.91562 30.543737 220.47812Q29.934362 220.04062 28.731237 220.04062ZM32.07499 214.69687Q32.07499 215.99374 31.231237 216.80624Q30.371862 217.60312 28.949987 217.60312L28.762487 217.60312Q27.809362 217.60312 27.074987 217.24374Q26.324987 216.88437 25.918737 216.24374Q25.496862 215.5875 25.496862 214.8375Q25.496862 213.60312 26.309362 212.91562Q27.121862 212.22812 28.637487 212.22812L29.090612 212.22812L29.090612 216.525Q30.028112 216.49374 30.606237 215.97812Q31.184362 215.44687 31.184362 214.63437Q31.184362 214.07187 30.949987 213.68124Q30.715612 213.275 30.324987 212.9625L30.840612 212.30624Q32.07499 213.10312 32.07499 214.69687ZM26.387487 214.8375Q26.387487 215.49374 26.871862 215.94687Q27.340612 216.38437 28.199987 216.47812L28.199987 213.30624L28.121862 213.30624Q27.293737 213.35312 26.840612 213.75937Q26.387487 214.15 26.387487 214.8375ZM26.574987 208.25937Q26.543737 208.50937 26.543737 208.79062Q26.543737 209.86874 27.449987 210.24374L31.949987 210.24374L31.949987 211.32187L25.606237 211.32187L25.606237 210.275L26.340612 210.25937Q25.496862 209.72812 25.496862 208.74374Q25.496862 208.43124 25.574987 208.25937L26.574987 208.25937ZM28.715612 204.61874Q27.793737 204.61874 27.043737 204.25937Q26.293737 203.88437 25.903112 203.22812Q25.496862 202.57187 25.496862 201.74374Q25.496862 200.44687 26.387487 199.65Q27.278112 198.8375 28.778112 198.8375L28.856237 198.8375Q29.778112 198.8375 30.512487 199.19687Q31.246862 199.55624 31.668737 200.2125Q32.07499 200.86874 32.07499 201.72812Q32.07499 203.00937 31.184362 203.82187Q30.278112 204.61874 28.793737 204.61874L28.715612 204.61874ZM28.856237 203.525Q29.903112 203.525 30.543737 203.04062Q31.184362 202.54062 31.184362 201.72812Q31.184362 200.9 30.543737 200.41562Q29.887487 199.93124 28.715612 199.93124Q27.684362 199.93124 27.043737 200.43124Q26.387487 200.91562 26.387487 201.74374Q26.387487 202.54062 27.028112 203.04062Q27.653112 203.525 28.856237 203.525ZM31.949987 196.79062L26.449987 196.79062L26.449987 197.79062L25.606237 197.79062L25.606237 196.79062L24.965612 196.79062Q23.934362 196.79062 23.387487 196.25937Q22.824987 195.7125 22.824987 194.7125Q22.824987 194.3375 22.918737 193.9625L23.809362 194.025Q23.746862 194.30624 23.746862 194.60312Q23.746862 195.13437 24.059362 195.43124Q24.371862 195.7125 24.934362 195.7125L25.606237 195.7125L25.606237 194.35312L26.449987 194.35312L26.449987 195.7125L31.949987 195.7125L31.949987 196.79062ZM27.965612 183.60312Q29.215612 183.60312 30.153112 184.025Q31.074987 184.44687 31.574987 185.22812Q32.07499 185.99374 32.07499 187.025Q32.07499 188.025 31.574987 188.80624Q31.074987 189.5875 30.168737 190.025Q29.246862 190.44687 28.028112 190.4625L27.418737 190.4625Q26.184362 190.4625 25.246862 190.04062Q24.309362 189.60312 23.809362 188.82187Q23.293737 188.04062 23.293737 187.025Q23.293737 186.00937 23.793737 185.22812Q24.293737 184.44687 25.231237 184.025Q26.168737 183.60312 27.418737 183.60312L27.965612 183.60312ZM27.403112 184.7125Q25.887487 184.7125 25.074987 185.32187Q24.262487 185.93124 24.262487 187.025Q24.262487 188.10312 25.074987 188.7125Q25.887487 189.32187 27.324987 189.3375L27.965612 189.3375Q29.434362 189.3375 30.278112 188.72812Q31.106237 188.10312 31.106237 187.025Q31.106237 185.93124 30.324987 185.3375Q29.528112 184.72812 28.043737 184.7125L27.403112 184.7125ZM30.449987 176.7125L25.606237 175.49374L25.606237 174.41562L31.949987 176.25937L31.949987 177.13437L27.137487 178.68124L31.949987 180.18124L31.949987 181.05624L25.606237 182.9L25.606237 181.82187L30.356237 180.57187L25.606237 179.0875L25.606237 178.22812L30.449987 176.7125ZM25.606237 172.30624L26.403112 172.275Q25.496862 171.54062 25.496862 170.36874Q25.496862 168.35312 27.762487 168.3375L31.949987 168.3375L31.949987 169.43124L27.746862 169.43124Q27.074987 169.43124 26.746862 169.74374Q26.418737 170.04062 26.418737 170.69687Q26.418737 171.22812 26.699987 171.63437Q26.981237 172.025 27.434362 172.24374L31.949987 172.24374L31.949987 173.32187L25.606237 173.32187L25.606237 172.30624ZM32.07499 163.69687Q32.07499 164.99374 31.231237 165.80624Q30.371862 166.60312 28.949987 166.60312L28.762487 166.60312Q27.809362 166.60312 27.074987 166.24374Q26.324987 165.88437 25.918737 165.24374Q25.496862 164.5875 25.496862 163.8375Q25.496862 162.60312 26.309362 161.91562Q27.121862 161.22812 28.637487 161.22812L29.090612 161.22812L29.090612 165.525Q30.028112 165.49374 30.606237 164.97812Q31.184362 164.44687 31.184362 163.63437Q31.184362 163.07187 30.949987 162.68124Q30.715612 162.275 30.324987 161.9625L30.840612 161.30624Q32.07499 162.10312 32.07499 163.69687ZM26.387487 163.8375Q26.387487 164.49374 26.871862 164.94687Q27.340612 165.38437 28.199987 165.47812L28.199987 162.30624L28.121862 162.30624Q27.293737 162.35312 26.840612 162.75937Q26.387487 163.15 26.387487 163.8375ZM26.574987 157.25937Q26.543737 157.50937 26.543737 157.79062Q26.543737 158.86874 27.449987 159.24374L31.949987 159.24374L31.949987 160.32187L25.606237 160.32187L25.606237 159.275L26.340612 159.25937Q25.496862 158.72812 25.496862 157.74374Q25.496862 157.43124 25.574987 157.25937L26.574987 157.25937ZM30.262487 152.63437Q29.824987 152.63437 29.590612 152.97812Q29.340612 153.30624 29.168737 154.13437Q28.996862 154.94687 28.746862 155.43124Q28.496862 155.91562 28.168737 156.15Q27.824987 156.36874 27.356237 156.36874Q26.574987 156.36874 26.043737 155.7125Q25.496862 155.05624 25.496862 154.025Q25.496862 152.94687 26.059362 152.29062Q26.606237 151.61874 27.465612 151.61874L27.465612 152.69687Q27.028112 152.69687 26.715612 153.0875Q26.387487 153.4625 26.387487 154.025Q26.387487 154.61874 26.653112 154.9625Q26.903112 155.29062 27.309362 155.29062Q27.699987 155.29062 27.903112 154.97812Q28.106237 154.66562 28.293737 153.85312Q28.465612 153.04062 28.715612 152.54062Q28.965612 152.04062 29.324987 151.80624Q29.684362 151.55624 30.184362 151.55624Q31.043737 151.55624 31.559362 152.24374Q32.07499 152.91562 32.07499 153.99374Q32.07499 154.75937 31.809362 155.35312Q31.528112 155.93124 31.043737 156.25937Q30.559362 156.5875 29.996862 156.5875L29.996862 155.50937Q30.543737 155.47812 30.871862 155.07187Q31.184362 154.66562 31.184362 153.99374Q31.184362 153.38437 30.934362 153.00937Q30.684362 152.63437 30.262487 152.63437Z" fill-rule="nonzero"/><path fill="#757575" d="M96.0125 325.90936Q96.0125 327.8156 95.35625 328.7531Q94.71562 329.675 93.325 329.675Q91.96562 329.675 91.30937 328.76874Q90.65312 327.8625 90.62187 326.05L90.62187 324.6125Q90.62187 322.72186 91.2625 321.8156Q91.91875 320.89374 93.30937 320.89374Q94.68437 320.89374 95.34062 321.78436Q95.99687 322.65936 96.0125 324.5031L96.0125 325.90936ZM94.91875 324.425Q94.91875 323.05 94.52812 322.425Q94.15312 321.78436 93.30937 321.78436Q92.48125 321.78436 92.09062 322.425Q91.71562 323.05 91.71562 324.34686L91.71562 326.08124Q91.71562 327.45624 92.10625 328.1281Q92.5125 328.78436 93.325 328.78436Q94.12187 328.78436 94.5125 328.15936Q94.90312 327.53436 94.91875 326.20624L94.91875 324.425Z" fill-rule="nonzero"/><path fill="#757575" d="M61.153126 238.50209L61.590626 234.25209L65.96562 234.25209L65.96562 235.25209L62.5125 235.25209L62.246876 237.58022Q62.8875 237.20522 63.684376 237.20522Q64.84062 237.20522 65.52812 237.98647Q66.21562 238.75209 66.21562 240.06459Q66.21562 241.37709 65.49687 242.14272Q64.79375 242.90834 63.5125 242.90834Q62.3875 242.90834 61.66875 242.28334Q60.95 241.64272 60.85625 240.53334L61.871876 240.53334Q61.98125 241.26772 62.403126 241.64272Q62.825 242.01772 63.5125 242.01772Q64.2625 242.01772 64.7 241.50209Q65.1375 240.98647 65.1375 240.08022Q65.1375 239.22084 64.66875 238.70522Q64.2 238.18959 63.41875 238.18959Q62.715626 238.18959 62.309376 238.48647L62.028126 238.72084L61.153126 238.50209ZM73.0125 239.14272Q73.0125 241.04897 72.35625 241.98647Q71.71562 242.90834 70.325 242.90834Q68.96562 242.90834 68.30937 242.00209Q67.65312 241.09584 67.62187 239.28334L67.62187 237.84584Q67.62187 235.95522 68.2625 235.04897Q68.91875 234.12709 70.30937 234.12709Q71.68437 234.12709 72.34062 235.01772Q72.99687 235.89272 73.0125 237.73647L73.0125 239.14272ZM71.91875 237.65834Q71.91875 236.28334 71.52812 235.65834Q71.15312 235.01772 70.30937 235.01772Q69.48125 235.01772 69.09062 235.65834Q68.71562 236.28334 68.71562 237.58022L68.71562 239.31459Q68.71562 240.68959 69.10625 241.36147Q69.5125 242.01772 70.325 242.01772Q71.12187 242.01772 71.5125 241.39272Q71.90312 240.76772 71.91875 239.43959L71.91875 237.65834ZM74.73125 244.48647L74.12187 244.06459Q74.66875 243.29897 74.7 242.47084L74.7 241.50209L75.7625 241.50209L75.7625 242.34584Q75.7625 242.93959 75.46562 243.53334Q75.16875 244.12709 74.73125 244.48647ZM82.0125 239.14272Q82.0125 241.04897 81.35625 241.98647Q80.71562 242.90834 79.325 242.90834Q77.96562 242.90834 77.30937 242.00209Q76.65312 241.09584 76.62187 239.28334L76.62187 237.84584Q76.62187 235.95522 77.2625 235.04897Q77.91875 234.12709 79.30937 234.12709Q80.68437 234.12709 81.34062 235.01772Q81.99687 235.89272 82.0125 237.73647L82.0125 239.14272ZM80.91875 237.65834Q80.91875 236.28334 80.52812 235.65834Q80.15312 235.01772 79.30937 235.01772Q78.48125 235.01772 78.09062 235.65834Q77.71562 236.28334 77.71562 237.58022L77.71562 239.31459Q77.71562 240.68959 78.10625 241.36147Q78.5125 242.01772 79.325 242.01772Q80.12187 242.01772 80.5125 241.39272Q80.90312 240.76772 80.91875 239.43959L80.91875 237.65834ZM89.0125 239.14272Q89.0125 241.04897 88.35625 241.98647Q87.71562 242.90834 86.325 242.90834Q84.96562 242.90834 84.30937 242.00209Q83.65312 241.09584 83.62187 239.28334L83.62187 237.84584Q83.62187 235.95522 84.2625 235.04897Q84.91875 234.12709 86.30937 234.12709Q87.68437 234.12709 88.34062 235.01772Q88.99687 235.89272 89.0125 237.73647L89.0125 239.14272ZM87.91875 237.65834Q87.91875 236.28334 87.52812 235.65834Q87.15312 235.01772 86.30937 235.01772Q85.48125 235.01772 85.09062 235.65834Q84.71562 236.28334 84.71562 237.58022L84.71562 239.31459Q84.71562 240.68959 85.10625 241.36147Q85.5125 242.01772 86.325 242.01772Q87.12187 242.01772 87.5125 241.39272Q87.90312 240.76772 87.91875 239.43959L87.91875 237.65834ZM96.0125 239.14272Q96.0125 241.04897 95.35625 241.98647Q94.71562 242.90834 93.325 242.90834Q91.96562 242.90834 91.30937 242.00209Q90.65312 241.09584 90.62187 239.28334L90.62187 237.84584Q90.62187 235.95522 91.2625 235.04897Q91.91875 234.12709 93.30937 234.12709Q94.68437 234.12709 95.34062 235.01772Q95.99687 235.89272 96.0125 237.73647L96.0125 239.14272ZM94.91875 237.65834Q94.91875 236.28334 94.52812 235.65834Q94.15312 235.01772 93.30937 235.01772Q92.48125 235.01772 92.09062 235.65834Q91.71562 236.28334 91.71562 237.58022L91.71562 239.31459Q91.71562 240.68959 92.10625 241.36147Q92.5125 242.01772 93.325 242.01772Q94.12187 242.01772 94.5125 241.39272Q94.90312 240.76772 94.91875 239.43959L94.91875 237.65834Z" fill-rule="nonzero"/><path fill="#757575" d="M57.215626 156.01666L56.1375 156.01666L56.1375 148.79791L53.95 149.59479L53.95 148.61041L57.059376 147.43854L57.215626 147.43854L57.215626 156.01666ZM66.0125 152.37604Q66.0125 154.28229 65.35625 155.21979Q64.71562 156.14166 63.325 156.14166Q61.965626 156.14166 61.309376 155.23541Q60.653126 154.32916 60.621876 152.51666L60.621876 151.07916Q60.621876 149.18854 61.2625 148.28229Q61.91875 147.36041 63.309376 147.36041Q64.68437 147.36041 65.34062 148.25104Q65.99687 149.12604 66.0125 150.96979L66.0125 152.37604ZM64.91875 150.89166Q64.91875 149.51666 64.52812 148.89166Q64.15312 148.25104 63.309376 148.25104Q62.48125 148.25104 62.090626 148.89166Q61.715626 149.51666 61.715626 150.81354L61.715626 152.54791Q61.715626 153.92291 62.10625 154.59479Q62.5125 155.25104 63.325 155.25104Q64.12187 155.25104 64.5125 154.62604Q64.90312 154.00104 64.91875 152.67291L64.91875 150.89166ZM73.0125 152.37604Q73.0125 154.28229 72.35625 155.21979Q71.71562 156.14166 70.325 156.14166Q68.96562 156.14166 68.30937 155.23541Q67.65312 154.32916 67.62187 152.51666L67.62187 151.07916Q67.62187 149.18854 68.2625 148.28229Q68.91875 147.36041 70.30937 147.36041Q71.68437 147.36041 72.34062 148.25104Q72.99687 149.12604 73.0125 150.96979L73.0125 152.37604ZM71.91875 150.89166Q71.91875 149.51666 71.52812 148.89166Q71.15312 148.25104 70.30937 148.25104Q69.48125 148.25104 69.09062 148.89166Q68.71562 149.51666 68.71562 150.81354L68.71562 152.54791Q68.71562 153.92291 69.10625 154.59479Q69.5125 155.25104 70.325 155.25104Q71.12187 155.25104 71.5125 154.62604Q71.90312 154.00104 71.91875 152.67291L71.91875 150.89166ZM74.73125 157.71979L74.12187 157.29791Q74.66875 156.53229 74.7 155.70416L74.7 154.73541L75.7625 154.73541L75.7625 155.57916Q75.7625 156.17291 75.46562 156.76666Q75.16875 157.36041 74.73125 157.71979ZM82.0125 152.37604Q82.0125 154.28229 81.35625 155.21979Q80.71562 156.14166 79.325 156.14166Q77.96562 156.14166 77.30937 155.23541Q76.65312 154.32916 76.62187 152.51666L76.62187 151.07916Q76.62187 149.18854 77.2625 148.28229Q77.91875 147.36041 79.30937 147.36041Q80.68437 147.36041 81.34062 148.25104Q81.99687 149.12604 82.0125 150.96979L82.0125 152.37604ZM80.91875 150.89166Q80.91875 149.51666 80.52812 148.89166Q80.15312 148.25104 79.30937 148.25104Q78.48125 148.25104 78.09062 148.89166Q77.71562 149.51666 77.71562 150.81354L77.71562 152.54791Q77.71562 153.92291 78.10625 154.59479Q78.5125 155.25104 79.325 155.25104Q80.12187 155.25104 80.5125 154.62604Q80.90312 154.00104 80.91875 152.67291L80.91875 150.89166ZM89.0125 152.37604Q89.0125 154.28229 88.35625 155.21979Q87.71562 156.14166 86.325 156.14166Q84.96562 156.14166 84.30937 155.23541Q83.65312 154.32916 83.62187 152.51666L83.62187 151.07916Q83.62187 149.18854 84.2625 148.28229Q84.91875 147.36041 86.30937 147.36041Q87.68437 147.36041 88.34062 148.25104Q88.99687 149.12604 89.0125 150.96979L89.0125 152.37604ZM87.91875 150.89166Q87.91875 149.51666 87.52812 148.89166Q87.15312 148.25104 86.30937 148.25104Q85.48125 148.25104 85.09062 148.89166Q84.71562 149.51666 84.71562 150.81354L84.71562 152.54791Q84.71562 153.92291 85.10625 154.59479Q85.5125 155.25104 86.325 155.25104Q87.12187 155.25104 87.5125 154.62604Q87.90312 154.00104 87.91875 152.67291L87.91875 150.89166ZM96.0125 152.37604Q96.0125 154.28229 95.35625 155.21979Q94.71562 156.14166 93.325 156.14166Q91.96562 156.14166 91.30937 155.23541Q90.65312 154.32916 90.62187 152.51666L90.62187 151.07916Q90.62187 149.18854 91.2625 148.28229Q91.91875 147.36041 93.30937 147.36041Q94.68437 147.36041 95.34062 148.25104Q95.99687 149.12604 96.0125 150.96979L96.0125 152.37604ZM94.91875 150.89166Q94.91875 149.51666 94.52812 148.89166Q94.15312 148.25104 93.30937 148.25104Q92.48125 148.25104 92.09062 148.89166Q91.71562 149.51666 91.71562 150.81354L91.71562 152.54791Q91.71562 153.92291 92.10625 154.59479Q92.5125 155.25104 93.325 155.25104Q94.12187 155.25104 94.5125 154.62604Q94.90312 154.00104 94.91875 152.67291L94.91875 150.89166Z" fill-rule="nonzero"/><path fill="#757575" d="M57.215626 69.25L56.1375 69.25L56.1375 62.03125L53.95 62.828125L53.95 61.84375L57.059376 60.671875L57.215626 60.671875L57.215626 69.25ZM61.153126 64.96875L61.590626 60.71875L65.96562 60.71875L65.96562 61.71875L62.5125 61.71875L62.246876 64.046875Q62.8875 63.671875 63.684376 63.671875Q64.84062 63.671875 65.52812 64.453125Q66.21562 65.21875 66.21562 66.53125Q66.21562 67.84375 65.49687 68.609375Q64.79375 69.375 63.5125 69.375Q62.3875 69.375 61.66875 68.75Q60.95 68.109375 60.85625 67.0L61.871876 67.0Q61.98125 67.734375 62.403126 68.109375Q62.825 68.484375 63.5125 68.484375Q64.2625 68.484375 64.7 67.96875Q65.1375 67.453125 65.1375 66.546875Q65.1375 65.6875 64.66875 65.171875Q64.2 64.65625 63.41875 64.65625Q62.715626 64.65625 62.309376 64.953125L62.028126 65.1875L61.153126 64.96875ZM73.0125 65.609375Q73.0125 67.515625 72.35625 68.453125Q71.71562 69.375 70.325 69.375Q68.96562 69.375 68.30937 68.46875Q67.65312 67.5625 67.62187 65.75L67.62187 64.3125Q67.62187 62.421875 68.2625 61.515625Q68.91875 60.59375 70.30937 60.59375Q71.68437 60.59375 72.34062 61.484375Q72.99687 62.359375 73.0125 64.203125L73.0125 65.609375ZM71.91875 64.125Q71.91875 62.75 71.52812 62.125Q71.15312 61.484375 70.30937 61.484375Q69.48125 61.484375 69.09062 62.125Q68.71562 62.75 68.71562 64.046875L68.71562 65.78125Q68.71562 67.15625 69.10625 67.828125Q69.5125 68.484375 70.325 68.484375Q71.12187 68.484375 71.5125 67.859375Q71.90312 67.234375 71.91875 65.90625L71.91875 64.125ZM74.73125 70.953125L74.12187 70.53125Q74.66875 69.765625 74.7 68.9375L74.7 67.96875L75.7625 67.96875L75.7625 68.8125Q75.7625 69.40625 75.46562 70.0Q75.16875 70.59375 74.73125 70.953125ZM82.0125 65.609375Q82.0125 67.515625 81.35625 68.453125Q80.71562 69.375 79.325 69.375Q77.96562 69.375 77.30937 68.46875Q76.65312 67.5625 76.62187 65.75L76.62187 64.3125Q76.62187 62.421875 77.2625 61.515625Q77.91875 60.59375 79.30937 60.59375Q80.68437 60.59375 81.34062 61.484375Q81.99687 62.359375 82.0125 64.203125L82.0125 65.609375ZM80.91875 64.125Q80.91875 62.75 80.52812 62.125Q80.15312 61.484375 79.30937 61.484375Q78.48125 61.484375 78.09062 62.125Q77.71562 62.75 77.71562 64.046875L77.71562 65.78125Q77.71562 67.15625 78.10625 67.828125Q78.5125 68.484375 79.325 68.484375Q80.12187 68.484375 80.5125 67.859375Q80.90312 67.234375 80.91875 65.90625L80.91875 64.125ZM89.0125 65.609375Q89.0125 67.515625 88.35625 68.453125Q87.71562 69.375 86.325 69.375Q84.96562 69.375 84.30937 68.46875Q83.65312 67.5625 83.62187 65.75L83.62187 64.3125Q83.62187 62.421875 84.2625 61.515625Q84.91875 60.59375 86.30937 60.59375Q87.68437 60.59375 88.34062 61.484375Q88.99687 62.359375 89.0125 64.203125L89.0125 65.609375ZM87.91875 64.125Q87.91875 62.75 87.52812 62.125Q87.15312 61.484375 86.30937 61.484375Q85.48125 61.484375 85.09062 62.125Q84.71562 62.75 84.71562 64.046875L84.71562 65.78125Q84.71562 67.15625 85.10625 67.828125Q85.5125 68.484375 86.325 68.484375Q87.12187 68.484375 87.5125 67.859375Q87.90312 67.234375 87.91875 65.90625L87.91875 64.125ZM96.0125 65.609375Q96.0125 67.515625 95.35625 68.453125Q94.71562 69.375 93.325 69.375Q91.96562 69.375 91.30937 68.46875Q90.65312 67.5625 90.62187 65.75L90.62187 64.3125Q90.62187 62.421875 91.2625 61.515625Q91.91875 60.59375 93.30937 60.59375Q94.68437 60.59375 95.34062 61.484375Q95.99687 62.359375 96.0125 64.203125L96.0125 65.609375ZM94.91875 64.125Q94.91875 62.75 94.52812 62.125Q94.15312 61.484375 93.30937 61.484375Q92.48125 61.484375 92.09062 62.125Q91.71562 62.75 91.71562 64.046875L91.71562 65.78125Q91.71562 67.15625 92.10625 67.828125Q92.5125 68.484375 93.325 68.484375Q94.12187 68.484375 94.5125 67.859375Q94.90312 67.234375 94.91875 65.90625L94.91875 64.125Z" fill-rule="nonzero"/><path fill="#757575" d="M133.43965 340.8156L129.86153 340.8156L129.06465 343.05L127.9084 343.05L131.1584 334.51874L132.14278 334.51874L135.4084 343.05L134.25215 343.05L133.43965 340.8156ZM130.20528 339.89374L133.11153 339.89374L131.6584 335.90936L130.20528 339.89374ZM139.0959 342.28436Q139.67403 342.28436 140.11153 341.9406Q140.54903 341.58124 140.5959 341.05L141.62715 341.05Q141.5959 341.59686 141.23653 342.09686Q140.89278 342.58124 140.31465 342.8781Q139.75215 343.175 139.0959 343.175Q137.79903 343.175 137.0334 342.3156Q136.2834 341.4406 136.2834 339.9406L136.2834 339.7531Q136.2834 338.83124 136.61153 338.1125Q136.95528 337.39374 137.58028 337.0031Q138.2209 336.59686 139.0959 336.59686Q140.1584 336.59686 140.86153 337.2375Q141.58028 337.8625 141.62715 338.89374L140.5959 338.89374Q140.54903 338.26874 140.12715 337.8781Q139.70528 337.4875 139.0959 337.4875Q138.26778 337.4875 137.81465 338.08124Q137.36153 338.675 137.36153 339.8L137.36153 340.0031Q137.36153 341.09686 137.81465 341.6906Q138.26778 342.28436 139.0959 342.28436ZM144.0334 335.175L144.0334 336.70624L145.20528 336.70624L145.20528 337.55L144.0334 337.55L144.0334 341.47186Q144.0334 341.8625 144.18965 342.05Q144.3459 342.2375 144.7209 342.2375Q144.9084 342.2375 145.23653 342.175L145.23653 343.05Q144.81465 343.175 144.4084 343.175Q143.68965 343.175 143.31465 342.7375Q142.93965 342.28436 142.93965 341.47186L142.93965 337.55L141.7834 337.55L141.7834 336.70624L142.93965 336.70624L142.93965 335.175L144.0334 335.175ZM147.73653 343.05L146.6584 343.05L146.6584 336.70624L147.73653 336.70624L147.73653 343.05ZM146.56465 335.03436Q146.56465 334.76874 146.7209 334.58124Q146.89278 334.39374 147.20528 334.39374Q147.51778 334.39374 147.67403 334.58124Q147.8459 334.76874 147.8459 335.03436Q147.8459 335.28436 147.67403 335.47186Q147.51778 335.64374 147.20528 335.64374Q146.89278 335.64374 146.7209 335.47186Q146.56465 335.28436 146.56465 335.03436ZM149.26778 339.8156Q149.26778 338.89374 149.62715 338.14374Q150.00215 337.39374 150.6584 337.0031Q151.31465 336.59686 152.14278 336.59686Q153.43965 336.59686 154.23653 337.4875Q155.04903 338.3781 155.04903 339.8781L155.04903 339.95624Q155.04903 340.8781 154.68965 341.6125Q154.33028 342.34686 153.67403 342.76874Q153.01778 343.175 152.1584 343.175Q150.87715 343.175 150.06465 342.28436Q149.26778 341.3781 149.26778 339.89374L149.26778 339.8156ZM150.36153 339.95624Q150.36153 341.0031 150.8459 341.64374Q151.3459 342.28436 152.1584 342.28436Q152.98653 342.28436 153.4709 341.64374Q153.95528 340.9875 153.95528 339.8156Q153.95528 338.78436 153.45528 338.14374Q152.9709 337.4875 152.14278 337.4875Q151.3459 337.4875 150.8459 338.1281Q150.36153 338.7531 150.36153 339.95624ZM157.58028 336.70624L157.61153 337.5031Q158.3459 336.59686 159.51778 336.59686Q161.5334 336.59686 161.54903 338.8625L161.54903 343.05L160.45528 343.05L160.45528 338.84686Q160.45528 338.175 160.14278 337.84686Q159.8459 337.51874 159.18965 337.51874Q158.6584 337.51874 158.25215 337.8Q157.86153 338.08124 157.64278 338.53436L157.64278 343.05L156.56465 343.05L156.56465 336.70624L157.58028 336.70624Z" fill-rule="nonzero"/><path fill="#757575" d="M186.08636 340.8156L182.50824 340.8156L181.71136 343.05L180.55511 343.05L183.80511 334.51874L184.78949 334.51874L188.05511 343.05L186.89886 343.05L186.08636 340.8156ZM182.85199 339.89374L185.75824 339.89374L184.30511 335.90936L182.85199 339.89374ZM188.94574 339.83124Q188.94574 338.3625 189.63324 337.4875Q190.32074 336.59686 191.44574 336.59686Q192.55511 336.59686 193.21136 337.34686L193.21136 334.05L194.28949 334.05L194.28949 343.05L193.28949 343.05L193.24261 342.3625Q192.58636 343.175 191.43011 343.175Q190.33636 343.175 189.63324 342.26874Q188.94574 341.3625 188.94574 339.90936L188.94574 339.83124ZM190.02386 339.95624Q190.02386 341.03436 190.46136 341.64374Q190.91449 342.2531 191.69574 342.2531Q192.72699 342.2531 193.21136 341.3156L193.21136 338.40936Q192.72699 337.51874 191.71136 337.51874Q190.91449 337.51874 190.46136 338.1281Q190.02386 338.7375 190.02386 339.95624ZM198.28949 341.58124L199.86761 336.70624L200.97699 336.70624L198.69574 343.05L197.86761 343.05L195.57074 336.70624L196.68011 336.70624L198.28949 341.58124ZM204.83636 343.175Q203.53949 343.175 202.72699 342.33124Q201.93011 341.47186 201.93011 340.05L201.93011 339.8625Q201.93011 338.90936 202.28949 338.175Q202.64886 337.425 203.28949 337.01874Q203.94574 336.59686 204.69574 336.59686Q205.93011 336.59686 206.61761 337.40936Q207.30511 338.22186 207.30511 339.7375L207.30511 340.1906L203.00824 340.1906Q203.03949 341.1281 203.55511 341.70624Q204.08636 342.28436 204.89886 342.28436Q205.46136 342.28436 205.85199 342.05Q206.25824 341.8156 206.57074 341.425L207.22699 341.9406Q206.43011 343.175 204.83636 343.175ZM204.69574 337.4875Q204.03949 337.4875 203.58636 337.97186Q203.14886 338.4406 203.05511 339.3L206.22699 339.3L206.22699 339.22186Q206.18011 338.39374 205.77386 337.9406Q205.38324 337.4875 204.69574 337.4875ZM209.22699 336.70624L209.25824 337.5031Q209.99261 336.59686 211.16449 336.59686Q213.18011 336.59686 213.19574 338.8625L213.19574 343.05L212.10199 343.05L212.10199 338.84686Q212.10199 338.175 211.78949 337.84686Q211.49261 337.51874 210.83636 337.51874Q210.30511 337.51874 209.89886 337.8Q209.50824 338.08124 209.28949 338.53436L209.28949 343.05L208.21136 343.05L208.21136 336.70624L209.22699 336.70624ZM216.68011 335.175L216.68011 336.70624L217.85199 336.70624L217.85199 337.55L216.68011 337.55L216.68011 341.47186Q216.68011 341.8625 216.83636 342.05Q216.99261 342.2375 217.36761 342.2375Q217.55511 342.2375 217.88324 342.175L217.88324 343.05Q217.46136 343.175 217.05511 343.175Q216.33636 343.175 215.96136 342.7375Q215.58636 342.28436 215.58636 341.47186L215.58636 337.55L214.43011 337.55L214.43011 336.70624L215.58636 336.70624L215.58636 335.175L216.68011 335.175ZM223.11761 342.425Q222.49261 343.175 221.25824 343.175Q220.24261 343.175 219.71136 342.58124Q219.18011 341.9875 219.18011 340.83124L219.18011 336.70624L220.25824 336.70624L220.25824 340.8Q220.25824 342.2531 221.43011 342.2531Q222.68011 342.2531 223.08636 341.3156L223.08636 336.70624L224.18011 336.70624L224.18011 343.05L223.14886 343.05L223.11761 342.425ZM229.27386 337.675Q229.02386 337.64374 228.74261 337.64374Q227.66449 337.64374 227.28949 338.55L227.28949 343.05L226.21136 343.05L226.21136 336.70624L227.25824 336.70624L227.27386 337.4406Q227.80511 336.59686 228.78949 336.59686Q229.10199 336.59686 229.27386 336.675L229.27386 337.675ZM232.83636 343.175Q231.53949 343.175 230.72699 342.33124Q229.93011 341.47186 229.93011 340.05L229.93011 339.8625Q229.93011 338.90936 230.28949 338.175Q230.64886 337.425 231.28949 337.01874Q231.94574 336.59686 232.69574 336.59686Q233.93011 336.59686 234.61761 337.40936Q235.30511 338.22186 235.30511 339.7375L235.30511 340.1906L231.00824 340.1906Q231.03949 341.1281 231.55511 341.70624Q232.08636 342.28436 232.89886 342.28436Q233.46136 342.28436 233.85199 342.05Q234.25824 341.8156 234.57074 341.425L235.22699 341.9406Q234.43011 343.175 232.83636 343.175ZM232.69574 337.4875Q232.03949 337.4875 231.58636 337.97186Q231.14886 338.4406 231.05511 339.3L234.22699 339.3L234.22699 339.22186Q234.18011 338.39374 233.77386 337.9406Q233.38324 337.4875 232.69574 337.4875Z" fill-rule="nonzero"/><path fill="#757575" d="M258.79556 340.34686Q258.6393 341.6906 257.79556 342.4406Q256.9518 343.175 255.56119 343.175Q254.04556 343.175 253.13931 342.09686Q252.23306 341.0031 252.23306 339.175L252.23306 338.3625Q252.23306 337.175 252.65494 336.26874Q253.07681 335.3625 253.85806 334.8781Q254.63931 334.39374 255.65494 334.39374Q257.0143 334.39374 257.8268 335.15936Q258.65494 335.925 258.79556 337.2531L257.67056 337.2531Q257.5143 336.2375 257.02994 335.78436Q256.54556 335.33124 255.65494 335.33124Q254.57681 335.33124 253.96744 336.1281Q253.35806 336.925 253.35806 338.39374L253.35806 339.22186Q253.35806 340.6125 253.93619 341.4406Q254.51431 342.2531 255.56119 342.2531Q256.4987 342.2531 256.9987 341.83124Q257.4987 341.39374 257.67056 340.34686L258.79556 340.34686ZM264.2643 343.05Q264.17056 342.8625 264.10806 342.3781Q263.35806 343.175 262.3112 343.175Q261.3737 343.175 260.7643 342.64374Q260.17056 342.1125 260.17056 341.28436Q260.17056 340.3 260.92056 339.7531Q261.67056 339.20624 263.04556 339.20624L264.09244 339.20624L264.09244 338.70624Q264.09244 338.14374 263.7487 337.8156Q263.42056 337.47186 262.7487 337.47186Q262.17056 337.47186 261.77994 337.76874Q261.3893 338.05 261.3893 338.47186L260.29556 338.47186Q260.29556 337.9875 260.6237 337.55Q260.96744 337.1125 261.54556 336.8625Q262.1237 336.59686 262.8112 336.59686Q263.92056 336.59686 264.52994 337.14374Q265.15494 337.6906 265.1862 338.64374L265.1862 341.5656Q265.1862 342.4406 265.40494 342.95624L265.40494 343.05L264.2643 343.05ZM262.46744 342.22186Q262.98306 342.22186 263.4362 341.95624Q263.8893 341.6906 264.09244 341.26874L264.09244 339.97186L263.2487 339.97186Q261.2487 339.97186 261.2487 341.14374Q261.2487 341.64374 261.59244 341.9406Q261.9362 342.22186 262.46744 342.22186ZM271.04556 341.3625Q271.04556 340.925 270.7018 340.6906Q270.3737 340.4406 269.54556 340.26874Q268.73306 340.09686 268.2487 339.84686Q267.7643 339.59686 267.52994 339.26874Q267.3112 338.925 267.3112 338.45624Q267.3112 337.675 267.96744 337.14374Q268.6237 336.59686 269.65494 336.59686Q270.73306 336.59686 271.3893 337.15936Q272.0612 337.70624 272.0612 338.5656L270.98306 338.5656Q270.98306 338.1281 270.59244 337.8156Q270.21744 337.4875 269.65494 337.4875Q269.0612 337.4875 268.71744 337.7531Q268.3893 338.0031 268.3893 338.40936Q268.3893 338.8 268.7018 339.0031Q269.0143 339.20624 269.8268 339.39374Q270.6393 339.5656 271.1393 339.8156Q271.6393 340.0656 271.8737 340.425Q272.1237 340.78436 272.1237 341.28436Q272.1237 342.14374 271.4362 342.65936Q270.7643 343.175 269.6862 343.175Q268.92056 343.175 268.3268 342.90936Q267.7487 342.6281 267.42056 342.14374Q267.09244 341.65936 267.09244 341.09686L268.17056 341.09686Q268.2018 341.64374 268.60806 341.97186Q269.0143 342.28436 269.6862 342.28436Q270.29556 342.28436 270.67056 342.03436Q271.04556 341.78436 271.04556 341.3625ZM277.2643 342.425Q276.6393 343.175 275.40494 343.175Q274.3893 343.175 273.85806 342.58124Q273.3268 341.9875 273.3268 340.83124L273.3268 336.70624L274.40494 336.70624L274.40494 340.8Q274.40494 342.2531 275.5768 342.2531Q276.8268 342.2531 277.23306 341.3156L277.23306 336.70624L278.3268 336.70624L278.3268 343.05L277.29556 343.05L277.2643 342.425ZM284.2643 343.05Q284.17056 342.8625 284.10806 342.3781Q283.35806 343.175 282.3112 343.175Q281.3737 343.175 280.7643 342.64374Q280.17056 342.1125 280.17056 341.28436Q280.17056 340.3 280.92056 339.7531Q281.67056 339.20624 283.04556 339.20624L284.09244 339.20624L284.09244 338.70624Q284.09244 338.14374 283.7487 337.8156Q283.42056 337.47186 282.7487 337.47186Q282.17056 337.47186 281.77994 337.76874Q281.3893 338.05 281.3893 338.47186L280.29556 338.47186Q280.29556 337.9875 280.6237 337.55Q280.96744 337.1125 281.54556 336.8625Q282.1237 336.59686 282.8112 336.59686Q283.92056 336.59686 284.52994 337.14374Q285.15494 337.6906 285.1862 338.64374L285.1862 341.5656Q285.1862 342.4406 285.40494 342.95624L285.40494 343.05L284.2643 343.05ZM282.46744 342.22186Q282.98306 342.22186 283.4362 341.95624Q283.8893 341.6906 284.09244 341.26874L284.09244 339.97186L283.2487 339.97186Q281.2487 339.97186 281.2487 341.14374Q281.2487 341.64374 281.59244 341.9406Q281.9362 342.22186 282.46744 342.22186ZM288.52994 343.05L287.4518 343.05L287.4518 334.05L288.52994 334.05L288.52994 343.05Z" fill-rule="nonzero"/><path fill="#757575" d="M322.37976 343.05L321.25476 343.05L321.25476 334.51874L322.37976 334.51874L322.37976 343.05ZM325.0204 336.70624L325.05164 337.5031Q325.786 336.59686 326.9579 336.59686Q328.9735 336.59686 328.98914 338.8625L328.98914 343.05L327.8954 343.05L327.8954 338.84686Q327.8954 338.175 327.5829 337.84686Q327.286 337.51874 326.62976 337.51874Q326.0985 337.51874 325.69226 337.8Q325.30164 338.08124 325.0829 338.53436L325.0829 343.05L324.00476 343.05L324.00476 336.70624L325.0204 336.70624ZM330.73914 339.83124Q330.73914 338.3625 331.42664 337.4875Q332.11414 336.59686 333.23914 336.59686Q334.3485 336.59686 335.00476 337.34686L335.00476 334.05L336.0829 334.05L336.0829 343.05L335.0829 343.05L335.036 342.3625Q334.37976 343.175 333.2235 343.175Q332.12976 343.175 331.42664 342.26874Q330.73914 341.3625 330.73914 339.90936L330.73914 339.83124ZM331.81726 339.95624Q331.81726 341.03436 332.25476 341.64374Q332.7079 342.2531 333.48914 342.2531Q334.5204 342.2531 335.00476 341.3156L335.00476 338.40936Q334.5204 337.51874 333.50476 337.51874Q332.7079 337.51874 332.25476 338.1281Q331.81726 338.7375 331.81726 339.95624ZM339.17664 343.05L338.0985 343.05L338.0985 336.70624L339.17664 336.70624L339.17664 343.05ZM338.00476 335.03436Q338.00476 334.76874 338.161 334.58124Q338.3329 334.39374 338.6454 334.39374Q338.9579 334.39374 339.11414 334.58124Q339.286 334.76874 339.286 335.03436Q339.286 335.28436 339.11414 335.47186Q338.9579 335.64374 338.6454 335.64374Q338.3329 335.64374 338.161 335.47186Q338.00476 335.28436 338.00476 335.03436ZM343.62976 343.175Q342.3329 343.175 341.5204 342.33124Q340.7235 341.47186 340.7235 340.05L340.7235 339.8625Q340.7235 338.90936 341.0829 338.175Q341.44226 337.425 342.0829 337.01874Q342.73914 336.59686 343.48914 336.59686Q344.7235 336.59686 345.411 337.40936Q346.0985 338.22186 346.0985 339.7375L346.0985 340.1906L341.80164 340.1906Q341.8329 341.1281 342.3485 341.70624Q342.87976 342.28436 343.69226 342.28436Q344.25476 342.28436 344.6454 342.05Q345.05164 341.8156 345.36414 341.425L346.0204 341.9406Q345.2235 343.175 343.62976 343.175ZM343.48914 337.4875Q342.8329 337.4875 342.37976 337.97186Q341.94226 338.4406 341.8485 339.3L345.0204 339.3L345.0204 339.22186Q344.9735 338.39374 344.56726 337.9406Q344.17664 337.4875 343.48914 337.4875Z" fill-rule="nonzero"/><path fill="#757575" d="M381.44836 339.59686L379.43274 339.59686L379.43274 343.05L378.30774 343.05L378.30774 334.51874L381.13586 334.51874Q382.57336 334.51874 383.339 335.175Q384.12024 335.83124 384.12024 337.08124Q384.12024 337.8781 383.68274 338.47186Q383.26086 339.0656 382.49524 339.3625L384.49524 342.97186L384.49524 343.05L383.2921 343.05L381.44836 339.59686ZM379.43274 338.675L381.1671 338.675Q382.01086 338.675 382.49524 338.2531Q382.99524 337.8156 382.99524 337.08124Q382.99524 336.3 382.5265 335.8781Q382.05774 335.45624 381.1671 335.4406L379.43274 335.4406L379.43274 338.675ZM389.05774 343.05Q388.964 342.8625 388.9015 342.3781Q388.1515 343.175 387.1046 343.175Q386.1671 343.175 385.55774 342.64374Q384.964 342.1125 384.964 341.28436Q384.964 340.3 385.714 339.7531Q386.464 339.20624 387.839 339.20624L388.88586 339.20624L388.88586 338.70624Q388.88586 338.14374 388.5421 337.8156Q388.214 337.47186 387.5421 337.47186Q386.964 337.47186 386.57336 337.76874Q386.18274 338.05 386.18274 338.47186L385.089 338.47186Q385.089 337.9875 385.4171 337.55Q385.76086 337.1125 386.339 336.8625Q386.9171 336.59686 387.6046 336.59686Q388.714 336.59686 389.32336 337.14374Q389.94836 337.6906 389.9796 338.64374L389.9796 341.5656Q389.9796 342.4406 390.19836 342.95624L390.19836 343.05L389.05774 343.05ZM387.26086 342.22186Q387.7765 342.22186 388.2296 341.95624Q388.68274 341.6906 388.88586 341.26874L388.88586 339.97186L388.0421 339.97186Q386.0421 339.97186 386.0421 341.14374Q386.0421 341.64374 386.38586 341.9406Q386.7296 342.22186 387.26086 342.22186ZM394.68274 342.28436Q395.26086 342.28436 395.69836 341.9406Q396.13586 341.58124 396.18274 341.05L397.214 341.05Q397.18274 341.59686 396.82336 342.09686Q396.4796 342.58124 395.9015 342.8781Q395.339 343.175 394.68274 343.175Q393.38586 343.175 392.62024 342.3156Q391.87024 341.4406 391.87024 339.9406L391.87024 339.7531Q391.87024 338.83124 392.19836 338.1125Q392.5421 337.39374 393.1671 337.0031Q393.80774 336.59686 394.68274 336.59686Q395.74524 336.59686 396.44836 337.2375Q397.1671 337.8625 397.214 338.89374L396.18274 338.89374Q396.13586 338.26874 395.714 337.8781Q395.2921 337.4875 394.68274 337.4875Q393.8546 337.4875 393.4015 338.08124Q392.94836 338.675 392.94836 339.8L392.94836 340.0031Q392.94836 341.09686 393.4015 341.6906Q393.8546 342.28436 394.68274 342.28436ZM399.32336 343.05L398.24524 343.05L398.24524 336.70624L399.32336 336.70624L399.32336 343.05ZM398.1515 335.03436Q398.1515 334.76874 398.30774 334.58124Q398.4796 334.39374 398.7921 334.39374Q399.1046 334.39374 399.26086 334.58124Q399.43274 334.76874 399.43274 335.03436Q399.43274 335.28436 399.26086 335.47186Q399.1046 335.64374 398.7921 335.64374Q398.4796 335.64374 398.30774 335.47186Q398.1515 335.28436 398.1515 335.03436ZM402.1671 336.70624L402.19836 337.5031Q402.93274 336.59686 404.1046 336.59686Q406.12024 336.59686 406.13586 338.8625L406.13586 343.05L405.0421 343.05L405.0421 338.84686Q405.0421 338.175 404.7296 337.84686Q404.43274 337.51874 403.7765 337.51874Q403.24524 337.51874 402.839 337.8Q402.44836 338.08124 402.2296 338.53436L402.2296 343.05L401.1515 343.05L401.1515 336.70624L402.1671 336.70624ZM407.88586 339.83124Q407.88586 338.34686 408.57336 337.47186Q409.26086 336.59686 410.38586 336.59686Q411.5421 336.59686 412.19836 337.40936L412.24524 336.70624L413.24524 336.70624L413.24524 342.89374Q413.24524 344.1281 412.51086 344.83124Q411.7765 345.55 410.55774 345.55Q409.87024 345.55 409.214 345.2531Q408.55774 344.95624 408.214 344.45624L408.7765 343.8Q409.464 344.65936 410.4796 344.65936Q411.26086 344.65936 411.69836 344.20624Q412.1515 343.76874 412.1515 342.95624L412.1515 342.40936Q411.49524 343.175 410.37024 343.175Q409.26086 343.175 408.57336 342.28436Q407.88586 341.3781 407.88586 339.83124ZM408.9796 339.95624Q408.9796 341.01874 409.4171 341.64374Q409.8546 342.2531 410.6515 342.2531Q411.6671 342.2531 412.1515 341.3156L412.1515 338.425Q411.6515 337.51874 410.6515 337.51874Q409.87024 337.51874 409.4171 338.1281Q408.9796 338.7375 408.9796 339.95624Z" fill-rule="nonzero"/><path fill="#757575" d="M451.09506 339.59686L449.07944 339.59686L449.07944 343.05L447.95444 343.05L447.95444 334.51874L450.78256 334.51874Q452.22006 334.51874 452.9857 335.175Q453.76694 335.83124 453.76694 337.08124Q453.76694 337.8781 453.32944 338.47186Q452.90756 339.0656 452.14194 339.3625L454.14194 342.97186L454.14194 343.05L452.9388 343.05L451.09506 339.59686ZM449.07944 338.675L450.8138 338.675Q451.65756 338.675 452.14194 338.2531Q452.64194 337.8156 452.64194 337.08124Q452.64194 336.3 452.1732 335.8781Q451.70444 335.45624 450.8138 335.4406L449.07944 335.4406L449.07944 338.675ZM456.07944 339.70624L456.07944 343.05L454.95444 343.05L454.95444 334.51874L458.1107 334.51874Q459.5013 334.51874 460.2982 335.2375Q461.09506 335.9406 461.09506 337.1281Q461.09506 338.3625 460.3138 339.03436Q459.5482 339.70624 458.09506 339.70624L456.07944 339.70624ZM456.07944 338.78436L458.1107 338.78436Q459.01694 338.78436 459.4857 338.3625Q459.97006 337.9406 459.97006 337.14374Q459.97006 336.3781 459.4857 335.925Q459.01694 335.45624 458.1732 335.4406L456.07944 335.4406L456.07944 338.78436ZM469.26694 341.925Q468.82944 342.55 468.0482 342.8625Q467.26694 343.175 466.2357 343.175Q465.20444 343.175 464.39194 342.6906Q463.57944 342.1906 463.14194 341.28436Q462.70444 340.3781 462.6888 339.1906L462.6888 338.45624Q462.6888 336.51874 463.57944 335.45624Q464.4857 334.39374 466.1107 334.39374Q467.45444 334.39374 468.26694 335.08124Q469.07944 335.76874 469.26694 337.01874L468.14194 337.01874Q467.8138 335.33124 466.1263 335.33124Q464.9857 335.33124 464.40756 336.1281Q463.82944 336.90936 463.8138 338.425L463.8138 339.1125Q463.8138 340.55 464.47006 341.40936Q465.1263 342.2531 466.2513 342.2531Q466.8763 342.2531 467.34506 342.1125Q467.82944 341.97186 468.14194 341.6281L468.14194 339.72186L466.1732 339.72186L466.1732 338.8L469.26694 338.8L469.26694 341.925Z" fill-rule="nonzero"/><path fill="#757575" d="M495.11676 339.2531Q493.67926 338.83124 493.0074 338.22186Q492.35114 337.6125 492.35114 336.72186Q492.35114 335.72186 493.148 335.0656Q493.9605 334.39374 495.2574 334.39374Q496.1324 334.39374 496.8199 334.7375Q497.5074 335.08124 497.8824 335.675Q498.273 336.26874 498.273 336.9875L497.1324 336.9875Q497.1324 336.20624 496.6324 335.76874Q496.148 335.33124 495.2574 335.33124Q494.42926 335.33124 493.9605 335.70624Q493.49176 336.0656 493.49176 336.70624Q493.49176 337.2375 493.92926 337.59686Q494.3824 337.95624 495.4449 338.2531Q496.5074 338.55 497.10114 338.90936Q497.7105 339.26874 497.99176 339.7531Q498.28864 340.2375 498.28864 340.8781Q498.28864 341.925 497.47614 342.55Q496.66364 343.175 495.3199 343.175Q494.42926 343.175 493.66364 342.83124Q492.91364 342.4875 492.49176 341.90936Q492.0855 341.3156 492.0855 340.58124L493.2105 340.58124Q493.2105 341.34686 493.78864 341.8Q494.36676 342.2531 495.3199 342.2531Q496.2105 342.2531 496.67926 341.89374Q497.148 341.51874 497.148 340.89374Q497.148 340.26874 496.7105 339.925Q496.273 339.58124 495.11676 339.2531ZM500.61676 343.05L499.53864 343.05L499.53864 336.70624L500.61676 336.70624L500.61676 343.05ZM499.4449 335.03436Q499.4449 334.76874 499.60114 334.58124Q499.773 334.39374 500.0855 334.39374Q500.398 334.39374 500.55426 334.58124Q500.72614 334.76874 500.72614 335.03436Q500.72614 335.28436 500.55426 335.47186Q500.398 335.64374 500.0855 335.64374Q499.773 335.64374 499.60114 335.47186Q499.4449 335.28436 499.4449 335.03436ZM503.4605 336.70624L503.49176 337.40936Q504.17926 336.59686 505.36676 336.59686Q506.6949 336.59686 507.17926 337.6125Q507.49176 337.15936 507.99176 336.8781Q508.5074 336.59686 509.1949 336.59686Q511.28864 336.59686 511.3199 338.8L511.3199 343.05L510.24176 343.05L510.24176 338.8625Q510.24176 338.1906 509.92926 337.8625Q509.61676 337.51874 508.8824 337.51874Q508.273 337.51874 507.86676 337.8781Q507.47614 338.2375 507.41364 338.84686L507.41364 343.05L506.3355 343.05L506.3355 338.89374Q506.3355 337.51874 504.97614 337.51874Q503.91364 337.51874 503.523 338.425L503.523 343.05L502.42926 343.05L502.42926 336.70624L503.4605 336.70624ZM517.35114 342.425Q516.72614 343.175 515.49176 343.175Q514.47614 343.175 513.9449 342.58124Q513.41364 341.9875 513.41364 340.83124L513.41364 336.70624L514.49176 336.70624L514.49176 340.8Q514.49176 342.2531 515.66364 342.2531Q516.91364 342.2531 517.3199 341.3156L517.3199 336.70624L518.41364 336.70624L518.41364 343.05L517.3824 343.05L517.35114 342.425ZM521.61676 343.05L520.53864 343.05L520.53864 334.05L521.61676 334.05L521.61676 343.05ZM527.35114 343.05Q527.2574 342.8625 527.1949 342.3781Q526.4449 343.175 525.398 343.175Q524.4605 343.175 523.85114 342.64374Q523.2574 342.1125 523.2574 341.28436Q523.2574 340.3 524.0074 339.7531Q524.7574 339.20624 526.1324 339.20624L527.17926 339.20624L527.17926 338.70624Q527.17926 338.14374 526.8355 337.8156Q526.5074 337.47186 525.8355 337.47186Q525.2574 337.47186 524.86676 337.76874Q524.47614 338.05 524.47614 338.47186L523.3824 338.47186Q523.3824 337.9875 523.7105 337.55Q524.05426 337.1125 524.6324 336.8625Q525.2105 336.59686 525.898 336.59686Q527.0074 336.59686 527.61676 337.14374Q528.24176 337.6906 528.273 338.64374L528.273 341.5656Q528.273 342.4406 528.49176 342.95624L528.49176 343.05L527.35114 343.05ZM525.55426 342.22186Q526.0699 342.22186 526.523 341.95624Q526.97614 341.6906 527.17926 341.26874L527.17926 339.97186L526.3355 339.97186Q524.3355 339.97186 524.3355 341.14374Q524.3355 341.64374 524.67926 341.9406Q525.023 342.22186 525.55426 342.22186ZM531.91364 335.175L531.91364 336.70624L533.0855 336.70624L533.0855 337.55L531.91364 337.55L531.91364 341.47186Q531.91364 341.8625 532.0699 342.05Q532.22614 342.2375 532.60114 342.2375Q532.78864 342.2375 533.11676 342.175L533.11676 343.05Q532.6949 343.175 532.28864 343.175Q531.5699 343.175 531.1949 342.7375Q530.8199 342.28436 530.8199 341.47186L530.8199 337.55L529.66364 337.55L529.66364 336.70624L530.8199 336.70624L530.8199 335.175L531.91364 335.175ZM535.61676 343.05L534.53864 343.05L534.53864 336.70624L535.61676 336.70624L535.61676 343.05ZM534.4449 335.03436Q534.4449 334.76874 534.60114 334.58124Q534.773 334.39374 535.0855 334.39374Q535.398 334.39374 535.55426 334.58124Q535.72614 334.76874 535.72614 335.03436Q535.72614 335.28436 535.55426 335.47186Q535.398 335.64374 535.0855 335.64374Q534.773 335.64374 534.60114 335.47186Q534.4449 335.28436 534.4449 335.03436ZM537.148 339.8156Q537.148 338.89374 537.5074 338.14374Q537.8824 337.39374 538.53864 337.0031Q539.1949 336.59686 540.023 336.59686Q541.3199 336.59686 542.11676 337.4875Q542.92926 338.3781 542.92926 339.8781L542.92926 339.95624Q542.92926 340.8781 542.5699 341.6125Q542.2105 342.34686 541.55426 342.76874Q540.898 343.175 540.03864 343.175Q538.7574 343.175 537.9449 342.28436Q537.148 341.3781 537.148 339.89374L537.148 339.8156ZM538.24176 339.95624Q538.24176 341.0031 538.72614 341.64374Q539.22614 342.28436 540.03864 342.28436Q540.86676 342.28436 541.35114 341.64374Q541.8355 340.9875 541.8355 339.8156Q541.8355 338.78436 541.3355 338.14374Q540.85114 337.4875 540.023 337.4875Q539.22614 337.4875 538.72614 338.1281Q538.24176 338.7531 538.24176 339.95624ZM545.4605 336.70624L545.49176 337.5031Q546.22614 336.59686 547.398 336.59686Q549.41364 336.59686 549.42926 338.8625L549.42926 343.05L548.3355 343.05L548.3355 338.84686Q548.3355 338.175 548.023 337.84686Q547.72614 337.51874 547.0699 337.51874Q546.53864 337.51874 546.1324 337.8Q545.74176 338.08124 545.523 338.53436L545.523 343.05L544.4449 343.05L544.4449 336.70624L545.4605 336.70624Z" fill-rule="nonzero"/><path fill="#757575" d="M564.7635 339.2531Q563.326 338.83124 562.6541 338.22186Q561.99786 337.6125 561.99786 336.72186Q561.99786 335.72186 562.79474 335.0656Q563.60724 334.39374 564.9041 334.39374Q565.7791 334.39374 566.4666 334.7375Q567.1541 335.08124 567.5291 335.675Q567.91974 336.26874 567.91974 336.9875L566.7791 336.9875Q566.7791 336.20624 566.2791 335.76874Q565.79474 335.33124 564.9041 335.33124Q564.076 335.33124 563.60724 335.70624Q563.1385 336.0656 563.1385 336.70624Q563.1385 337.2375 563.576 337.59686Q564.0291 337.95624 565.0916 338.2531Q566.1541 338.55 566.74786 338.90936Q567.35724 339.26874 567.6385 339.7531Q567.93536 340.2375 567.93536 340.8781Q567.93536 341.925 567.12286 342.55Q566.31036 343.175 564.9666 343.175Q564.076 343.175 563.31036 342.83124Q562.56036 342.4875 562.1385 341.90936Q561.73224 341.3156 561.73224 340.58124L562.85724 340.58124Q562.85724 341.34686 563.43536 341.8Q564.0135 342.2531 564.9666 342.2531Q565.85724 342.2531 566.326 341.89374Q566.79474 341.51874 566.79474 340.89374Q566.79474 340.26874 566.35724 339.925Q565.91974 339.58124 564.7635 339.2531ZM570.56036 335.175L570.56036 336.70624L571.73224 336.70624L571.73224 337.55L570.56036 337.55L570.56036 341.47186Q570.56036 341.8625 570.7166 342.05Q570.87286 342.2375 571.24786 342.2375Q571.43536 342.2375 571.7635 342.175L571.7635 343.05Q571.3416 343.175 570.93536 343.175Q570.2166 343.175 569.8416 342.7375Q569.4666 342.28436 569.4666 341.47186L569.4666 337.55L568.31036 337.55L568.31036 336.70624L569.4666 336.70624L569.4666 335.175L570.56036 335.175ZM576.1541 337.675Q575.9041 337.64374 575.62286 337.64374Q574.54474 337.64374 574.16974 338.55L574.16974 343.05L573.0916 343.05L573.0916 336.70624L574.1385 336.70624L574.1541 337.4406Q574.68536 336.59686 575.66974 336.59686Q575.98224 336.59686 576.1541 336.675L576.1541 337.675ZM580.99786 343.05Q580.9041 342.8625 580.8416 342.3781Q580.0916 343.175 579.04474 343.175Q578.10724 343.175 577.49786 342.64374Q576.9041 342.1125 576.9041 341.28436Q576.9041 340.3 577.6541 339.7531Q578.4041 339.20624 579.7791 339.20624L580.826 339.20624L580.826 338.70624Q580.826 338.14374 580.48224 337.8156Q580.1541 337.47186 579.48224 337.47186Q578.9041 337.47186 578.5135 337.76874Q578.12286 338.05 578.12286 338.47186L577.0291 338.47186Q577.0291 337.9875 577.35724 337.55Q577.701 337.1125 578.2791 336.8625Q578.85724 336.59686 579.54474 336.59686Q580.6541 336.59686 581.2635 337.14374Q581.8885 337.6906 581.91974 338.64374L581.91974 341.5656Q581.91974 342.4406 582.1385 342.95624L582.1385 343.05L580.99786 343.05ZM579.201 342.22186Q579.7166 342.22186 580.16974 341.95624Q580.62286 341.6906 580.826 341.26874L580.826 339.97186L579.98224 339.97186Q577.98224 339.97186 577.98224 341.14374Q577.98224 341.64374 578.326 341.9406Q578.66974 342.22186 579.201 342.22186ZM585.56036 335.175L585.56036 336.70624L586.73224 336.70624L586.73224 337.55L585.56036 337.55L585.56036 341.47186Q585.56036 341.8625 585.7166 342.05Q585.87286 342.2375 586.24786 342.2375Q586.43536 342.2375 586.7635 342.175L586.7635 343.05Q586.3416 343.175 585.93536 343.175Q585.2166 343.175 584.8416 342.7375Q584.4666 342.28436 584.4666 341.47186L584.4666 337.55L583.31036 337.55L583.31036 336.70624L584.4666 336.70624L584.4666 335.175L585.56036 335.175ZM590.7166 343.175Q589.41974 343.175 588.60724 342.33124Q587.81036 341.47186 587.81036 340.05L587.81036 339.8625Q587.81036 338.90936 588.16974 338.175Q588.5291 337.425 589.16974 337.01874Q589.826 336.59686 590.576 336.59686Q591.81036 336.59686 592.49786 337.40936Q593.18536 338.22186 593.18536 339.7375L593.18536 340.1906L588.8885 340.1906Q588.91974 341.1281 589.43536 341.70624Q589.9666 342.28436 590.7791 342.28436Q591.3416 342.28436 591.73224 342.05Q592.1385 341.8156 592.451 341.425L593.10724 341.9406Q592.31036 343.175 590.7166 343.175ZM590.576 337.4875Q589.91974 337.4875 589.4666 337.97186Q589.0291 338.4406 588.93536 339.3L592.10724 339.3L592.10724 339.22186Q592.06036 338.39374 591.6541 337.9406Q591.2635 337.4875 590.576 337.4875ZM593.826 339.83124Q593.826 338.34686 594.5135 337.47186Q595.201 336.59686 596.326 336.59686Q597.48224 336.59686 598.1385 337.40936L598.18536 336.70624L599.18536 336.70624L599.18536 342.89374Q599.18536 344.1281 598.451 344.83124Q597.7166 345.55 596.49786 345.55Q595.81036 345.55 595.1541 345.2531Q594.49786 344.95624 594.1541 344.45624L594.7166 343.8Q595.4041 344.65936 596.41974 344.65936Q597.201 344.65936 597.6385 344.20624Q598.0916 343.76874 598.0916 342.95624L598.0916 342.40936Q597.43536 343.175 596.31036 343.175Q595.201 343.175 594.5135 342.28436Q593.826 341.3781 593.826 339.83124ZM594.91974 339.95624Q594.91974 341.01874 595.35724 341.64374Q595.79474 342.2531 596.5916 342.2531Q597.60724 342.2531 598.0916 341.3156L598.0916 338.425Q597.5916 337.51874 596.5916 337.51874Q595.81036 337.51874 595.35724 338.1281Q594.91974 338.7375 594.91974 339.95624ZM603.1541 341.45624L604.6385 336.70624L605.79474 336.70624L603.24786 344.03436Q602.6541 345.6125 601.37286 345.6125L601.1541 345.59686L600.7635 345.51874L600.7635 344.64374L601.04474 344.65936Q601.60724 344.65936 601.9041 344.4406Q602.2166 344.22186 602.41974 343.6281L602.6541 342.97186L600.3885 336.70624L601.576 336.70624L603.1541 341.45624Z" fill-rule="nonzero"/><path fill="#757575" d="M56.5 35.23125L50.546875 35.23125L49.203125 38.95L47.28125 38.95L52.703125 24.73125L54.34375 24.73125L59.78125 38.95L57.859375 38.95L56.5 35.23125ZM51.109375 33.7L55.953125 33.7L53.53125 27.04375L51.109375 33.7ZM64.859375 36.496876L67.46875 28.3875L69.3125 28.3875L65.53125 38.95L64.15625 38.95L60.328125 28.3875L62.171875 28.3875L64.859375 36.496876ZM75.75 39.153126Q73.609375 39.153126 72.25 37.746876Q70.90625 36.325 70.90625 33.965626L70.90625 33.621876Q70.90625 32.059376 71.5 30.825Q72.109375 29.590626 73.1875 28.8875Q74.265625 28.184376 75.53125 28.184376Q77.59375 28.184376 78.734375 29.54375Q79.875 30.903126 79.875 33.434376L79.875 34.184376L72.71875 34.184376Q72.75 35.746876 73.625 36.715626Q74.5 37.66875 75.84375 37.66875Q76.8125 37.66875 77.46875 37.278126Q78.140625 36.8875 78.640625 36.246876L79.734375 37.10625Q78.40625 39.153126 75.75 39.153126ZM75.53125 29.66875Q74.4375 29.66875 73.6875 30.465626Q72.953125 31.2625 72.78125 32.7L78.0625 32.7L78.0625 32.559376Q77.984375 31.184376 77.3125 30.434376Q76.65625 29.66875 75.53125 29.66875ZM87.46875 29.996876Q87.0625 29.934376 86.59375 29.934376Q84.8125 29.934376 84.171875 31.45L84.171875 38.95L82.375 38.95L82.375 28.3875L84.125 28.3875L84.15625 29.60625Q85.046875 28.184376 86.671875 28.184376Q87.203125 28.184376 87.46875 28.325L87.46875 29.996876ZM95.890625 38.95Q95.734375 38.6375 95.640625 37.840626Q94.375 39.153126 92.625 39.153126Q91.0625 39.153126 90.0625 38.2625Q89.0625 37.371876 89.0625 36.0125Q89.0625 34.371876 90.3125 33.465626Q91.578125 32.54375 93.84375 32.54375L95.609375 32.54375L95.609375 31.715626Q95.609375 30.7625 95.03125 30.2Q94.46875 29.6375 93.375 29.6375Q92.40625 29.6375 91.75 30.1375Q91.09375 30.621876 91.09375 31.309376L89.28125 31.309376Q89.28125 30.528126 89.84375 29.79375Q90.40625 29.04375 91.359375 28.621876Q92.328125 28.184376 93.484375 28.184376Q95.3125 28.184376 96.34375 29.10625Q97.375 30.0125 97.421875 31.621876L97.421875 36.48125Q97.421875 37.934376 97.78125 38.79375L97.78125 38.95L95.890625 38.95ZM92.890625 37.575Q93.75 37.575 94.5 37.1375Q95.265625 36.7 95.609375 35.996876L95.609375 33.825L94.1875 33.825Q90.875 33.825 90.875 35.7625Q90.875 36.621876 91.4375 37.10625Q92.0 37.575 92.890625 37.575ZM99.9375 33.575Q99.9375 31.10625 101.078125 29.653126Q102.21875 28.184376 104.109375 28.184376Q106.046875 28.184376 107.125 29.559376L107.21875 28.3875L108.859375 28.3875L108.859375 38.7Q108.859375 40.746876 107.640625 41.91875Q106.4375 43.10625 104.375 43.10625Q103.234375 43.10625 102.140625 42.621876Q101.046875 42.1375 100.46875 41.278126L101.40625 40.2Q102.578125 41.6375 104.25 41.6375Q105.578125 41.6375 106.3125 40.8875Q107.046875 40.153126 107.046875 38.809376L107.046875 37.8875Q105.96875 39.153126 104.09375 39.153126Q102.234375 39.153126 101.078125 37.653126Q99.9375 36.153126 99.9375 33.575ZM101.75 33.778126Q101.75 35.575 102.484375 36.590626Q103.21875 37.60625 104.53125 37.60625Q106.25 37.60625 107.046875 36.059376L107.046875 31.23125Q106.21875 29.715626 104.5625 29.715626Q103.234375 29.715626 102.484375 30.746876Q101.75 31.778126 101.75 33.778126ZM115.75 39.153126Q113.609375 39.153126 112.25 37.746876Q110.90625 36.325 110.90625 33.965626L110.90625 33.621876Q110.90625 32.059376 111.5 30.825Q112.109375 29.590626 113.1875 28.8875Q114.265625 28.184376 115.53125 28.184376Q117.59375 28.184376 118.734375 29.54375Q119.875 30.903126 119.875 33.434376L119.875 34.184376L112.71875 34.184376Q112.75 35.746876 113.625 36.715626Q114.5 37.66875 115.84375 37.66875Q116.8125 37.66875 117.46875 37.278126Q118.140625 36.8875 118.640625 36.246876L119.734375 37.10625Q118.40625 39.153126 115.75 39.153126ZM115.53125 29.66875Q114.4375 29.66875 113.6875 30.465626Q112.953125 31.2625 112.78125 32.7L118.0625 32.7L118.0625 32.559376Q117.984375 31.184376 117.3125 30.434376Q116.65625 29.66875 115.53125 29.66875ZM138.57812 38.95L136.6875 38.95L129.53125 27.996876L129.53125 38.95L127.65625 38.95L127.65625 24.73125L129.53125 24.73125L136.71875 35.73125L136.71875 24.73125L138.57812 24.73125L138.57812 38.95ZM147.89062 37.903126Q146.84375 39.153126 144.79688 39.153126Q143.10938 39.153126 142.21875 38.16875Q141.34375 37.184376 141.32812 35.2625L141.32812 28.3875L143.14062 28.3875L143.14062 35.215626Q143.14062 37.60625 145.09375 37.60625Q147.15625 37.60625 147.84375 36.075L147.84375 28.3875L149.65625 28.3875L149.65625 38.95L147.9375 38.95L147.89062 37.903126ZM154.0625 28.3875L154.10938 29.559376Q155.28125 28.184376 157.25 28.184376Q159.46875 28.184376 160.26562 29.8875Q160.79688 29.121876 161.64062 28.653126Q162.48438 28.184376 163.64062 28.184376Q167.10938 28.184376 167.17188 31.871876L167.17188 38.95L165.35938 38.95L165.35938 31.98125Q165.35938 30.840626 164.84375 30.278126Q164.32812 29.715626 163.10938 29.715626Q162.10938 29.715626 161.4375 30.325Q160.78125 30.91875 160.67188 31.934376L160.67188 38.95L158.85938 38.95L158.85938 32.028126Q158.85938 29.715626 156.59375 29.715626Q154.8125 29.715626 154.17188 31.23125L154.17188 38.95L152.35938 38.95L152.35938 28.3875L154.0625 28.3875ZM179.3125 33.778126Q179.3125 36.2 178.20312 37.684376Q177.09375 39.153126 175.21875 39.153126Q173.20312 39.153126 172.10938 37.73125L172.03125 38.95L170.375 38.95L170.375 23.95L172.17188 23.95L172.17188 29.54375Q173.26562 28.184376 175.1875 28.184376Q177.10938 28.184376 178.20312 29.6375Q179.3125 31.090626 179.3125 33.621876L179.3125 33.778126ZM177.5 33.575Q177.5 31.73125 176.78125 30.73125Q176.07812 29.715626 174.75 29.715626Q172.95312 29.715626 172.17188 31.3875L172.17188 35.95Q173.0 37.60625 174.76562 37.60625Q176.0625 37.60625 176.78125 36.60625Q177.5 35.60625 177.5 33.575ZM185.75 39.153126Q183.60938 39.153126 182.25 37.746876Q180.90625 36.325 180.90625 33.965626L180.90625 33.621876Q180.90625 32.059376 181.5 30.825Q182.10938 29.590626 183.1875 28.8875Q184.26562 28.184376 185.53125 28.184376Q187.59375 28.184376 188.73438 29.54375Q189.875 30.903126 189.875 33.434376L189.875 34.184376L182.71875 34.184376Q182.75 35.746876 183.625 36.715626Q184.5 37.66875 185.84375 37.66875Q186.8125 37.66875 187.46875 37.278126Q188.14062 36.8875 188.64062 36.246876L189.73438 37.10625Q188.40625 39.153126 185.75 39.153126ZM185.53125 29.66875Q184.4375 29.66875 183.6875 30.465626Q182.95312 31.2625 182.78125 32.7L188.0625 32.7L188.0625 32.559376Q187.98438 31.184376 187.3125 30.434376Q186.65625 29.66875 185.53125 29.66875ZM197.46875 29.996876Q197.0625 29.934376 196.59375 29.934376Q194.8125 29.934376 194.17188 31.45L194.17188 38.95L192.375 38.95L192.375 28.3875L194.125 28.3875L194.15625 29.60625Q195.04688 28.184376 196.67188 28.184376Q197.20312 28.184376 197.46875 28.325L197.46875 29.996876ZM203.89062 33.575Q203.89062 32.0125 204.5 30.778126Q205.10938 29.528126 206.1875 28.85625Q207.28125 28.184376 208.6875 28.184376Q210.84375 28.184376 212.17188 29.684376Q213.51562 31.16875 213.51562 33.653126L213.51562 33.778126Q213.51562 35.325 212.92188 36.559376Q212.32812 37.778126 211.21875 38.465626Q210.125 39.153126 208.70312 39.153126Q206.5625 39.153126 205.21875 37.653126Q203.89062 36.153126 203.89062 33.7L203.89062 33.575ZM205.70312 33.778126Q205.70312 35.54375 206.51562 36.60625Q207.34375 37.66875 208.70312 37.66875Q210.07812 37.66875 210.89062 36.590626Q211.70312 35.5125 211.70312 33.575Q211.70312 31.825 210.875 30.746876Q210.04688 29.66875 208.6875 29.66875Q207.34375 29.66875 206.51562 30.73125Q205.70312 31.79375 205.70312 33.778126ZM216.25 38.95L216.25 29.778126L214.59375 29.778126L214.59375 28.3875L216.25 28.3875L216.25 27.29375Q216.25 25.60625 217.15625 24.684376Q218.07812 23.746876 219.73438 23.746876Q220.35938 23.746876 220.96875 23.903126L220.875 25.371876Q220.42188 25.29375 219.90625 25.29375Q219.01562 25.29375 218.53125 25.809376Q218.0625 26.309376 218.0625 27.2625L218.0625 28.3875L220.3125 28.3875L220.3125 29.778126L218.0625 29.778126L218.0625 38.95L216.25 38.95ZM238.59375 32.29375Q238.59375 34.3875 237.89062 35.95Q237.1875 37.496876 235.89062 38.325Q234.60938 39.153126 232.89062 39.153126Q231.20312 39.153126 229.90625 38.325Q228.60938 37.496876 227.89062 35.965626Q227.17188 34.434376 227.15625 32.41875L227.15625 31.403126Q227.15625 29.35625 227.85938 27.778126Q228.57812 26.2 229.875 25.371876Q231.1875 24.528126 232.85938 24.528126Q234.57812 24.528126 235.875 25.35625Q237.1875 26.184376 237.89062 27.7625Q238.59375 29.325 238.59375 31.403126L238.59375 32.29375ZM236.71875 31.3875Q236.71875 28.85625 235.70312 27.5125Q234.6875 26.153126 232.85938 26.153126Q231.09375 26.153126 230.0625 27.5125Q229.04688 28.85625 229.01562 31.246876L229.01562 32.29375Q229.01562 34.746876 230.04688 36.153126Q231.07812 37.559376 232.89062 37.559376Q234.70312 37.559376 235.6875 36.23125Q236.6875 34.903126 236.71875 32.434376L236.71875 31.3875ZM250.71875 36.465626L252.75 28.3875L254.5625 28.3875L251.48438 38.95L250.01562 38.95L247.45312 30.934376L244.95312 38.95L243.48438 38.95L240.42188 28.3875L242.21875 28.3875L244.29688 36.29375L246.76562 28.3875L248.21875 28.3875L250.71875 36.465626ZM258.07812 28.3875L258.14062 29.715626Q259.34375 28.184376 261.29688 28.184376Q264.65625 28.184376 264.67188 31.965626L264.67188 38.95L262.875 38.95L262.875 31.95Q262.85938 30.809376 262.34375 30.2625Q261.84375 29.715626 260.75 29.715626Q259.875 29.715626 259.20312 30.184376Q258.54688 30.653126 258.17188 31.41875L258.17188 38.95L256.375 38.95L256.375 28.3875L258.07812 28.3875ZM271.75 39.153126Q269.60938 39.153126 268.25 37.746876Q266.90625 36.325 266.90625 33.965626L266.90625 33.621876Q266.90625 32.059376 267.5 30.825Q268.10938 29.590626 269.1875 28.8875Q270.26562 28.184376 271.53125 28.184376Q273.59375 28.184376 274.73438 29.54375Q275.875 30.903126 275.875 33.434376L275.875 34.184376L268.71875 34.184376Q268.75 35.746876 269.625 36.715626Q270.5 37.66875 271.84375 37.66875Q272.8125 37.66875 273.46875 37.278126Q274.14062 36.8875 274.64062 36.246876L275.73438 37.10625Q274.40625 39.153126 271.75 39.153126ZM271.53125 29.66875Q270.4375 29.66875 269.6875 30.465626Q268.95312 31.2625 268.78125 32.7L274.0625 32.7L274.0625 32.559376Q273.98438 31.184376 273.3125 30.434376Q272.65625 29.66875 271.53125 29.66875ZM283.46875 29.996876Q283.0625 29.934376 282.59375 29.934376Q280.8125 29.934376 280.17188 31.45L280.17188 38.95L278.375 38.95L278.375 28.3875L280.125 28.3875L280.15625 29.60625Q281.04688 28.184376 282.67188 28.184376Q283.20312 28.184376 283.46875 28.325L283.46875 29.996876ZM291.51562 36.153126Q291.51562 35.41875 290.96875 35.0125Q290.42188 34.60625 289.04688 34.309376Q287.67188 34.0125 286.85938 33.60625Q286.0625 33.2 285.67188 32.6375Q285.29688 32.059376 285.29688 31.278126Q285.29688 29.98125 286.39062 29.090626Q287.48438 28.184376 289.20312 28.184376Q291.0 28.184376 292.10938 29.121876Q293.23438 30.04375 293.23438 31.48125L291.40625 31.48125Q291.40625 30.746876 290.78125 30.215626Q290.15625 29.66875 289.20312 29.66875Q288.20312 29.66875 287.64062 30.10625Q287.09375 30.528126 287.09375 31.23125Q287.09375 31.871876 287.60938 32.215626Q288.125 32.54375 289.48438 32.85625Q290.84375 33.153126 291.67188 33.575Q292.51562 33.98125 292.92188 34.575Q293.32812 35.16875 293.32812 36.0125Q293.32812 37.434376 292.1875 38.29375Q291.0625 39.153126 289.25 39.153126Q287.98438 39.153126 287.0 38.7Q286.03125 38.246876 285.46875 37.45Q284.92188 36.6375 284.92188 35.7L286.73438 35.7Q286.78125 36.60625 287.45312 37.1375Q288.14062 37.66875 289.25 37.66875Q290.28125 37.66875 290.89062 37.2625Q291.51562 36.840626 291.51562 36.153126ZM309.3125 33.778126Q309.3125 36.2 308.20312 37.684376Q307.09375 39.153126 305.21875 39.153126Q303.20312 39.153126 302.10938 37.73125L302.03125 38.95L300.375 38.95L300.375 23.95L302.17188 23.95L302.17188 29.54375Q303.26562 28.184376 305.1875 28.184376Q307.10938 28.184376 308.20312 29.6375Q309.3125 31.090626 309.3125 33.621876L309.3125 33.778126ZM307.5 33.575Q307.5 31.73125 306.78125 30.73125Q306.07812 29.715626 304.75 29.715626Q302.95312 29.715626 302.17188 31.3875L302.17188 35.95Q303.0 37.60625 304.76562 37.60625Q306.0625 37.60625 306.78125 36.60625Q307.5 35.60625 307.5 33.575ZM314.82812 36.309376L317.28125 28.3875L319.21875 28.3875L314.96875 40.575Q313.98438 43.215626 311.84375 43.215626L311.5 43.184376L310.82812 43.059376L310.82812 41.590626L311.3125 41.6375Q312.23438 41.6375 312.73438 41.2625Q313.25 40.8875 313.57812 39.903126L313.98438 38.825L310.21875 28.3875L312.1875 28.3875L314.82812 36.309376ZM336.15625 37.090626Q335.42188 38.121876 334.125 38.6375Q332.84375 39.153126 331.125 39.153126Q329.375 39.153126 328.03125 38.340626Q326.6875 37.5125 325.95312 36.0125Q325.21875 34.5125 325.1875 32.528126L325.1875 31.278126Q325.1875 28.075 326.6875 26.309376Q328.1875 24.528126 330.90625 24.528126Q333.125 24.528126 334.48438 25.66875Q335.84375 26.809376 336.15625 28.903126L334.28125 28.903126Q333.75 26.075 330.92188 26.075Q329.03125 26.075 328.0625 27.403126Q327.09375 28.73125 327.07812 31.23125L327.07812 32.403126Q327.07812 34.79375 328.17188 36.2Q329.26562 37.60625 331.125 37.60625Q332.1875 37.60625 332.96875 37.371876Q333.76562 37.1375 334.28125 36.590626L334.28125 33.3875L331.0 33.3875L331.0 31.871876L336.15625 31.871876L336.15625 37.090626ZM343.75 39.153126Q341.60938 39.153126 340.25 37.746876Q338.90625 36.325 338.90625 33.965626L338.90625 33.621876Q338.90625 32.059376 339.5 30.825Q340.10938 29.590626 341.1875 28.8875Q342.26562 28.184376 343.53125 28.184376Q345.59375 28.184376 346.73438 29.54375Q347.875 30.903126 347.875 33.434376L347.875 34.184376L340.71875 34.184376Q340.75 35.746876 341.625 36.715626Q342.5 37.66875 343.84375 37.66875Q344.8125 37.66875 345.46875 37.278126Q346.14062 36.8875 346.64062 36.246876L347.73438 37.10625Q346.40625 39.153126 343.75 39.153126ZM343.53125 29.66875Q342.4375 29.66875 341.6875 30.465626Q340.95312 31.2625 340.78125 32.7L346.0625 32.7L346.0625 32.559376Q345.98438 31.184376 345.3125 30.434376Q344.65625 29.66875 343.53125 29.66875ZM352.07812 28.3875L352.14062 29.715626Q353.34375 28.184376 355.29688 28.184376Q358.65625 28.184376 358.67188 31.965626L358.67188 38.95L356.875 38.95L356.875 31.95Q356.85938 30.809376 356.34375 30.2625Q355.84375 29.715626 354.75 29.715626Q353.875 29.715626 353.20312 30.184376Q352.54688 30.653126 352.17188 31.41875L352.17188 38.95L350.375 38.95L350.375 28.3875L352.07812 28.3875ZM366.46875 29.996876Q366.0625 29.934376 365.59375 29.934376Q363.8125 29.934376 363.17188 31.45L363.17188 38.95L361.375 38.95L361.375 28.3875L363.125 28.3875L363.15625 29.60625Q364.04688 28.184376 365.67188 28.184376Q366.20312 28.184376 366.46875 28.325L366.46875 29.996876ZM372.75 39.153126Q370.60938 39.153126 369.25 37.746876Q367.90625 36.325 367.90625 33.965626L367.90625 33.621876Q367.90625 32.059376 368.5 30.825Q369.10938 29.590626 370.1875 28.8875Q371.26562 28.184376 372.53125 28.184376Q374.59375 28.184376 375.73438 29.54375Q376.875 30.903126 376.875 33.434376L376.875 34.184376L369.71875 34.184376Q369.75 35.746876 370.625 36.715626Q371.5 37.66875 372.84375 37.66875Q373.8125 37.66875 374.46875 37.278126Q375.14062 36.8875 375.64062 36.246876L376.73438 37.10625Q375.40625 39.153126 372.75 39.153126ZM372.53125 29.66875Q371.4375 29.66875 370.6875 30.465626Q369.95312 31.2625 369.78125 32.7L375.0625 32.7L375.0625 32.559376Q374.98438 31.184376 374.3125 30.434376Q373.65625 29.66875 372.53125 29.66875ZM385.25 38.95L385.25 29.778126L383.59375 29.778126L383.59375 28.3875L385.25 28.3875L385.25 27.29375Q385.25 25.60625 386.15625 24.684376Q387.07812 23.746876 388.73438 23.746876Q389.35938 23.746876 389.96875 23.903126L389.875 25.371876Q389.42188 25.29375 388.90625 25.29375Q388.01562 25.29375 387.53125 25.809376Q387.0625 26.309376 387.0625 27.2625L387.0625 28.3875L389.3125 28.3875L389.3125 29.778126L387.0625 29.778126L387.0625 38.95L385.25 38.95ZM390.89062 33.575Q390.89062 32.0125 391.5 30.778126Q392.10938 29.528126 393.1875 28.85625Q394.28125 28.184376 395.6875 28.184376Q397.84375 28.184376 399.17188 29.684376Q400.51562 31.16875 400.51562 33.653126L400.51562 33.778126Q400.51562 35.325 399.92188 36.559376Q399.32812 37.778126 398.21875 38.465626Q397.125 39.153126 395.70312 39.153126Q393.5625 39.153126 392.21875 37.653126Q390.89062 36.153126 390.89062 33.7L390.89062 33.575ZM392.70312 33.778126Q392.70312 35.54375 393.51562 36.60625Q394.34375 37.66875 395.70312 37.66875Q397.07812 37.66875 397.89062 36.590626Q398.70312 35.5125 398.70312 33.575Q398.70312 31.825 397.875 30.746876Q397.04688 29.66875 395.6875 29.66875Q394.34375 29.66875 393.51562 30.73125Q392.70312 31.79375 392.70312 33.778126ZM407.46875 29.996876Q407.0625 29.934376 406.59375 29.934376Q404.8125 29.934376 404.17188 31.45L404.17188 38.95L402.375 38.95L402.375 28.3875L404.125 28.3875L404.15625 29.60625Q405.04688 28.184376 406.67188 28.184376Q407.20312 28.184376 407.46875 28.325L407.46875 29.996876ZM418.84375 32.60625Q416.42188 31.91875 415.32812 30.91875Q414.23438 29.903126 414.23438 28.41875Q414.23438 26.73125 415.57812 25.6375Q416.92188 24.528126 419.0625 24.528126Q420.53125 24.528126 421.67188 25.10625Q422.82812 25.66875 423.45312 26.66875Q424.07812 27.653126 424.07812 28.840626L422.20312 28.840626Q422.20312 27.559376 421.375 26.825Q420.5625 26.075 419.0625 26.075Q417.67188 26.075 416.89062 26.684376Q416.125 27.29375 416.125 28.3875Q416.125 29.246876 416.85938 29.85625Q417.59375 30.45 419.35938 30.95Q421.14062 31.45 422.14062 32.059376Q423.14062 32.653126 423.625 33.45Q424.10938 34.246876 424.10938 35.340626Q424.10938 37.059376 422.76562 38.10625Q421.42188 39.153126 419.15625 39.153126Q417.70312 39.153126 416.42188 38.590626Q415.15625 38.028126 414.46875 37.059376Q413.78125 36.075 413.78125 34.825L415.67188 34.825Q415.67188 36.121876 416.625 36.871876Q417.57812 37.60625 419.15625 37.60625Q420.64062 37.60625 421.4375 37.0125Q422.23438 36.403126 422.23438 35.35625Q422.23438 34.309376 421.5 33.746876Q420.76562 33.16875 418.84375 32.60625ZM428.32812 38.95L426.53125 38.95L426.53125 28.3875L428.32812 28.3875L428.32812 38.95ZM426.375 25.575Q426.375 25.1375 426.64062 24.840626Q426.92188 24.528126 427.4375 24.528126Q427.96875 24.528126 428.23438 24.840626Q428.51562 25.1375 428.51562 25.575Q428.51562 26.0125 428.23438 26.309376Q427.96875 26.60625 427.4375 26.60625Q426.92188 26.60625 426.64062 26.309376Q426.375 26.0125 426.375 25.575ZM433.07812 28.3875L433.14062 29.715626Q434.34375 28.184376 436.29688 28.184376Q439.65625 28.184376 439.67188 31.965626L439.67188 38.95L437.875 38.95L437.875 31.95Q437.85938 30.809376 437.34375 30.2625Q436.84375 29.715626 435.75 29.715626Q434.875 29.715626 434.20312 30.184376Q433.54688 30.653126 433.17188 31.41875L433.17188 38.95L431.375 38.95L431.375 28.3875L433.07812 28.3875ZM441.9375 33.575Q441.9375 31.10625 443.07812 29.653126Q444.21875 28.184376 446.10938 28.184376Q448.04688 28.184376 449.125 29.559376L449.21875 28.3875L450.85938 28.3875L450.85938 38.7Q450.85938 40.746876 449.64062 41.91875Q448.4375 43.10625 446.375 43.10625Q445.23438 43.10625 444.14062 42.621876Q443.04688 42.1375 442.46875 41.278126L443.40625 40.2Q444.57812 41.6375 446.25 41.6375Q447.57812 41.6375 448.3125 40.8875Q449.04688 40.153126 449.04688 38.809376L449.04688 37.8875Q447.96875 39.153126 446.09375 39.153126Q444.23438 39.153126 443.07812 37.653126Q441.9375 36.153126 441.9375 33.575ZM443.75 33.778126Q443.75 35.575 444.48438 36.590626Q445.21875 37.60625 446.53125 37.60625Q448.25 37.60625 449.04688 36.059376L449.04688 31.23125Q448.21875 29.715626 446.5625 29.715626Q445.23438 29.715626 444.48438 30.746876Q443.75 31.778126 443.75 33.778126ZM455.32812 38.95L453.53125 38.95L453.53125 23.95L455.32812 23.95L455.32812 38.95ZM462.75 39.153126Q460.60938 39.153126 459.25 37.746876Q457.90625 36.325 457.90625 33.965626L457.90625 33.621876Q457.90625 32.059376 458.5 30.825Q459.10938 29.590626 460.1875 28.8875Q461.26562 28.184376 462.53125 28.184376Q464.59375 28.184376 465.73438 29.54375Q466.875 30.903126 466.875 33.434376L466.875 34.184376L459.71875 34.184376Q459.75 35.746876 460.625 36.715626Q461.5 37.66875 462.84375 37.66875Q463.8125 37.66875 464.46875 37.278126Q465.14062 36.8875 465.64062 36.246876L466.73438 37.10625Q465.40625 39.153126 462.75 39.153126ZM462.53125 29.66875Q461.4375 29.66875 460.6875 30.465626Q459.95312 31.2625 459.78125 32.7L465.0625 32.7L465.0625 32.559376Q464.98438 31.184376 464.3125 30.434376Q463.65625 29.66875 462.53125 29.66875ZM473.125 33.653126L468.35938 33.653126L468.35938 32.16875L473.125 32.16875L473.125 33.653126ZM477.53125 33.3875L477.53125 38.95L475.65625 38.95L475.65625 24.73125L480.89062 24.73125Q483.23438 24.73125 484.54688 25.91875Q485.875 27.10625 485.875 29.075Q485.875 31.153126 484.57812 32.278126Q483.28125 33.3875 480.875 33.3875L477.53125 33.3875ZM477.53125 31.85625L480.89062 31.85625Q482.40625 31.85625 483.20312 31.153126Q484.0 30.434376 484.0 29.090626Q484.0 27.825 483.20312 27.075Q482.40625 26.309376 481.0 26.278126L477.53125 26.278126L477.53125 31.85625ZM490.32812 38.95L488.53125 38.95L488.53125 23.95L490.32812 23.95L490.32812 38.95ZM499.89062 38.95Q499.73438 38.6375 499.64062 37.840626Q498.375 39.153126 496.625 39.153126Q495.0625 39.153126 494.0625 38.2625Q493.0625 37.371876 493.0625 36.0125Q493.0625 34.371876 494.3125 33.465626Q495.57812 32.54375 497.84375 32.54375L499.60938 32.54375L499.60938 31.715626Q499.60938 30.7625 499.03125 30.2Q498.46875 29.6375 497.375 29.6375Q496.40625 29.6375 495.75 30.1375Q495.09375 30.621876 495.09375 31.309376L493.28125 31.309376Q493.28125 30.528126 493.84375 29.79375Q494.40625 29.04375 495.35938 28.621876Q496.32812 28.184376 497.48438 28.184376Q499.3125 28.184376 500.34375 29.10625Q501.375 30.0125 501.42188 31.621876L501.42188 36.48125Q501.42188 37.934376 501.78125 38.79375L501.78125 38.95L499.89062 38.95ZM496.89062 37.575Q497.75 37.575 498.5 37.1375Q499.26562 36.7 499.60938 35.996876L499.60938 33.825L498.1875 33.825Q494.875 33.825 494.875 35.7625Q494.875 36.621876 495.4375 37.10625Q496.0 37.575 496.89062 37.575ZM507.82812 36.309376L510.28125 28.3875L512.21875 28.3875L507.96875 40.575Q506.98438 43.215626 504.84375 43.215626L504.5 43.184376L503.82812 43.059376L503.82812 41.590626L504.3125 41.6375Q505.23438 41.6375 505.73438 41.2625Q506.25 40.8875 506.57812 39.903126L506.98438 38.825L503.21875 28.3875L505.1875 28.3875L507.82812 36.309376ZM517.75 39.153126Q515.6094 39.153126 514.25 37.746876Q512.90625 36.325 512.90625 33.965626L512.90625 33.621876Q512.90625 32.059376 513.5 30.825Q514.1094 29.590626 515.1875 28.8875Q516.2656 28.184376 517.53125 28.184376Q519.59375 28.184376 520.7344 29.54375Q521.875 30.903126 521.875 33.434376L521.875 34.184376L514.71875 34.184376Q514.75 35.746876 515.625 36.715626Q516.5 37.66875 517.84375 37.66875Q518.8125 37.66875 519.46875 37.278126Q520.1406 36.8875 520.6406 36.246876L521.7344 37.10625Q520.40625 39.153126 517.75 39.153126ZM517.53125 29.66875Q516.4375 29.66875 515.6875 30.465626Q514.9531 31.2625 514.78125 32.7L520.0625 32.7L520.0625 32.559376Q519.9844 31.184376 519.3125 30.434376Q518.65625 29.66875 517.53125 29.66875ZM529.46875 29.996876Q529.0625 29.934376 528.59375 29.934376Q526.8125 29.934376 526.1719 31.45L526.1719 38.95L524.375 38.95L524.375 28.3875L526.125 28.3875L526.15625 29.60625Q527.0469 28.184376 528.6719 28.184376Q529.2031 28.184376 529.46875 28.325L529.46875 29.996876ZM547.15625 37.090626Q546.4219 38.121876 545.125 38.6375Q543.84375 39.153126 542.125 39.153126Q540.375 39.153126 539.03125 38.340626Q537.6875 37.5125 536.9531 36.0125Q536.21875 34.5125 536.1875 32.528126L536.1875 31.278126Q536.1875 28.075 537.6875 26.309376Q539.1875 24.528126 541.90625 24.528126Q544.125 24.528126 545.4844 25.66875Q546.84375 26.809376 547.15625 28.903126L545.28125 28.903126Q544.75 26.075 541.9219 26.075Q540.03125 26.075 539.0625 27.403126Q538.09375 28.73125 538.0781 31.23125L538.0781 32.403126Q538.0781 34.79375 539.1719 36.2Q540.2656 37.60625 542.125 37.60625Q543.1875 37.60625 543.96875 37.371876Q544.7656 37.1375 545.28125 36.590626L545.28125 33.3875L542.0 33.3875L542.0 31.871876L547.15625 31.871876L547.15625 37.090626ZM556.8906 38.95Q556.7344 38.6375 556.6406 37.840626Q555.375 39.153126 553.625 39.153126Q552.0625 39.153126 551.0625 38.2625Q550.0625 37.371876 550.0625 36.0125Q550.0625 34.371876 551.3125 33.465626Q552.5781 32.54375 554.84375 32.54375L556.6094 32.54375L556.6094 31.715626Q556.6094 30.7625 556.03125 30.2Q555.46875 29.6375 554.375 29.6375Q553.40625 29.6375 552.75 30.1375Q552.09375 30.621876 552.09375 31.309376L550.28125 31.309376Q550.28125 30.528126 550.84375 29.79375Q551.40625 29.04375 552.3594 28.621876Q553.3281 28.184376 554.4844 28.184376Q556.3125 28.184376 557.34375 29.10625Q558.375 30.0125 558.4219 31.621876L558.4219 36.48125Q558.4219 37.934376 558.78125 38.79375L558.78125 38.95L556.8906 38.95ZM553.8906 37.575Q554.75 37.575 555.5 37.1375Q556.2656 36.7 556.6094 35.996876L556.6094 33.825L555.1875 33.825Q551.875 33.825 551.875 35.7625Q551.875 36.621876 552.4375 37.10625Q553.0 37.575 553.8906 37.575ZM563.0625 28.3875L563.1094 29.559376Q564.28125 28.184376 566.25 28.184376Q568.46875 28.184376 569.2656 29.8875Q569.7969 29.121876 570.6406 28.653126Q571.4844 28.184376 572.6406 28.184376Q576.1094 28.184376 576.1719 31.871876L576.1719 38.95L574.3594 38.95L574.3594 31.98125Q574.3594 30.840626 573.84375 30.278126Q573.3281 29.715626 572.1094 29.715626Q571.1094 29.715626 570.4375 30.325Q569.78125 30.91875 569.6719 31.934376L569.6719 38.95L567.8594 38.95L567.8594 32.028126Q567.8594 29.715626 565.59375 29.715626Q563.8125 29.715626 563.1719 31.23125L563.1719 38.95L561.3594 38.95L561.3594 28.3875L563.0625 28.3875ZM583.75 39.153126Q581.6094 39.153126 580.25 37.746876Q578.90625 36.325 578.90625 33.965626L578.90625 33.621876Q578.90625 32.059376 579.5 30.825Q580.1094 29.590626 581.1875 28.8875Q582.2656 28.184376 583.53125 28.184376Q585.59375 28.184376 586.7344 29.54375Q587.875 30.903126 587.875 33.434376L587.875 34.184376L580.71875 34.184376Q580.75 35.746876 581.625 36.715626Q582.5 37.66875 583.84375 37.66875Q584.8125 37.66875 585.46875 37.278126Q586.1406 36.8875 586.6406 36.246876L587.7344 37.10625Q586.40625 39.153126 583.75 39.153126ZM583.53125 29.66875Q582.4375 29.66875 581.6875 30.465626Q580.9531 31.2625 580.78125 32.7L586.0625 32.7L586.0625 32.559376Q585.9844 31.184376 585.3125 30.434376Q584.65625 29.66875 583.53125 29.66875ZM596.5156 36.153126Q596.5156 35.41875 595.96875 35.0125Q595.4219 34.60625 594.0469 34.309376Q592.6719 34.0125 591.8594 33.60625Q591.0625 33.2 590.6719 32.6375Q590.2969 32.059376 590.2969 31.278126Q590.2969 29.98125 591.3906 29.090626Q592.4844 28.184376 594.2031 28.184376Q596.0 28.184376 597.1094 29.121876Q598.2344 30.04375 598.2344 31.48125L596.40625 31.48125Q596.40625 30.746876 595.78125 30.215626Q595.15625 29.66875 594.2031 29.66875Q593.2031 29.66875 592.6406 30.10625Q592.09375 30.528126 592.09375 31.23125Q592.09375 31.871876 592.6094 32.215626Q593.125 32.54375 594.4844 32.85625Q595.84375 33.153126 596.6719 33.575Q597.5156 33.98125 597.9219 34.575Q598.3281 35.16875 598.3281 36.0125Q598.3281 37.434376 597.1875 38.29375Q596.0625 39.153126 594.25 39.153126Q592.9844 39.153126 592.0 38.7Q591.03125 38.246876 590.46875 37.45Q589.9219 36.6375 589.9219 35.7L591.7344 35.7Q591.78125 36.60625 592.4531 37.1375Q593.1406 37.66875 594.25 37.66875Q595.28125 37.66875 595.8906 37.2625Q596.5156 36.840626 596.5156 36.153126Z" fill-rule="nonzero"/></svg>